<svg width="1442" height="63" viewBox="0 0 1442 63" fill="none" xmlns="http://www.w3.org/2000/svg">
<path d="M1177.74 5.36148L1150.47 50.0414L1152.43 53.3411L1181.8 5.33065L1177.74 5.36148Z" fill="#00B0E3"/>
<path d="M1172.33 5.39067L1148.23 44.3159L1150.07 47.8758L1176.37 5.35995L1172.33 5.39067Z" fill="#00B0E3"/>
<path d="M1165.38 5.47051L1153.92 23.9091L1142.45 5.60348L1138.54 5.63316L1153.95 30.627L1169.43 5.39919L1165.38 5.47051Z" fill="#00B0E3"/>
<path d="M1146.46 5.55833L1154.27 18.0917L1162.06 5.43905L1146.46 5.55833Z" fill="#00B0E3"/>
<path d="M1150.26 35.8577L1131.25 5.65451L1135.41 5.62296L1152.64 32.9066L1150.26 35.8577Z" fill="#00B0E3"/>
<path d="M1147.55 41.8622L1124.65 5.69897L1128.79 5.66762L1149.68 38.5164L1147.55 41.8622Z" fill="#00B0E3"/>
<path d="M1145.69 54.5733L1118.07 10.3157L1120 6.9813L1149.75 54.5425L1145.69 54.5733Z" fill="#EB1947"/>
<path d="M1139.92 54.612L1115.52 16.0547L1117.32 12.4723L1143.96 54.5813L1139.92 54.612Z" fill="#EB1947"/>
<path d="M1132.98 54.6104L1121.38 36.3466L1110.05 54.8196L1106.14 54.8492L1121.35 29.6236L1137.03 54.6152L1132.98 54.6104Z" fill="#EB1947"/>
<path d="M1114.07 54.8051L1121.79 42.1581L1129.67 54.6858L1114.07 54.8051Z" fill="#EB1947"/>
<path d="M1117.62 24.4057L1098.85 54.8901L1103.01 54.8585L1120.02 27.3205L1117.62 24.4057Z" fill="#EB1947"/>
<path d="M1114.86 18.4189L1092.25 54.9269L1096.38 54.8956L1117.01 21.7374L1114.86 18.4189Z" fill="#EB1947"/>
<path d="M1112.8 6.34902L1085.53 51.0234L1087.48 54.3282L1116.86 6.31819L1112.8 6.34902Z" fill="white"/>
<path d="M1106.87 7.00306L1082.77 45.9282L1084.6 49.4881L1110.91 6.97237L1106.87 7.00306Z" fill="white"/>
<path d="M1100.07 6.4557L1088.62 24.8941L1077.15 6.59374L1073.23 6.62339L1088.64 31.617L1104.13 6.38942L1100.07 6.4557Z" fill="white"/>
<path d="M1081.15 6.54851L1088.97 19.0768L1096.76 6.42919L1081.15 6.54851Z" fill="white"/>
<path d="M1084.96 36.8428L1065.95 6.64474L1070.11 6.6132L1087.33 33.8968L1084.96 36.8428Z" fill="white"/>
<path d="M1082.24 42.8517L1059.35 6.68914L1063.48 6.65778L1084.37 39.5008L1082.24 42.8517Z" fill="white"/>
<path d="M1079.75 54.941L1052.13 10.6832L1054.07 7.34883L1083.81 54.9102L1079.75 54.941Z" fill="#00B0E3"/>
<path d="M1073.98 54.9795L1049.59 16.4224L1051.39 12.84L1078.03 54.9487L1073.98 54.9795Z" fill="#00B0E3"/>
<path d="M1067.04 54.9781L1055.44 36.7144L1044.12 55.1872L1040.2 55.2169L1055.41 29.9914L1071.09 54.9829L1067.04 54.9781Z" fill="#00B0E3"/>
<path d="M1048.13 55.173L1055.85 42.5261L1063.73 55.0537L1048.13 55.173Z" fill="#00B0E3"/>
<path d="M1051.69 24.7728L1032.91 55.2575L1037.07 55.2259L1054.09 27.6877L1051.69 24.7728Z" fill="#00B0E3"/>
<path d="M1048.92 18.7866L1026.31 55.2944L1030.44 55.2631L1051.07 22.105L1048.92 18.7866Z" fill="#00B0E3"/>
<path d="M1046.95 6.09017L1019.67 50.7699L1021.64 54.0696L1051.01 6.05935L1046.95 6.09017Z" fill="#EB1947"/>
<path d="M1041.18 6.12196L1017.08 45.0474L1018.91 48.6072L1045.22 6.09127L1041.18 6.12196Z" fill="#EB1947"/>
<path d="M1034.22 6.20207L1022.77 24.6404L1011.3 6.33504L1007.38 6.36472L1022.79 31.3582L1038.28 6.13075L1034.22 6.20207Z" fill="#EB1947"/>
<path d="M1015.3 6.2896L1023.12 18.8231L1030.91 6.17031L1015.3 6.2896Z" fill="#EB1947"/>
<path d="M1019.11 36.5889L1000.1 6.38582L1004.26 6.35427L1021.48 33.6378L1019.11 36.5889Z" fill="#EB1947"/>
<path d="M1016.3 42.5936L993.409 6.43046L997.54 6.39915L1018.43 39.2478L1016.3 42.5936Z" fill="#EB1947"/>
<path d="M1014.44 54.6839L986.823 10.4211L988.756 7.09188L1018.5 54.6531L1014.44 54.6839Z" fill="white"/>
<path d="M1008.5 54.0976L984.11 15.5454L985.916 11.9578L1012.55 54.0669L1008.5 54.0976Z" fill="white"/>
<path d="M1001.73 54.7162L990.133 36.4574L978.808 54.9304L974.889 54.9601L990.107 29.7345L1005.79 54.7261L1001.73 54.7162Z" fill="white"/>
<path d="M982.822 54.9159L990.536 42.2639L998.423 54.7966L982.822 54.9159Z" fill="white"/>
<path d="M986.379 24.5163L967.602 55.0009L971.764 54.9693L988.774 27.4261L986.379 24.5163Z" fill="white"/>
<path d="M983.61 18.5296L960.997 55.0376L965.133 55.0062L985.765 21.843L983.61 18.5296Z" fill="white"/>
<path d="M1372.87 6.64272L1345.6 51.3222L1347.56 54.6219L1376.93 6.61189L1372.87 6.64272Z" fill="#00B0E3"/>
<path d="M1367.46 6.67198L1343.36 45.5972L1345.2 49.157L1371.5 6.64126L1367.46 6.67198Z" fill="#00B0E3"/>
<path d="M1360.51 6.75158L1349.05 25.1901L1337.59 6.88455L1333.67 6.91423L1349.08 31.908L1364.56 6.68026L1360.51 6.75158Z" fill="#00B0E3"/>
<path d="M1341.59 6.83952L1349.4 19.3729L1357.19 6.72024L1341.59 6.83952Z" fill="#00B0E3"/>
<path d="M1345.39 37.1389L1326.38 6.93587L1330.55 6.90432L1347.77 34.1879L1345.39 37.1389Z" fill="#00B0E3"/>
<path d="M1342.68 43.1434L1319.78 6.9801L1323.92 6.94875L1344.81 39.7976L1342.68 43.1434Z" fill="#00B0E3"/>
<path d="M1340.82 55.8546L1313.2 11.5966L1315.13 8.26226L1344.88 55.8237L1340.82 55.8546Z" fill="#EB1947"/>
<path d="M1335.05 55.8932L1310.65 17.3359L1312.46 13.7535L1339.09 55.8625L1335.05 55.8932Z" fill="#EB1947"/>
<path d="M1328.11 55.8917L1316.51 37.6279L1305.19 56.1008L1301.27 56.1305L1316.48 30.9049L1332.16 55.8965L1328.11 55.8917Z" fill="#EB1947"/>
<path d="M1309.2 56.0866L1316.92 43.4394L1324.8 55.9673L1309.2 56.0866Z" fill="#EB1947"/>
<path d="M1312.76 25.6867L1293.98 56.1711L1298.14 56.1395L1315.16 28.6015L1312.76 25.6867Z" fill="#EB1947"/>
<path d="M1309.99 19.6998L1287.38 56.2079L1291.51 56.1766L1312.14 23.0183L1309.99 19.6998Z" fill="#EB1947"/>
<path d="M1307.93 7.63003L1280.66 52.3046L1282.61 55.6095L1311.99 7.5992L1307.93 7.63003Z" fill="white"/>
<path d="M1302 8.28419L1277.9 47.2095L1279.73 50.7693L1306.04 8.2535L1302 8.28419Z" fill="white"/>
<path d="M1295.2 7.73707L1283.75 26.1755L1272.28 7.87512L1268.37 7.90476L1283.77 32.8985L1299.26 7.6708L1295.2 7.73707Z" fill="white"/>
<path d="M1276.28 7.82976L1284.1 20.3578L1291.89 7.71044L1276.28 7.82976Z" fill="white"/>
<path d="M1280.09 38.1238L1261.08 7.92581L1265.24 7.89427L1282.47 35.1778L1280.09 38.1238Z" fill="white"/>
<path d="M1277.38 44.1334L1254.48 7.97026L1258.61 7.93894L1279.5 40.7825L1277.38 44.1334Z" fill="white"/>
<path d="M1274.88 56.2222L1247.26 11.9646L1249.2 8.63019L1278.94 56.1914L1274.88 56.2222Z" fill="#00B0E3"/>
<path d="M1269.11 56.2605L1244.72 17.7035L1246.52 14.1211L1273.16 56.2297L1269.11 56.2605Z" fill="#00B0E3"/>
<path d="M1262.17 56.2593L1250.57 37.9955L1239.25 56.4684L1235.33 56.4981L1250.55 31.2726L1266.23 56.2642L1262.17 56.2593Z" fill="#00B0E3"/>
<path d="M1243.26 56.454L1250.98 43.8068L1258.87 56.3347L1243.26 56.454Z" fill="#00B0E3"/>
<path d="M1246.82 26.0544L1228.04 56.5385L1232.2 56.5069L1249.22 28.9692L1246.82 26.0544Z" fill="#00B0E3"/>
<path d="M1244.05 20.0678L1221.44 56.5759L1225.57 56.5445L1246.2 23.3862L1244.05 20.0678Z" fill="#00B0E3"/>
<path d="M1242.08 7.37137L1214.81 52.0512L1216.77 55.3509L1246.14 7.34054L1242.08 7.37137Z" fill="#EB1947"/>
<path d="M1236.31 7.40339L1212.21 46.3286L1214.04 49.8885L1240.35 7.3727L1236.31 7.40339Z" fill="#EB1947"/>
<path d="M1229.35 7.48309L1217.9 25.9215L1206.43 7.61605L1202.51 7.64574L1217.93 32.6395L1233.41 7.41177L1229.35 7.48309Z" fill="#EB1947"/>
<path d="M1210.44 7.57079L1218.25 20.1041L1226.04 7.4515L1210.44 7.57079Z" fill="#EB1947"/>
<path d="M1214.24 37.8706L1195.23 7.66733L1199.39 7.63578L1216.61 34.9196L1214.24 37.8706Z" fill="#EB1947"/>
<path d="M1211.43 43.8748L1188.54 7.71171L1192.67 7.6804L1213.56 40.5291L1211.43 43.8748Z" fill="#EB1947"/>
<path d="M1209.57 55.9654L1181.95 11.7025L1183.89 8.37321L1213.63 55.9346L1209.57 55.9654Z" fill="white"/>
<path d="M1203.63 55.3789L1179.24 16.8269L1181.05 13.2394L1207.68 55.3481L1203.63 55.3789Z" fill="white"/>
<path d="M1196.86 55.9972L1185.26 37.7384L1173.94 56.2114L1170.02 56.2411L1185.24 31.0154L1200.92 56.0071L1196.86 55.9972Z" fill="white"/>
<path d="M1177.95 56.1972L1185.67 43.5452L1193.55 56.0779L1177.95 56.1972Z" fill="white"/>
<path d="M1181.51 25.7971L1162.73 56.2816L1166.9 56.2501L1183.9 28.7069L1181.51 25.7971Z" fill="white"/>
<path d="M1178.74 19.8107L1156.13 56.3186L1160.26 56.2872L1180.9 23.124L1178.74 19.8107Z" fill="white"/>
<path d="M1437.2 6.28329L1409.92 50.9628L1411.89 54.2625L1441.26 6.25243L1437.2 6.28329Z" fill="#EB1947"/>
<path d="M1431.43 6.31523L1407.33 45.2405L1409.16 48.8003L1435.47 6.28452L1431.43 6.31523Z" fill="#EB1947"/>
<path d="M1424.47 6.39488L1413.02 24.8333L1401.55 6.52801L1397.63 6.55771L1413.05 31.5512L1428.53 6.32353L1424.47 6.39488Z" fill="#EB1947"/>
<path d="M1405.56 6.48262L1413.37 19.0158L1421.16 6.36323L1405.56 6.48262Z" fill="#EB1947"/>
<path d="M1409.36 36.782L1390.35 6.57911L1394.51 6.54754L1411.73 33.831L1409.36 36.782Z" fill="#EB1947"/>
<path d="M1406.56 42.7862L1383.66 6.62379L1387.79 6.59245L1408.68 39.4405L1406.56 42.7862Z" fill="#EB1947"/>
<path d="M1404.69 54.877L1377.07 10.6147L1379.01 7.28543L1408.75 54.8462L1404.69 54.877Z" fill="white"/>
<path d="M1398.75 54.2905L1374.36 15.7387L1376.17 12.1512L1402.8 54.2598L1398.75 54.2905Z" fill="white"/>
<path d="M1391.98 54.9088L1380.38 36.6503L1369.06 55.1232L1365.14 55.1529L1380.36 29.9274L1396.04 54.9187L1391.98 54.9088Z" fill="white"/>
<path d="M1373.07 55.1089L1380.79 42.457L1388.67 54.9895L1373.07 55.1089Z" fill="white"/>
<path d="M1376.63 24.709L1357.85 55.1934L1362.02 55.1618L1379.03 27.6188L1376.63 24.709Z" fill="white"/>
<path d="M1373.86 18.7226L1351.25 55.2306L1355.38 55.1992L1376.02 22.0359L1373.86 18.7226Z" fill="white"/>
<path d="M597.815 6.26369L570.541 50.9433L572.503 54.243L601.875 6.23287L597.815 6.26369Z" fill="#00B0E3"/>
<path d="M592.403 6.29265L568.309 45.218L570.142 48.7779L596.45 6.26193L592.403 6.29265Z" fill="#00B0E3"/>
<path d="M585.451 6.37254L573.997 24.8108L562.53 6.50551L558.611 6.53519L574.023 31.5286L589.504 6.30122L585.451 6.37254Z" fill="#00B0E3"/>
<path d="M566.535 6.4603L574.345 18.9935L582.136 6.34102L566.535 6.4603Z" fill="#00B0E3"/>
<path d="M570.336 36.7596L551.328 6.55636L555.49 6.52481L572.712 33.8085L570.336 36.7596Z" fill="#00B0E3"/>
<path d="M567.622 42.764L544.728 6.60106L548.863 6.56972L569.751 39.4182L567.622 42.764Z" fill="#00B0E3"/>
<path d="M565.762 55.4752L538.145 11.2175L540.077 7.88316L569.822 55.4443L565.762 55.4752Z" fill="#EB1947"/>
<path d="M559.992 55.5136L535.599 16.9565L537.4 13.3741L564.034 55.4829L559.992 55.5136Z" fill="#EB1947"/>
<path d="M553.05 55.5123L541.454 37.2484L530.129 55.7214L526.215 55.7511L541.428 30.5254L557.108 55.5171L553.05 55.5123Z" fill="#EB1947"/>
<path d="M534.143 55.7072L541.862 43.0604L549.749 55.5879L534.143 55.7072Z" fill="#EB1947"/>
<path d="M537.701 25.3074L518.923 55.7919L523.086 55.7604L540.099 28.2223L537.701 25.3074Z" fill="#EB1947"/>
<path d="M534.935 19.3202L512.32 55.8286L516.452 55.7973L537.085 22.6387L534.935 19.3202Z" fill="#EB1947"/>
<path d="M532.876 7.25081L505.602 51.9253L507.56 55.2301L536.936 7.21999L532.876 7.25081Z" fill="white"/>
<path d="M526.943 7.90492L502.845 46.8303L504.678 50.3902L530.986 7.87423L526.943 7.90492Z" fill="white"/>
<path d="M520.146 7.35767L508.692 25.7959L497.225 7.49572L493.31 7.52536L508.718 32.5189L524.203 7.2914L520.146 7.35767Z" fill="white"/>
<path d="M501.228 7.45061L509.043 19.9789L516.833 7.33129L501.228 7.45061Z" fill="white"/>
<path d="M505.034 37.7447L486.022 7.54666L490.184 7.51511L507.41 34.7987L505.034 37.7447Z" fill="white"/>
<path d="M502.32 43.7538L479.425 7.59101L483.557 7.55964L504.444 40.4029L502.32 43.7538Z" fill="white"/>
<path d="M499.823 55.8428L472.206 11.5851L474.143 8.25068L503.883 55.812L499.823 55.8428Z" fill="#00B0E3"/>
<path d="M494.053 55.8816L469.66 17.3244L471.466 13.742L498.1 55.8508L494.053 55.8816Z" fill="#00B0E3"/>
<path d="M487.112 55.88L475.516 37.6162L464.196 56.089L460.277 56.1187L475.49 30.8932L491.17 55.8848L487.112 55.88Z" fill="#00B0E3"/>
<path d="M468.21 56.0746L475.924 43.4276L483.811 55.9553L468.21 56.0746Z" fill="#00B0E3"/>
<path d="M471.762 25.675L452.989 56.1593L457.147 56.1278L474.161 28.5898L471.762 25.675Z" fill="#00B0E3"/>
<path d="M468.997 19.6884L446.383 56.1965L450.515 56.1652L471.147 23.0068L468.997 19.6884Z" fill="#00B0E3"/>
<path d="M467.023 6.99221L439.749 51.6718L441.711 54.9715L471.083 6.96138L467.023 6.99221Z" fill="#EB1947"/>
<path d="M461.254 7.02412L437.155 45.9492L438.989 49.5091L465.296 6.99343L461.254 7.02412Z" fill="#EB1947"/>
<path d="M454.298 7.10375L442.844 25.5422L431.377 7.23672L427.458 7.2664L442.87 32.2601L458.351 7.03243L454.298 7.10375Z" fill="#EB1947"/>
<path d="M435.381 7.19139L443.192 19.7247L450.982 7.0721L435.381 7.19139Z" fill="#EB1947"/>
<path d="M439.182 37.4908L420.174 7.28768L424.336 7.25613L441.558 34.5397L439.182 37.4908Z" fill="#EB1947"/>
<path d="M436.377 43.4952L413.483 7.33246L417.614 7.30109L438.502 40.1494L436.377 43.4952Z" fill="#EB1947"/>
<path d="M434.511 55.586L406.898 11.3231L408.83 7.99387L438.571 55.5552L434.511 55.586Z" fill="white"/>
<path d="M428.579 54.9995L404.186 16.4473L405.992 12.8598L432.626 54.9688L428.579 54.9995Z" fill="white"/>
<path d="M421.805 55.6183L410.208 37.3595L398.884 55.8325L394.965 55.8622L410.182 30.6365L425.863 55.6282L421.805 55.6183Z" fill="white"/>
<path d="M402.898 55.8178L410.613 43.1658L418.499 55.6985L402.898 55.8178Z" fill="white"/>
<path d="M406.454 25.4179L387.676 55.9022L391.839 55.8707L408.848 28.3277L406.454 25.4179Z" fill="white"/>
<path d="M403.686 19.4314L381.072 55.9394L385.208 55.9081L405.841 22.7447L403.686 19.4314Z" fill="white"/>
<path d="M792.947 7.5444L765.673 52.224L767.636 55.5237L797.008 7.51357L792.947 7.5444Z" fill="#00B0E3"/>
<path d="M787.535 7.57359L763.44 46.499L765.274 50.0589L791.581 7.54287L787.535 7.57359Z" fill="#00B0E3"/>
<path d="M780.584 7.65331L769.13 26.0917L757.663 7.78627L753.744 7.81596L769.156 32.8096L784.637 7.58199L780.584 7.65331Z" fill="#00B0E3"/>
<path d="M761.666 7.74112L769.477 20.2743L777.267 7.62184L761.666 7.74112Z" fill="#00B0E3"/>
<path d="M765.468 38.0408L746.46 7.83755L750.622 7.806L767.844 35.0897L765.468 38.0408Z" fill="#00B0E3"/>
<path d="M762.753 44.0443L739.858 7.88154L743.994 7.85014L764.881 40.6985L762.753 44.0443Z" fill="#00B0E3"/>
<path d="M760.894 56.7562L733.276 12.4984L735.208 9.16405L764.954 56.7253L760.894 56.7562Z" fill="#EB1947"/>
<path d="M755.124 56.7946L730.731 18.2375L732.532 14.6551L759.166 56.7639L755.124 56.7946Z" fill="#EB1947"/>
<path d="M748.183 56.7935L736.586 38.5296L725.262 57.0027L721.347 57.0323L736.56 31.8066L752.241 56.7983L748.183 56.7935Z" fill="#EB1947"/>
<path d="M729.275 56.9882L736.994 44.3413L744.881 56.8689L729.275 56.9882Z" fill="#EB1947"/>
<path d="M732.833 26.5883L714.055 57.0727L718.218 57.0411L735.232 29.5031L732.833 26.5883Z" fill="#EB1947"/>
<path d="M730.068 20.6016L707.454 57.1096L711.586 57.0782L732.218 23.92L730.068 20.6016Z" fill="#EB1947"/>
<path d="M728.008 8.53158L700.734 53.206L702.691 56.5108L732.068 8.50075L728.008 8.53158Z" fill="white"/>
<path d="M722.076 9.18575L697.977 48.1113L699.81 51.6712L726.118 9.15505L722.076 9.18575Z" fill="white"/>
<path d="M715.277 8.63868L703.823 27.0771L692.356 8.77673L688.441 8.80638L703.849 33.8001L719.335 8.57241L715.277 8.63868Z" fill="white"/>
<path d="M696.361 8.73143L704.176 21.2596L711.966 8.61211L696.361 8.73143Z" fill="white"/>
<path d="M700.166 39.0254L681.154 8.82724L685.317 8.79569L702.543 36.0794L700.166 39.0254Z" fill="white"/>
<path d="M697.451 45.0345L674.557 8.87189L678.688 8.84052L699.576 41.6837L697.451 45.0345Z" fill="white"/>
<path d="M694.956 57.1236L667.338 12.8659L669.275 9.53156L699.016 57.0928L694.956 57.1236Z" fill="#00B0E3"/>
<path d="M689.186 57.1623L664.792 18.6048L666.599 15.0223L693.232 57.1316L689.186 57.1623Z" fill="#00B0E3"/>
<path d="M682.245 57.161L670.648 38.8971L659.328 57.3701L655.409 57.3997L670.622 32.1741L686.302 57.1658L682.245 57.161Z" fill="#00B0E3"/>
<path d="M663.341 57.3556L671.056 44.7087L678.942 57.2363L663.341 57.3556Z" fill="#00B0E3"/>
<path d="M666.894 26.9559L648.121 57.4403L652.279 57.4088L669.293 29.8707L666.894 26.9559Z" fill="#00B0E3"/>
<path d="M664.129 20.9688L641.515 57.4773L645.646 57.446L666.279 24.2872L664.129 20.9688Z" fill="#00B0E3"/>
<path d="M662.156 8.27291L634.882 52.9526L636.844 56.2522L666.216 8.24209L662.156 8.27291Z" fill="#EB1947"/>
<path d="M656.386 8.30494L632.287 47.2302L634.12 50.7901L660.428 8.27425L656.386 8.30494Z" fill="#EB1947"/>
<path d="M649.43 8.38493L637.976 26.8232L626.509 8.5179L622.59 8.54758L638.002 33.5411L653.483 8.31361L649.43 8.38493Z" fill="#EB1947"/>
<path d="M630.514 8.47245L638.324 21.0057L646.114 8.35317L630.514 8.47245Z" fill="#EB1947"/>
<path d="M634.315 38.772L615.307 8.56857L619.469 8.53702L636.691 35.8209L634.315 38.772Z" fill="#EB1947"/>
<path d="M631.51 44.7762L608.616 8.61341L612.747 8.58204L633.635 41.4304L631.51 44.7762Z" fill="#EB1947"/>
<path d="M629.644 56.8668L602.031 12.604L603.963 9.27475L633.704 56.8359L629.644 56.8668Z" fill="white"/>
<path d="M623.71 56.2805L599.317 17.7282L601.123 14.1406L627.757 56.2498L623.71 56.2805Z" fill="white"/>
<path d="M616.937 56.899L605.341 38.6402L594.017 57.1133L590.097 57.1429L605.315 31.9172L620.995 56.9089L616.937 56.899Z" fill="white"/>
<path d="M598.03 57.0988L605.744 44.4468L613.631 56.9795L598.03 57.0988Z" fill="white"/>
<path d="M601.587 26.6989L582.81 57.1832L586.972 57.1517L603.982 29.6087L601.587 26.6989Z" fill="white"/>
<path d="M598.817 20.7117L576.203 57.22L580.339 57.1886L600.972 24.025L598.817 20.7117Z" fill="white"/>
<path d="M988.067 6.45663L960.793 51.1362L962.755 54.4358L992.127 6.4258L988.067 6.45663Z" fill="#00B0E3"/>
<path d="M982.654 6.48582L958.56 45.4111L960.393 48.971L986.701 6.4551L982.654 6.48582Z" fill="#00B0E3"/>
<path d="M975.703 6.5656L964.249 25.0039L952.782 6.69856L948.863 6.72824L964.275 31.7217L979.757 6.49428L975.703 6.5656Z" fill="#00B0E3"/>
<path d="M956.786 6.6533L964.597 19.1866L972.387 6.53402L956.786 6.6533Z" fill="#00B0E3"/>
<path d="M960.587 36.9529L941.579 6.74966L945.742 6.71811L962.963 34.0018L960.587 36.9529Z" fill="#00B0E3"/>
<path d="M957.872 42.9564L934.978 6.79359L939.114 6.76219L960.001 39.6106L957.872 42.9564Z" fill="#00B0E3"/>
<path d="M956.014 55.6683L928.396 11.4106L930.328 8.07627L960.074 55.6375L956.014 55.6683Z" fill="#EB1947"/>
<path d="M950.244 55.707L925.851 17.1498L927.652 13.5674L954.286 55.6763L950.244 55.707Z" fill="#EB1947"/>
<path d="M943.302 55.7054L931.706 37.4416L920.382 55.9145L916.467 55.9442L931.68 30.7186L947.36 55.7102L943.302 55.7054Z" fill="#EB1947"/>
<path d="M924.395 55.9003L932.114 43.2533L940 55.781L924.395 55.9003Z" fill="#EB1947"/>
<path d="M927.952 25.5007L909.174 55.985L913.337 55.9535L930.351 28.4155L927.952 25.5007Z" fill="#EB1947"/>
<path d="M925.187 19.5137L902.574 56.0219L906.705 55.9906L927.337 22.8322L925.187 19.5137Z" fill="#EB1947"/>
<path d="M923.127 7.44381L895.853 52.1184L897.811 55.4232L927.187 7.41299L923.127 7.44381Z" fill="white"/>
<path d="M917.195 8.09779L893.096 47.0232L894.93 50.5831L921.237 8.0671L917.195 8.09779Z" fill="white"/>
<path d="M910.397 7.55097L898.943 25.9893L887.476 7.68902L883.561 7.71867L898.969 32.7123L914.455 7.4847L910.397 7.55097Z" fill="white"/>
<path d="M891.48 7.6436L899.295 20.1717L907.086 7.52428L891.48 7.6436Z" fill="white"/>
<path d="M895.286 37.9378L876.273 7.73977L880.436 7.70823L897.662 34.9918L895.286 37.9378Z" fill="white"/>
<path d="M892.571 43.9466L869.676 7.78388L873.808 7.75251L894.695 40.5958L892.571 43.9466Z" fill="white"/>
<path d="M890.075 56.036L862.458 11.7782L864.395 8.4438L894.135 56.0051L890.075 56.036Z" fill="#00B0E3"/>
<path d="M884.305 56.0747L859.912 17.5173L861.718 13.9348L888.352 56.0439L884.305 56.0747Z" fill="#00B0E3"/>
<path d="M877.364 56.0731L865.767 37.8092L854.447 56.2822L850.528 56.3118L865.741 31.0862L881.421 56.0779L877.364 56.0731Z" fill="#00B0E3"/>
<path d="M858.461 56.268L866.175 43.6209L874.061 56.1487L858.461 56.268Z" fill="#00B0E3"/>
<path d="M862.014 25.8682L843.241 56.3527L847.399 56.3212L864.413 28.7831L862.014 25.8682Z" fill="#00B0E3"/>
<path d="M859.248 19.8811L836.634 56.3894L840.765 56.3581L861.398 23.1995L859.248 19.8811Z" fill="#00B0E3"/>
<path d="M857.275 7.18521L830.001 51.8649L831.963 55.1646L861.335 7.15438L857.275 7.18521Z" fill="#EB1947"/>
<path d="M851.505 7.21711L827.406 46.1426L829.24 49.7025L855.548 7.18642L851.505 7.21711Z" fill="#EB1947"/>
<path d="M844.55 7.29674L833.096 25.7352L821.629 7.42971L817.71 7.45939L833.122 32.4532L848.603 7.22542L844.55 7.29674Z" fill="#EB1947"/>
<path d="M825.633 7.38438L833.443 19.9178L841.233 7.2651L825.633 7.38438Z" fill="#EB1947"/>
<path d="M829.434 37.6844L810.426 7.4811L814.588 7.44955L831.81 34.7333L829.434 37.6844Z" fill="#EB1947"/>
<path d="M826.63 43.6883L803.735 7.52552L807.867 7.49415L828.754 40.3425L826.63 43.6883Z" fill="#EB1947"/>
<path d="M824.764 55.7791L797.151 11.5164L799.083 8.18717L828.824 55.7483L824.764 55.7791Z" fill="white"/>
<path d="M818.83 55.1928L794.437 16.6406L796.243 13.0531L822.877 55.1621L818.83 55.1928Z" fill="white"/>
<path d="M812.057 55.8109L800.46 37.5522L789.136 56.0251L785.217 56.0548L800.434 30.8292L816.114 55.8208L812.057 55.8109Z" fill="white"/>
<path d="M793.149 56.0109L800.864 43.3589L808.75 55.8916L793.149 56.0109Z" fill="white"/>
<path d="M796.707 25.6112L777.929 56.0956L782.092 56.064L799.101 28.521L796.707 25.6112Z" fill="white"/>
<path d="M793.937 19.6241L771.323 56.1324L775.458 56.101L796.091 22.9374L793.937 19.6241Z" fill="white"/>
<path d="M217.247 7.55258L189.745 52.0924L191.69 55.4021L221.307 7.54249L217.247 7.55258Z" fill="#00B0E3"/>
<path d="M211.834 7.55399L187.541 46.3557L189.357 49.9249L215.881 7.54393L211.834 7.55399Z" fill="#00B0E3"/>
<path d="M204.882 7.59808L193.334 25.9779L181.961 7.61398L178.041 7.62365L193.326 32.6959L208.936 7.54746L204.882 7.59808Z" fill="#00B0E3"/>
<path d="M185.966 7.58929L193.712 20.1622L201.567 7.54968L185.966 7.58929Z" fill="#00B0E3"/>
<path d="M189.612 37.908L170.758 7.60824L174.921 7.59796L192.003 34.9691L189.612 37.908Z" fill="#00B0E3"/>
<path d="M186.868 43.8984L164.158 7.61869L168.294 7.60847L189.014 40.5635L186.868 43.8984Z" fill="#00B0E3"/>
<path d="M184.943 56.6002L157.552 12.2018L159.501 8.87738L189.003 56.5901L184.943 56.6002Z" fill="#EB1947"/>
<path d="M179.173 56.6089L154.977 17.9275L156.797 14.3543L183.215 56.5989L179.173 56.6089Z" fill="#EB1947"/>
<path d="M172.231 56.5721L160.728 38.2493L149.309 56.6642L145.394 56.6738L160.736 31.5263L176.289 56.5977L172.231 56.5721Z" fill="#EB1947"/>
<path d="M153.323 56.6702L161.106 44.0628L168.929 56.6306L153.323 56.6702Z" fill="#EB1947"/>
<path d="M157.036 26.2892L138.103 56.6774L142.266 56.6671L159.42 29.2163L157.036 26.2892Z" fill="#EB1947"/>
<path d="M154.301 20.2885L131.501 56.6804L135.633 56.6702L156.434 23.6179L154.301 20.2885Z" fill="#EB1947"/>
<path d="M152.303 8.20828L124.801 52.7428L126.742 56.0576L156.363 8.19819L152.303 8.20828Z" fill="white"/>
<path d="M146.368 8.83217L122.07 47.634L123.886 51.2032L150.41 8.82212L146.368 8.83217Z" fill="white"/>
<path d="M139.573 8.25005L128.025 26.6296L116.652 8.27103L112.737 8.28068L128.016 33.3526L143.631 8.2045L139.573 8.25005Z" fill="white"/>
<path d="M120.654 8.24608L128.405 20.8141L136.26 8.20646L120.654 8.24608Z" fill="white"/>
<path d="M124.306 38.5596L105.448 8.26479L109.611 8.2545L126.698 35.6258L124.306 38.5596Z" fill="white"/>
<path d="M121.562 44.5548L98.852 8.2755L102.984 8.26529L123.703 41.2149L121.562 44.5548Z" fill="white"/>
<path d="M119.003 56.6307L91.6118 12.2325L93.5655 8.90801L123.063 56.6206L119.003 56.6307Z" fill="#00B0E3"/>
<path d="M113.233 56.6397L89.0373 17.9584L90.8617 14.3852L117.28 56.6296L113.233 56.6397Z" fill="#00B0E3"/>
<path d="M106.292 56.6029L94.7891 38.2802L83.3749 56.6949L79.4556 56.7046L94.7974 31.5572L110.35 56.6284L106.292 56.6029Z" fill="#00B0E3"/>
<path d="M87.3892 56.701L95.1681 44.0936L102.99 56.6614L87.3892 56.701Z" fill="#00B0E3"/>
<path d="M91.0961 26.3199L72.1676 56.7079L76.3259 56.6976L93.4802 29.247L91.0961 26.3199Z" fill="#00B0E3"/>
<path d="M88.3621 20.3192L65.5623 56.7112L69.6939 56.701L90.4953 23.6486L88.3621 20.3192Z" fill="#00B0E3"/>
<path d="M86.4533 7.613L58.9512 52.1527L60.8967 55.4624L90.5136 7.60291L86.4533 7.613Z" fill="#EB1947"/>
<path d="M80.6826 7.61538L56.3852 46.4172L58.2007 49.9864L84.7249 7.60533L80.6826 7.61538Z" fill="#EB1947"/>
<path d="M73.7272 7.6596L62.179 26.0392L50.8058 7.6755L46.8865 7.68516L62.1708 32.7572L77.7806 7.60898L73.7272 7.6596Z" fill="#EB1947"/>
<path d="M54.8095 7.65076L62.5557 20.224L70.4106 7.61115L54.8095 7.65076Z" fill="#EB1947"/>
<path d="M58.4563 37.9695L39.6028 7.66965L43.7655 7.65936L60.8476 35.0306L58.4563 37.9695Z" fill="#EB1947"/>
<path d="M55.6226 43.9596L32.9127 7.67999L37.0442 7.66978L57.764 40.6247L55.6226 43.9596Z" fill="#EB1947"/>
<path d="M53.6933 56.0404L26.3068 11.637L28.2561 8.31764L57.7535 56.0303L53.6933 56.0404Z" fill="white"/>
<path d="M47.7632 55.4236L23.5671 16.7474L25.3914 13.1692L51.8099 55.4136L47.7632 55.4236Z" fill="white"/>
<path d="M40.9871 56.0075L29.4842 37.6897L18.0656 56.1046L14.1463 56.1143L29.4925 30.9666L45.0449 56.0381L40.9871 56.0075Z" fill="white"/>
<path d="M22.0785 56.1104L29.8575 43.498L37.6797 56.0708L22.0785 56.1104Z" fill="white"/>
<path d="M25.7906 25.7295L6.85755 56.1175L11.0203 56.1072L28.1701 28.6515L25.7906 25.7295Z" fill="white"/>
<path d="M23.0529 19.7289L0.253151 56.1209L4.38918 56.1106L25.1906 23.0532L23.0529 19.7289Z" fill="white"/>
<path d="M412.37 7.46115L384.868 52.0008L386.813 55.3105L416.43 7.45106L412.37 7.46115Z" fill="#00B0E3"/>
<path d="M406.957 7.46256L382.664 46.2644L384.48 49.8336L411.004 7.4525L406.957 7.46256Z" fill="#00B0E3"/>
<path d="M400.005 7.50695L388.457 25.8866L377.084 7.52285L373.164 7.53251L388.449 32.6046L404.059 7.45633L400.005 7.50695Z" fill="#00B0E3"/>
<path d="M381.089 7.49792L388.835 20.0709L396.69 7.45831L381.089 7.49792Z" fill="#00B0E3"/>
<path d="M384.735 37.8164L365.881 7.51669L370.044 7.5064L387.126 34.8776L384.735 37.8164Z" fill="#00B0E3"/>
<path d="M381.991 43.8068L359.281 7.52719L363.417 7.51697L384.137 40.4719L381.991 43.8068Z" fill="#00B0E3"/>
<path d="M380.066 56.5086L352.675 12.1104L354.624 8.786L384.126 56.4985L380.066 56.5086Z" fill="#EB1947"/>
<path d="M374.297 56.5176L350.1 17.8363L351.92 14.2632L378.339 56.5076L374.297 56.5176Z" fill="#EB1947"/>
<path d="M367.354 56.4808L355.851 38.1579L344.432 56.5729L340.518 56.5825L355.859 31.4349L371.412 56.5063L367.354 56.4808Z" fill="#EB1947"/>
<path d="M348.446 56.5789L356.229 43.9715L364.052 56.5393L348.446 56.5789Z" fill="#EB1947"/>
<path d="M352.159 26.1976L333.226 56.5858L337.389 56.5755L354.543 29.1247L352.159 26.1976Z" fill="#EB1947"/>
<path d="M349.423 20.1964L326.623 56.5887L330.755 56.5785L351.556 23.5258L349.423 20.1964Z" fill="#EB1947"/>
<path d="M347.426 8.11661L319.924 52.6513L321.865 55.966L351.486 8.10652L347.426 8.11661Z" fill="white"/>
<path d="M341.491 8.7405L317.194 47.5423L319.009 51.1114L345.534 8.73045L341.491 8.7405Z" fill="white"/>
<path d="M334.696 8.15856L323.148 26.5383L311.775 8.17954L307.86 8.18919L323.14 33.2613L338.754 8.11301L334.696 8.15856Z" fill="white"/>
<path d="M315.778 8.15452L323.528 20.7225L331.383 8.1149L315.778 8.15452Z" fill="white"/>
<path d="M319.43 38.4678L300.572 8.17305L304.734 8.16276L321.821 35.534L319.43 38.4678Z" fill="white"/>
<path d="M316.685 44.4635L293.975 8.18389L298.107 8.17368L318.826 41.1236L316.685 44.4635Z" fill="white"/>
<path d="M314.126 56.5394L286.735 12.1412L288.689 8.8167L318.186 56.5293L314.126 56.5394Z" fill="#00B0E3"/>
<path d="M308.356 56.5484L284.16 17.8671L285.985 14.294L312.403 56.5383L308.356 56.5484Z" fill="#00B0E3"/>
<path d="M301.415 56.5113L289.912 38.1886L278.498 56.6034L274.579 56.613L289.92 31.4656L305.473 56.5369L301.415 56.5113Z" fill="#00B0E3"/>
<path d="M282.512 56.6099L290.291 44.0023L298.114 56.5703L282.512 56.6099Z" fill="#00B0E3"/>
<path d="M286.219 26.2283L267.29 56.6166L271.448 56.6063L288.603 29.1554L286.219 26.2283Z" fill="#00B0E3"/>
<path d="M283.485 20.2278L260.685 56.6199L264.817 56.6097L285.618 23.5572L283.485 20.2278Z" fill="#00B0E3"/>
<path d="M281.576 7.52158L254.074 52.0614L256.02 55.3711L285.637 7.51148L281.576 7.52158Z" fill="#EB1947"/>
<path d="M275.806 7.52389L251.508 46.3257L253.324 49.8949L279.848 7.51384L275.806 7.52389Z" fill="#EB1947"/>
<path d="M268.851 7.56817L257.303 25.9479L245.93 7.58407L242.01 7.59374L257.295 32.6659L272.904 7.51755L268.851 7.56817Z" fill="#EB1947"/>
<path d="M249.933 7.55932L257.679 20.1324L265.534 7.51972L249.933 7.55932Z" fill="#EB1947"/>
<path d="M253.579 37.8782L234.726 7.57834L238.889 7.56805L255.971 34.9393L253.579 37.8782Z" fill="#EB1947"/>
<path d="M250.745 43.8679L228.035 7.58864L232.167 7.57837L252.886 40.533L250.745 43.8679Z" fill="#EB1947"/>
<path d="M248.817 55.9488L221.43 11.5456L223.379 8.2262L252.877 55.9387L248.817 55.9488Z" fill="white"/>
<path d="M242.887 55.3321L218.691 16.6559L220.515 13.0776L246.934 55.322L242.887 55.3321Z" fill="white"/>
<path d="M236.11 55.9159L224.607 37.5981L213.189 56.0131L209.269 56.0227L224.616 30.8751L240.168 55.9465L236.11 55.9159Z" fill="white"/>
<path d="M217.202 56.0191L224.981 43.4067L232.803 55.9795L217.202 56.0191Z" fill="white"/>
<path d="M220.914 25.638L201.981 56.0262L206.143 56.0159L223.293 28.56L220.914 25.638Z" fill="white"/>
<path d="M218.175 19.6369L195.375 56.0292L199.511 56.0189L220.313 22.9611L218.175 19.6369Z" fill="white"/>
</svg>
