<svg width="1426" height="63" viewBox="0 0 1426 63" fill="none" xmlns="http://www.w3.org/2000/svg">
<mask id="path-1-inside-1" fill="white">
<path d="M78.5 60L44.292 0.749994H112.708L78.5 60Z"/>
<path d="M78.4086 16.5873L69.4606 0.7966H87.3565L78.4086 16.5873Z"/>
<path d="M253.5 60L219.292 0.749994H287.708L253.5 60Z"/>
<path d="M253.409 16.5873L244.461 0.7966H262.356L253.409 16.5873Z"/>
<path d="M428.5 60L394.292 0.749994H462.708L428.5 60Z"/>
<path d="M428.409 16.5873L419.461 0.7966H437.356L428.409 16.5873Z"/>
<path d="M603.5 60L569.292 0.749994H637.708L603.5 60Z"/>
<path d="M603.409 16.5873L594.461 0.7966H612.357L603.409 16.5873Z"/>
<path d="M778.5 60L744.292 0.749994H812.708L778.5 60Z"/>
<path d="M778.409 16.5873L769.461 0.7966H787.357L778.409 16.5873Z"/>
<path d="M953.5 60L919.292 0.749994H987.708L953.5 60Z"/>
<path d="M953.409 16.5873L944.461 0.7966H962.357L953.409 16.5873Z"/>
<path d="M1128.5 60L1094.29 0.749994H1162.71L1128.5 60Z"/>
<path d="M1128.41 16.5873L1119.46 0.7966H1137.36L1128.41 16.5873Z"/>
<path d="M1303.5 60L1269.29 0.749994H1337.71L1303.5 60Z"/>
<path d="M1303.41 16.5873L1294.46 0.7966H1312.36L1303.41 16.5873Z"/>
<path d="M166.5 61L132.292 1.74999H200.708L166.5 61Z"/>
<path d="M166.409 17.5873L157.461 1.7966H175.356L166.409 17.5873Z"/>
<path d="M341.5 61L307.292 1.74999H375.708L341.5 61Z"/>
<path d="M341.409 17.5873L332.461 1.7966H350.356L341.409 17.5873Z"/>
<path d="M516.5 61L482.292 1.74999H550.708L516.5 61Z"/>
<path d="M516.409 17.5873L507.461 1.7966H525.357L516.409 17.5873Z"/>
<path d="M691.5 61L657.292 1.74999H725.708L691.5 61Z"/>
<path d="M691.409 17.5873L682.461 1.7966H700.357L691.409 17.5873Z"/>
<path d="M866.5 61L832.292 1.74999H900.708L866.5 61Z"/>
<path d="M866.409 17.5873L857.461 1.7966H875.357L866.409 17.5873Z"/>
<path d="M1041.5 61L1007.29 1.74999H1075.71L1041.5 61Z"/>
<path d="M1041.41 17.5873L1032.46 1.7966H1050.36L1041.41 17.5873Z"/>
<path d="M1216.5 61L1182.29 1.74999H1250.71L1216.5 61Z"/>
<path d="M1216.41 17.5873L1207.46 1.7966H1225.36L1216.41 17.5873Z"/>
<path d="M1391.5 61L1357.29 1.74999H1425.71L1391.5 61Z"/>
<path d="M1391.41 17.5873L1382.46 1.7966H1400.36L1391.41 17.5873Z"/>
<path d="M122 1.00004L157.507 62.5H86.493L122 1.00004Z"/>
<path d="M122.095 46.0613L131.383 62.4517H112.807L122.095 46.0613Z"/>
<path d="M297 1.00004L332.507 62.5H261.493L297 1.00004Z"/>
<path d="M297.095 46.0613L306.383 62.4517H287.807L297.095 46.0613Z"/>
<path d="M472 1.00004L507.507 62.5H436.493L472 1.00004Z"/>
<path d="M472.095 46.0613L481.383 62.4517H462.807L472.095 46.0613Z"/>
<path d="M647 1.00004L682.507 62.5H611.493L647 1.00004Z"/>
<path d="M647.095 46.0613L656.383 62.4517H637.807L647.095 46.0613Z"/>
<path d="M822 1.00004L857.507 62.5H786.493L822 1.00004Z"/>
<path d="M822.095 46.0613L831.383 62.4517H812.807L822.095 46.0613Z"/>
<path d="M997 1.00004L1032.51 62.5H961.493L997 1.00004Z"/>
<path d="M997.095 46.0613L1006.38 62.4517H987.807L997.095 46.0613Z"/>
<path d="M1172 1.00004L1207.51 62.5H1136.49L1172 1.00004Z"/>
<path d="M1172.09 46.0613L1181.38 62.4517H1162.81L1172.09 46.0613Z"/>
<path d="M1347 1.00004L1382.51 62.5H1311.49L1347 1.00004Z"/>
<path d="M1347.09 46.0613L1356.38 62.4517H1337.81L1347.09 46.0613Z"/>
<path d="M36 1.00004L71.5071 62.5H0.492981L36 1.00004Z"/>
<path d="M36.095 46.0613L45.3827 62.4517H26.8072L36.095 46.0613Z"/>
<path d="M211 1.00004L246.507 62.5H175.493L211 1.00004Z"/>
<path d="M211.095 46.0613L220.383 62.4517H201.807L211.095 46.0613Z"/>
<path d="M386 1.00004L421.507 62.5H350.493L386 1.00004Z"/>
<path d="M386.095 46.0613L395.383 62.4517H376.807L386.095 46.0613Z"/>
<path d="M561 1.00004L596.507 62.5H525.493L561 1.00004Z"/>
<path d="M561.095 46.0613L570.383 62.4517H551.807L561.095 46.0613Z"/>
<path d="M736 1.00004L771.507 62.5H700.493L736 1.00004Z"/>
<path d="M736.095 46.0613L745.383 62.4517H726.807L736.095 46.0613Z"/>
<path d="M911 1.00004L946.507 62.5H875.493L911 1.00004Z"/>
<path d="M911.095 46.0613L920.383 62.4517H901.807L911.095 46.0613Z"/>
<path d="M1086 1.00004L1121.51 62.5H1050.49L1086 1.00004Z"/>
<path d="M1086.09 46.0613L1095.38 62.4517H1076.81L1086.09 46.0613Z"/>
<path d="M1261 1.00004L1296.51 62.5H1225.49L1261 1.00004Z"/>
<path d="M1261.09 46.0613L1270.38 62.4517H1251.81L1261.09 46.0613Z"/>
</mask>
<path d="M107.39 0.943338L76.4844 55.908L77.3561 56.3981L108.261 1.43345L107.39 0.943338ZM111.961 0.943342L78.6789 60.007L79.5501 60.498L112.832 1.43426L111.961 0.943342ZM76.4847 55.8941L78.6791 59.9931L79.5607 59.5211L77.3663 55.4221L76.4847 55.8941ZM111.965 0.936342H107.394V1.93634H111.965V0.936342ZM104.812 0.638456L75.0045 53.2413L75.8746 53.7343L105.682 1.13146L104.812 0.638456ZM100.258 0.648542L72.9563 48.8278L73.8264 49.3208L101.128 1.14155L100.258 0.648542ZM104.833 0.563683H100.262V1.56368H104.833V0.563683ZM75.0814 53.0864L72.9648 48.8539L72.0704 49.3012L74.187 53.5337L75.0814 53.0864ZM70.4413 45.8563L44.9309 0.837294L44.0609 1.3303L69.5713 46.3493L70.4413 45.8563ZM49.4236 0.750009H44.8519V1.75001H49.4236V0.750009ZM72.81 41.7372L49.5855 0.752143L48.7155 1.24515L71.94 42.2302L72.81 41.7372ZM72.4619 41.6413L70.3864 45.7916L71.2807 46.2389L73.3563 42.0886L72.4619 41.6413ZM74.3036 38.4508L52.9992 0.854302L52.1292 1.34731L73.4336 38.9438L74.3036 38.4508ZM74.2708 38.6832L76.958 34.9148L76.1438 34.3342L73.4566 38.1026L74.2708 38.6832ZM76.8345 34.9474L57.5417 0.900706L56.6717 1.39371L75.9645 35.4404L76.8345 34.9474ZM57.4699 0.936342H52.8982V1.93634H57.4699V0.936342ZM95.8386 1.03214L78.283 32.013L79.153 32.506L96.7086 1.52515L95.8386 1.03214ZM78.5041 31.6863L60.9485 0.705442L60.0785 1.19845L77.634 32.1793L78.5041 31.6863ZM95.8727 0.93635H91.3009V1.93635H95.8727V0.93635ZM91.2686 0.945513L78.3763 23.6971L79.2463 24.1901L92.1387 1.43852L91.2686 0.945513ZM65.5162 0.750027H60.9444V1.75003H65.5162V0.750027ZM78.5041 23.4882L65.6117 0.736618L64.7417 1.22963L77.634 23.9812L78.5041 23.4882ZM282.39 0.943338L251.484 55.908L252.356 56.3981L283.261 1.43345L282.39 0.943338ZM286.961 0.943342L253.679 60.007L254.55 60.498L287.832 1.43426L286.961 0.943342ZM251.485 55.8941L253.679 59.9931L254.561 59.5211L252.366 55.4221L251.485 55.8941ZM286.965 0.936342H282.394V1.93634H286.965V0.936342ZM279.812 0.638456L250.005 53.2413L250.875 53.7343L280.682 1.13146L279.812 0.638456ZM275.258 0.648542L247.956 48.8278L248.826 49.3208L276.128 1.14155L275.258 0.648542ZM279.833 0.563683H275.262V1.56368H279.833V0.563683ZM250.081 53.0864L247.965 48.8539L247.07 49.3012L249.187 53.5337L250.081 53.0864ZM245.441 45.8563L219.931 0.837294L219.061 1.3303L244.571 46.3493L245.441 45.8563ZM224.424 0.750009H219.852V1.75001H224.424V0.750009ZM247.81 41.7372L224.585 0.752143L223.715 1.24515L246.94 42.2302L247.81 41.7372ZM247.462 41.6413L245.386 45.7916L246.281 46.2389L248.356 42.0886L247.462 41.6413ZM249.304 38.4508L227.999 0.854302L227.129 1.34731L248.434 38.9438L249.304 38.4508ZM249.271 38.6832L251.958 34.9148L251.144 34.3342L248.457 38.1026L249.271 38.6832ZM251.835 34.9474L232.542 0.900707L231.672 1.39371L250.964 35.4404L251.835 34.9474ZM232.47 0.936342H227.898V1.93634H232.47V0.936342ZM270.839 1.03214L253.283 32.013L254.153 32.506L271.709 1.52515L270.839 1.03214ZM253.504 31.6863L235.949 0.705442L235.078 1.19845L252.634 32.1793L253.504 31.6863ZM270.873 0.93635H266.301V1.93635H270.873V0.93635ZM266.269 0.945512L253.376 23.6971L254.246 24.1901L267.139 1.43852L266.269 0.945512ZM240.516 0.750027H235.944V1.75003H240.516V0.750027ZM253.504 23.4882L240.612 0.736618L239.742 1.22963L252.634 23.9812L253.504 23.4882ZM457.39 0.943338L426.484 55.908L427.356 56.3981L458.261 1.43345L457.39 0.943338ZM461.961 0.943342L428.679 60.007L429.55 60.498L462.832 1.43426L461.961 0.943342ZM426.485 55.8941L428.679 59.9931L429.561 59.5211L427.366 55.4221L426.485 55.8941ZM461.965 0.936342H457.394V1.93634H461.965V0.936342ZM454.812 0.638456L425.005 53.2413L425.875 53.7343L455.682 1.13146L454.812 0.638456ZM450.258 0.648542L422.956 48.8278L423.826 49.3208L451.128 1.14155L450.258 0.648542ZM454.833 0.563683H450.262V1.56368H454.833V0.563683ZM425.081 53.0864L422.965 48.8539L422.07 49.3012L424.187 53.5337L425.081 53.0864ZM420.441 45.8563L394.931 0.837295L394.061 1.3303L419.571 46.3493L420.441 45.8563ZM399.424 0.750009H394.852V1.75001H399.424V0.750009ZM422.81 41.7372L399.585 0.752143L398.715 1.24515L421.94 42.2302L422.81 41.7372ZM422.462 41.6413L420.386 45.7916L421.281 46.2389L423.356 42.0886L422.462 41.6413ZM424.304 38.4508L402.999 0.854302L402.129 1.34731L423.434 38.9438L424.304 38.4508ZM424.271 38.6832L426.958 34.9148L426.144 34.3342L423.457 38.1026L424.271 38.6832ZM426.835 34.9474L407.542 0.900707L406.672 1.39371L425.965 35.4404L426.835 34.9474ZM407.47 0.936342H402.898V1.93634H407.47V0.936342ZM445.839 1.03214L428.283 32.013L429.153 32.506L446.709 1.52515L445.839 1.03214ZM428.504 31.6863L410.948 0.705442L410.078 1.19845L427.634 32.1793L428.504 31.6863ZM445.873 0.93635H441.301V1.93635H445.873V0.93635ZM441.269 0.945512L428.376 23.6971L429.246 24.1901L442.139 1.43852L441.269 0.945512ZM415.516 0.750027H410.944V1.75003H415.516V0.750027ZM428.504 23.4882L415.612 0.736618L414.742 1.22963L427.634 23.9812L428.504 23.4882ZM632.389 0.943338L601.484 55.908L602.356 56.3981L633.261 1.43345L632.389 0.943338ZM636.961 0.943342L603.679 60.007L604.55 60.498L637.833 1.43426L636.961 0.943342ZM601.485 55.8941L603.679 59.9931L604.561 59.5211L602.366 55.4221L601.485 55.8941ZM636.965 0.936342H632.394V1.93634H636.965V0.936342ZM629.812 0.638456L600.005 53.2413L600.875 53.7343L630.682 1.13146L629.812 0.638456ZM625.258 0.648542L597.956 48.8278L598.826 49.3208L626.128 1.14155L625.258 0.648542ZM629.833 0.563683H625.262V1.56368H629.833V0.563683ZM600.081 53.0864L597.965 48.8539L597.07 49.3012L599.187 53.5337L600.081 53.0864ZM595.441 45.8563L569.931 0.837295L569.061 1.3303L594.571 46.3493L595.441 45.8563ZM574.424 0.750009H569.852V1.75001H574.424V0.750009ZM597.81 41.7372L574.585 0.752143L573.715 1.24515L596.94 42.2302L597.81 41.7372ZM597.462 41.6413L595.386 45.7916L596.281 46.2389L598.356 42.0886L597.462 41.6413ZM599.304 38.4508L577.999 0.854302L577.129 1.34731L598.434 38.9438L599.304 38.4508ZM599.271 38.6832L601.958 34.9148L601.144 34.3342L598.457 38.1026L599.271 38.6832ZM601.835 34.9473L582.542 0.900706L581.672 1.39371L600.965 35.4404L601.835 34.9473ZM582.47 0.936342H577.898V1.93634H582.47V0.936342ZM620.839 1.03214L603.283 32.013L604.153 32.506L621.709 1.52515L620.839 1.03214ZM603.504 31.6863L585.948 0.705442L585.078 1.19845L602.634 32.1793L603.504 31.6863ZM620.873 0.93635H616.301V1.93635H620.873V0.93635ZM616.269 0.945512L603.376 23.6971L604.246 24.1901L617.139 1.43852L616.269 0.945512ZM590.516 0.750027H585.944V1.75003H590.516V0.750027ZM603.504 23.4882L590.612 0.736618L589.742 1.22962L602.634 23.9812L603.504 23.4882ZM807.389 0.943338L776.484 55.908L777.356 56.3981L808.261 1.43345L807.389 0.943338ZM811.961 0.943342L778.679 60.007L779.55 60.498L812.833 1.43426L811.961 0.943342ZM776.485 55.8941L778.679 59.9931L779.561 59.5211L777.366 55.4221L776.485 55.8941ZM811.965 0.936342H807.394V1.93634H811.965V0.936342ZM804.812 0.638456L775.005 53.2413L775.875 53.7343L805.682 1.13146L804.812 0.638456ZM800.258 0.648542L772.956 48.8278L773.826 49.3208L801.128 1.14155L800.258 0.648542ZM804.833 0.563683H800.262V1.56368H804.833V0.563683ZM775.081 53.0864L772.965 48.8539L772.07 49.3012L774.187 53.5337L775.081 53.0864ZM770.441 45.8563L744.931 0.837295L744.061 1.3303L769.571 46.3493L770.441 45.8563ZM749.424 0.750009H744.852V1.75001H749.424V0.750009ZM772.81 41.7372L749.585 0.752143L748.715 1.24515L771.94 42.2302L772.81 41.7372ZM772.462 41.6413L770.386 45.7916L771.281 46.2389L773.356 42.0886L772.462 41.6413ZM774.304 38.4508L752.999 0.854302L752.129 1.34731L773.434 38.9438L774.304 38.4508ZM774.271 38.6832L776.958 34.9148L776.144 34.3342L773.457 38.1026L774.271 38.6832ZM776.835 34.9473L757.542 0.900706L756.672 1.39371L775.965 35.4404L776.835 34.9473ZM757.47 0.936342H752.898V1.93634H757.47V0.936342ZM795.839 1.03214L778.283 32.013L779.153 32.506L796.709 1.52515L795.839 1.03214ZM778.504 31.6863L760.948 0.705442L760.078 1.19845L777.634 32.1793L778.504 31.6863ZM795.873 0.93635H791.301V1.93635H795.873V0.93635ZM791.269 0.945512L778.376 23.6971L779.246 24.1901L792.139 1.43852L791.269 0.945512ZM765.516 0.750027H760.944V1.75003H765.516V0.750027ZM778.504 23.4882L765.612 0.736618L764.742 1.22962L777.634 23.9812L778.504 23.4882ZM982.389 0.943338L951.484 55.908L952.356 56.3981L983.261 1.43345L982.389 0.943338ZM986.961 0.943342L953.679 60.007L954.55 60.498L987.833 1.43426L986.961 0.943342ZM951.485 55.8941L953.679 59.9931L954.561 59.5211L952.366 55.4221L951.485 55.8941ZM986.965 0.936342H982.394V1.93634H986.965V0.936342ZM979.812 0.638456L950.005 53.2413L950.875 53.7343L980.682 1.13146L979.812 0.638456ZM975.258 0.648542L947.956 48.8278L948.826 49.3208L976.128 1.14155L975.258 0.648542ZM979.833 0.563683H975.262V1.56368H979.833V0.563683ZM950.081 53.0864L947.965 48.8539L947.07 49.3012L949.187 53.5337L950.081 53.0864ZM945.441 45.8563L919.931 0.837295L919.061 1.3303L944.571 46.3493L945.441 45.8563ZM924.424 0.750009H919.852V1.75001H924.424V0.750009ZM947.81 41.7372L924.585 0.752143L923.715 1.24515L946.94 42.2302L947.81 41.7372ZM947.462 41.6413L945.386 45.7916L946.281 46.2389L948.356 42.0886L947.462 41.6413ZM949.304 38.4508L927.999 0.854302L927.129 1.34731L948.434 38.9438L949.304 38.4508ZM949.271 38.6832L951.958 34.9148L951.144 34.3342L948.457 38.1026L949.271 38.6832ZM951.835 34.9473L932.542 0.900706L931.672 1.39371L950.965 35.4404L951.835 34.9473ZM932.47 0.936342H927.898V1.93634H932.47V0.936342ZM970.839 1.03214L953.283 32.013L954.153 32.506L971.709 1.52515L970.839 1.03214ZM953.504 31.6863L935.948 0.705442L935.078 1.19845L952.634 32.1793L953.504 31.6863ZM970.873 0.93635H966.301V1.93635H970.873V0.93635ZM966.269 0.945512L953.376 23.6971L954.246 24.1901L967.139 1.43852L966.269 0.945512ZM940.516 0.750027H935.944V1.75003H940.516V0.750027ZM953.504 23.4882L940.612 0.736618L939.742 1.22962L952.634 23.9812L953.504 23.4882ZM1157.39 0.943337L1126.48 55.908L1127.36 56.3981L1158.26 1.43345L1157.39 0.943337ZM1161.96 0.943341L1128.68 60.007L1129.55 60.498L1162.83 1.43427L1161.96 0.943341ZM1126.48 55.8941L1128.68 59.9931L1129.56 59.5211L1127.37 55.4221L1126.48 55.8941ZM1161.97 0.936342H1157.39V1.93634H1161.97V0.936342ZM1154.81 0.638456L1125 53.2413L1125.87 53.7343L1155.68 1.13146L1154.81 0.638456ZM1150.26 0.648541L1122.96 48.8278L1123.83 49.3208L1151.13 1.14155L1150.26 0.648541ZM1154.83 0.563683H1150.26V1.56368H1154.83V0.563683ZM1125.08 53.0864L1122.96 48.8539L1122.07 49.3012L1124.19 53.5337L1125.08 53.0864ZM1120.44 45.8563L1094.93 0.837295L1094.06 1.3303L1119.57 46.3493L1120.44 45.8563ZM1099.42 0.750009H1094.85V1.75001H1099.42V0.750009ZM1122.81 41.7372L1099.59 0.752143L1098.72 1.24515L1121.94 42.2302L1122.81 41.7372ZM1122.46 41.6413L1120.39 45.7916L1121.28 46.2389L1123.36 42.0886L1122.46 41.6413ZM1124.3 38.4508L1103 0.854302L1102.13 1.34731L1123.43 38.9438L1124.3 38.4508ZM1124.27 38.6832L1126.96 34.9148L1126.14 34.3342L1123.46 38.1026L1124.27 38.6832ZM1126.83 34.9473L1107.54 0.900706L1106.67 1.39371L1125.96 35.4404L1126.83 34.9473ZM1107.47 0.936342H1102.9V1.93634H1107.47V0.936342ZM1145.84 1.03214L1128.28 32.013L1129.15 32.506L1146.71 1.52515L1145.84 1.03214ZM1128.5 31.6863L1110.95 0.705442L1110.08 1.19845L1127.63 32.1793L1128.5 31.6863ZM1145.87 0.93635H1141.3V1.93635H1145.87V0.93635ZM1141.27 0.945513L1128.38 23.6971L1129.25 24.1901L1142.14 1.43852L1141.27 0.945513ZM1115.52 0.750027H1110.94V1.75003H1115.52V0.750027ZM1128.5 23.4882L1115.61 0.736618L1114.74 1.22962L1127.63 23.9812L1128.5 23.4882ZM1332.39 0.943337L1301.48 55.908L1302.36 56.3981L1333.26 1.43345L1332.39 0.943337ZM1336.96 0.943341L1303.68 60.007L1304.55 60.498L1337.83 1.43427L1336.96 0.943341ZM1301.48 55.8941L1303.68 59.9931L1304.56 59.5211L1302.37 55.4221L1301.48 55.8941ZM1336.97 0.936342H1332.39V1.93634H1336.97V0.936342ZM1329.81 0.638456L1300 53.2413L1300.87 53.7343L1330.68 1.13146L1329.81 0.638456ZM1325.26 0.648541L1297.96 48.8278L1298.83 49.3208L1326.13 1.14155L1325.26 0.648541ZM1329.83 0.563683H1325.26V1.56368H1329.83V0.563683ZM1300.08 53.0864L1297.96 48.8539L1297.07 49.3012L1299.19 53.5337L1300.08 53.0864ZM1295.44 45.8563L1269.93 0.837295L1269.06 1.3303L1294.57 46.3493L1295.44 45.8563ZM1274.42 0.750009H1269.85V1.75001H1274.42V0.750009ZM1297.81 41.7372L1274.59 0.752143L1273.72 1.24515L1296.94 42.2302L1297.81 41.7372ZM1297.46 41.6413L1295.39 45.7916L1296.28 46.2389L1298.36 42.0886L1297.46 41.6413ZM1299.3 38.4508L1278 0.854302L1277.13 1.34731L1298.43 38.9438L1299.3 38.4508ZM1299.27 38.6832L1301.96 34.9148L1301.14 34.3342L1298.46 38.1026L1299.27 38.6832ZM1301.83 34.9473L1282.54 0.900706L1281.67 1.39371L1300.96 35.4404L1301.83 34.9473ZM1282.47 0.936342H1277.9V1.93634H1282.47V0.936342ZM1320.84 1.03214L1303.28 32.013L1304.15 32.506L1321.71 1.52515L1320.84 1.03214ZM1303.5 31.6863L1285.95 0.705442L1285.08 1.19845L1302.63 32.1793L1303.5 31.6863ZM1320.87 0.93635H1316.3V1.93635H1320.87V0.93635ZM1316.27 0.945513L1303.38 23.6971L1304.25 24.1901L1317.14 1.43852L1316.27 0.945513ZM1290.52 0.750027H1285.94V1.75003H1290.52V0.750027ZM1303.5 23.4882L1290.61 0.736618L1289.74 1.22962L1302.63 23.9812L1303.5 23.4882ZM195.389 1.94334L164.484 56.908L165.356 57.3981L196.261 2.43345L195.389 1.94334ZM199.961 1.94334L166.679 61.007L167.55 61.498L200.832 2.43426L199.961 1.94334ZM164.485 56.8941L166.679 60.9931L167.561 60.5211L165.366 56.4221L164.485 56.8941ZM199.965 1.93634H195.394V2.93634H199.965V1.93634ZM192.812 1.63846L163.005 54.2413L163.875 54.7343L193.682 2.13146L192.812 1.63846ZM188.258 1.64854L160.956 49.8278L161.826 50.3208L189.128 2.14155L188.258 1.64854ZM192.833 1.56368H188.262V2.56368H192.833V1.56368ZM163.081 54.0864L160.965 49.8539L160.07 50.3012L162.187 54.5337L163.081 54.0864ZM158.441 46.8563L132.931 1.83729L132.061 2.3303L157.571 47.3493L158.441 46.8563ZM137.424 1.75001H132.852V2.75001H137.424V1.75001ZM160.81 42.7372L137.585 1.75214L136.715 2.24515L159.94 43.2302L160.81 42.7372ZM160.462 42.6413L158.386 46.7916L159.281 47.2389L161.356 43.0886L160.462 42.6413ZM162.304 39.4508L140.999 1.8543L140.129 2.34731L161.434 39.9438L162.304 39.4508ZM162.271 39.6832L164.958 35.9148L164.144 35.3342L161.457 39.1026L162.271 39.6832ZM164.835 35.9474L145.542 1.90071L144.672 2.39371L163.964 36.4404L164.835 35.9474ZM145.47 1.93634H140.898V2.93634H145.47V1.93634ZM183.839 2.03214L166.283 33.013L167.153 33.506L184.709 2.52515L183.839 2.03214ZM166.504 32.6863L148.949 1.70544L148.078 2.19845L165.634 33.1793L166.504 32.6863ZM183.873 1.93635H179.301V2.93635H183.873V1.93635ZM179.269 1.94551L166.376 24.6971L167.246 25.1901L180.139 2.43852L179.269 1.94551ZM153.516 1.75003H148.944V2.75003H153.516V1.75003ZM166.504 24.4882L153.612 1.73662L152.742 2.22963L165.634 24.9812L166.504 24.4882ZM370.39 1.94334L339.484 56.908L340.356 57.3981L371.261 2.43345L370.39 1.94334ZM374.961 1.94334L341.679 61.007L342.55 61.498L375.832 2.43426L374.961 1.94334ZM339.485 56.8941L341.679 60.9931L342.561 60.5211L340.366 56.4221L339.485 56.8941ZM374.965 1.93634H370.394V2.93634H374.965V1.93634ZM367.812 1.63846L338.005 54.2413L338.875 54.7343L368.682 2.13146L367.812 1.63846ZM363.258 1.64854L335.956 49.8278L336.826 50.3208L364.128 2.14155L363.258 1.64854ZM367.833 1.56368H363.262V2.56368H367.833V1.56368ZM338.081 54.0864L335.965 49.8539L335.07 50.3012L337.187 54.5337L338.081 54.0864ZM333.441 46.8563L307.931 1.83729L307.061 2.3303L332.571 47.3493L333.441 46.8563ZM312.424 1.75001H307.852V2.75001H312.424V1.75001ZM335.81 42.7372L312.585 1.75214L311.715 2.24515L334.94 43.2302L335.81 42.7372ZM335.462 42.6413L333.386 46.7916L334.281 47.2389L336.356 43.0886L335.462 42.6413ZM337.304 39.4508L315.999 1.8543L315.129 2.34731L336.434 39.9438L337.304 39.4508ZM337.271 39.6832L339.958 35.9148L339.144 35.3342L336.457 39.1026L337.271 39.6832ZM339.835 35.9474L320.542 1.90071L319.672 2.39371L338.965 36.4404L339.835 35.9474ZM320.47 1.93634H315.898V2.93634H320.47V1.93634ZM358.839 2.03214L341.283 33.013L342.153 33.506L359.709 2.52515L358.839 2.03214ZM341.504 32.6863L323.948 1.70544L323.078 2.19845L340.634 33.1793L341.504 32.6863ZM358.873 1.93635H354.301V2.93635H358.873V1.93635ZM354.269 1.94551L341.376 24.6971L342.246 25.1901L355.139 2.43852L354.269 1.94551ZM328.516 1.75003H323.944V2.75003H328.516V1.75003ZM341.504 24.4882L328.612 1.73662L327.742 2.22963L340.634 24.9812L341.504 24.4882ZM545.389 1.94334L514.484 56.908L515.356 57.3981L546.261 2.43345L545.389 1.94334ZM549.961 1.94334L516.679 61.007L517.55 61.498L550.833 2.43426L549.961 1.94334ZM514.485 56.8941L516.679 60.9931L517.561 60.5211L515.366 56.4221L514.485 56.8941ZM549.965 1.93634H545.394V2.93634H549.965V1.93634ZM542.812 1.63846L513.005 54.2413L513.875 54.7343L543.682 2.13146L542.812 1.63846ZM538.258 1.64854L510.956 49.8278L511.826 50.3208L539.128 2.14155L538.258 1.64854ZM542.833 1.56368H538.262V2.56368H542.833V1.56368ZM513.081 54.0864L510.965 49.8539L510.07 50.3012L512.187 54.5337L513.081 54.0864ZM508.441 46.8563L482.931 1.83729L482.061 2.3303L507.571 47.3493L508.441 46.8563ZM487.424 1.75001H482.852V2.75001H487.424V1.75001ZM510.81 42.7372L487.585 1.75214L486.715 2.24515L509.94 43.2302L510.81 42.7372ZM510.462 42.6413L508.386 46.7916L509.281 47.2389L511.356 43.0886L510.462 42.6413ZM512.304 39.4508L490.999 1.8543L490.129 2.34731L511.434 39.9438L512.304 39.4508ZM512.271 39.6832L514.958 35.9148L514.144 35.3342L511.457 39.1026L512.271 39.6832ZM514.835 35.9473L495.542 1.90071L494.672 2.39371L513.965 36.4404L514.835 35.9473ZM495.47 1.93634H490.898V2.93634H495.47V1.93634ZM533.839 2.03214L516.283 33.013L517.153 33.506L534.709 2.52515L533.839 2.03214ZM516.504 32.6863L498.948 1.70544L498.078 2.19845L515.634 33.1793L516.504 32.6863ZM533.873 1.93635H529.301V2.93635H533.873V1.93635ZM529.269 1.94551L516.376 24.6971L517.246 25.1901L530.139 2.43852L529.269 1.94551ZM503.516 1.75003H498.944V2.75003H503.516V1.75003ZM516.504 24.4882L503.612 1.73662L502.742 2.22963L515.634 24.9812L516.504 24.4882ZM720.389 1.94334L689.484 56.908L690.356 57.3981L721.261 2.43345L720.389 1.94334ZM724.961 1.94334L691.679 61.007L692.55 61.498L725.833 2.43426L724.961 1.94334ZM689.485 56.8941L691.679 60.9931L692.561 60.5211L690.366 56.4221L689.485 56.8941ZM724.965 1.93634H720.394V2.93634H724.965V1.93634ZM717.812 1.63846L688.005 54.2413L688.875 54.7343L718.682 2.13146L717.812 1.63846ZM713.258 1.64854L685.956 49.8278L686.826 50.3208L714.128 2.14155L713.258 1.64854ZM717.833 1.56368H713.262V2.56368H717.833V1.56368ZM688.081 54.0864L685.965 49.8539L685.07 50.3012L687.187 54.5337L688.081 54.0864ZM683.441 46.8563L657.931 1.83729L657.061 2.3303L682.571 47.3493L683.441 46.8563ZM662.424 1.75001H657.852V2.75001H662.424V1.75001ZM685.81 42.7372L662.585 1.75214L661.715 2.24515L684.94 43.2302L685.81 42.7372ZM685.462 42.6413L683.386 46.7916L684.281 47.2389L686.356 43.0886L685.462 42.6413ZM687.304 39.4508L665.999 1.8543L665.129 2.34731L686.434 39.9438L687.304 39.4508ZM687.271 39.6832L689.958 35.9148L689.144 35.3342L686.457 39.1026L687.271 39.6832ZM689.835 35.9473L670.542 1.90071L669.672 2.39371L688.965 36.4404L689.835 35.9473ZM670.47 1.93634H665.898V2.93634H670.47V1.93634ZM708.839 2.03214L691.283 33.013L692.153 33.506L709.709 2.52515L708.839 2.03214ZM691.504 32.6863L673.948 1.70544L673.078 2.19845L690.634 33.1793L691.504 32.6863ZM708.873 1.93635H704.301V2.93635H708.873V1.93635ZM704.269 1.94551L691.376 24.6971L692.246 25.1901L705.139 2.43852L704.269 1.94551ZM678.516 1.75003H673.944V2.75003H678.516V1.75003ZM691.504 24.4882L678.612 1.73662L677.742 2.22962L690.634 24.9812L691.504 24.4882ZM895.389 1.94334L864.484 56.908L865.356 57.3981L896.261 2.43345L895.389 1.94334ZM899.961 1.94334L866.679 61.007L867.55 61.498L900.833 2.43426L899.961 1.94334ZM864.485 56.8941L866.679 60.9931L867.561 60.5211L865.366 56.4221L864.485 56.8941ZM899.965 1.93634H895.394V2.93634H899.965V1.93634ZM892.812 1.63846L863.005 54.2413L863.875 54.7343L893.682 2.13146L892.812 1.63846ZM888.258 1.64854L860.956 49.8278L861.826 50.3208L889.128 2.14155L888.258 1.64854ZM892.833 1.56368H888.262V2.56368H892.833V1.56368ZM863.081 54.0864L860.965 49.8539L860.07 50.3012L862.187 54.5337L863.081 54.0864ZM858.441 46.8563L832.931 1.83729L832.061 2.3303L857.571 47.3493L858.441 46.8563ZM837.424 1.75001H832.852V2.75001H837.424V1.75001ZM860.81 42.7372L837.585 1.75214L836.715 2.24515L859.94 43.2302L860.81 42.7372ZM860.462 42.6413L858.386 46.7916L859.281 47.2389L861.356 43.0886L860.462 42.6413ZM862.304 39.4508L840.999 1.8543L840.129 2.34731L861.434 39.9438L862.304 39.4508ZM862.271 39.6832L864.958 35.9148L864.144 35.3342L861.457 39.1026L862.271 39.6832ZM864.835 35.9473L845.542 1.90071L844.672 2.39371L863.965 36.4404L864.835 35.9473ZM845.47 1.93634H840.898V2.93634H845.47V1.93634ZM883.839 2.03214L866.283 33.013L867.153 33.506L884.709 2.52515L883.839 2.03214ZM866.504 32.6863L848.948 1.70544L848.078 2.19845L865.634 33.1793L866.504 32.6863ZM883.873 1.93635H879.301V2.93635H883.873V1.93635ZM879.269 1.94551L866.376 24.6971L867.246 25.1901L880.139 2.43852L879.269 1.94551ZM853.516 1.75003H848.944V2.75003H853.516V1.75003ZM866.504 24.4882L853.612 1.73662L852.742 2.22962L865.634 24.9812L866.504 24.4882ZM1070.39 1.94334L1039.48 56.908L1040.36 57.3981L1071.26 2.43345L1070.39 1.94334ZM1074.96 1.94334L1041.68 61.007L1042.55 61.498L1075.83 2.43427L1074.96 1.94334ZM1039.48 56.8941L1041.68 60.9931L1042.56 60.5211L1040.37 56.4221L1039.48 56.8941ZM1074.97 1.93634H1070.39V2.93634H1074.97V1.93634ZM1067.81 1.63846L1038 54.2413L1038.87 54.7343L1068.68 2.13146L1067.81 1.63846ZM1063.26 1.64854L1035.96 49.8278L1036.83 50.3208L1064.13 2.14155L1063.26 1.64854ZM1067.83 1.56368H1063.26V2.56368H1067.83V1.56368ZM1038.08 54.0864L1035.96 49.8539L1035.07 50.3012L1037.19 54.5337L1038.08 54.0864ZM1033.44 46.8563L1007.93 1.83729L1007.06 2.3303L1032.57 47.3493L1033.44 46.8563ZM1012.42 1.75001H1007.85V2.75001H1012.42V1.75001ZM1035.81 42.7372L1012.59 1.75214L1011.72 2.24515L1034.94 43.2302L1035.81 42.7372ZM1035.46 42.6413L1033.39 46.7916L1034.28 47.2389L1036.36 43.0886L1035.46 42.6413ZM1037.3 39.4508L1016 1.8543L1015.13 2.34731L1036.43 39.9438L1037.3 39.4508ZM1037.27 39.6832L1039.96 35.9148L1039.14 35.3342L1036.46 39.1026L1037.27 39.6832ZM1039.83 35.9474L1020.54 1.90071L1019.67 2.39371L1038.96 36.4404L1039.83 35.9474ZM1020.47 1.93634H1015.9V2.93634H1020.47V1.93634ZM1058.84 2.03214L1041.28 33.013L1042.15 33.506L1059.71 2.52515L1058.84 2.03214ZM1041.5 32.6863L1023.95 1.70544L1023.08 2.19845L1040.63 33.1793L1041.5 32.6863ZM1058.87 1.93635H1054.3V2.93635H1058.87V1.93635ZM1054.27 1.94551L1041.38 24.6971L1042.25 25.1901L1055.14 2.43852L1054.27 1.94551ZM1028.52 1.75003H1023.94V2.75003H1028.52V1.75003ZM1041.5 24.4882L1028.61 1.73662L1027.74 2.22962L1040.63 24.9812L1041.5 24.4882ZM1245.39 1.94334L1214.48 56.908L1215.36 57.3981L1246.26 2.43345L1245.39 1.94334ZM1249.96 1.94334L1216.68 61.007L1217.55 61.498L1250.83 2.43427L1249.96 1.94334ZM1214.48 56.8941L1216.68 60.9931L1217.56 60.5211L1215.37 56.4221L1214.48 56.8941ZM1249.97 1.93634H1245.39V2.93634H1249.97V1.93634ZM1242.81 1.63846L1213 54.2413L1213.87 54.7343L1243.68 2.13146L1242.81 1.63846ZM1238.26 1.64854L1210.96 49.8278L1211.83 50.3208L1239.13 2.14155L1238.26 1.64854ZM1242.83 1.56368H1238.26V2.56368H1242.83V1.56368ZM1213.08 54.0864L1210.96 49.8539L1210.07 50.3012L1212.19 54.5337L1213.08 54.0864ZM1208.44 46.8563L1182.93 1.83729L1182.06 2.3303L1207.57 47.3493L1208.44 46.8563ZM1187.42 1.75001H1182.85V2.75001H1187.42V1.75001ZM1210.81 42.7372L1187.59 1.75214L1186.72 2.24515L1209.94 43.2302L1210.81 42.7372ZM1210.46 42.6413L1208.39 46.7916L1209.28 47.2389L1211.36 43.0886L1210.46 42.6413ZM1212.3 39.4508L1191 1.8543L1190.13 2.34731L1211.43 39.9438L1212.3 39.4508ZM1212.27 39.6832L1214.96 35.9148L1214.14 35.3342L1211.46 39.1026L1212.27 39.6832ZM1214.83 35.9473L1195.54 1.90071L1194.67 2.39371L1213.96 36.4404L1214.83 35.9473ZM1195.47 1.93634H1190.9V2.93634H1195.47V1.93634ZM1233.84 2.03214L1216.28 33.013L1217.15 33.506L1234.71 2.52515L1233.84 2.03214ZM1216.5 32.6863L1198.95 1.70544L1198.08 2.19845L1215.63 33.1793L1216.5 32.6863ZM1233.87 1.93635H1229.3V2.93635H1233.87V1.93635ZM1229.27 1.94551L1216.38 24.6971L1217.25 25.1901L1230.14 2.43852L1229.27 1.94551ZM1203.52 1.75003H1198.94V2.75003H1203.52V1.75003ZM1216.5 24.4882L1203.61 1.73662L1202.74 2.22962L1215.63 24.9812L1216.5 24.4882ZM1420.39 1.94334L1389.48 56.908L1390.36 57.3981L1421.26 2.43345L1420.39 1.94334ZM1424.96 1.94334L1391.68 61.007L1392.55 61.498L1425.83 2.43427L1424.96 1.94334ZM1389.48 56.8941L1391.68 60.9931L1392.56 60.5211L1390.37 56.4221L1389.48 56.8941ZM1424.97 1.93634H1420.39V2.93634H1424.97V1.93634ZM1417.81 1.63846L1388 54.2413L1388.87 54.7343L1418.68 2.13146L1417.81 1.63846ZM1413.26 1.64854L1385.96 49.8278L1386.83 50.3208L1414.13 2.14155L1413.26 1.64854ZM1417.83 1.56368H1413.26V2.56368H1417.83V1.56368ZM1388.08 54.0864L1385.96 49.8539L1385.07 50.3012L1387.19 54.5337L1388.08 54.0864ZM1383.44 46.8563L1357.93 1.83729L1357.06 2.3303L1382.57 47.3493L1383.44 46.8563ZM1362.42 1.75001H1357.85V2.75001H1362.42V1.75001ZM1385.81 42.7372L1362.59 1.75214L1361.72 2.24515L1384.94 43.2302L1385.81 42.7372ZM1385.46 42.6413L1383.39 46.7916L1384.28 47.2389L1386.36 43.0886L1385.46 42.6413ZM1387.3 39.4508L1366 1.8543L1365.13 2.34731L1386.43 39.9438L1387.3 39.4508ZM1387.27 39.6832L1389.96 35.9148L1389.14 35.3342L1386.46 39.1026L1387.27 39.6832ZM1389.83 35.9473L1370.54 1.90071L1369.67 2.39371L1388.96 36.4404L1389.83 35.9473ZM1370.47 1.93634H1365.9V2.93634H1370.47V1.93634ZM1408.84 2.03214L1391.28 33.013L1392.15 33.506L1409.71 2.52515L1408.84 2.03214ZM1391.5 32.6863L1373.95 1.70544L1373.08 2.19845L1390.63 33.1793L1391.5 32.6863ZM1408.87 1.93635H1404.3V2.93635H1408.87V1.93635ZM1404.27 1.94551L1391.38 24.6971L1392.25 25.1901L1405.14 2.43852L1404.27 1.94551ZM1378.52 1.75003H1373.94V2.75003H1378.52V1.75003ZM1391.5 24.4882L1378.61 1.73662L1377.74 2.22962L1390.63 24.9812L1391.5 24.4882ZM92.0133 62.2996L124.092 5.24773L123.22 4.75762L91.1416 61.8095L92.0133 62.2996ZM87.2679 62.2996L121.814 0.99302L120.943 0.502097L86.3967 61.8087L87.2679 62.2996ZM124.092 5.26164L121.814 1.00693L120.932 1.4789L123.21 5.73362L124.092 5.26164ZM87.2639 62.3066H92.0093V61.3066H87.2639V62.3066ZM94.6883 62.6161L125.628 8.01562L124.758 7.52261L93.8182 62.1231L94.6883 62.6161ZM99.4161 62.6056L127.754 12.5968L126.884 12.1038L98.5461 62.1126L99.4161 62.6056ZM94.6667 62.6934H99.4121V61.6934H94.6667V62.6934ZM125.549 8.17637L127.746 12.5696L128.64 12.1223L126.443 7.7291L125.549 8.17637ZM130.365 15.6811L156.844 62.4097L157.714 61.9167L131.235 15.1881L130.365 15.6811ZM152.181 62.5H156.926V61.5H152.181V62.5ZM127.906 19.9566L152.013 62.4981L152.883 62.0051L128.776 19.4636L127.906 19.9566ZM128.267 20.0561L130.422 15.7482L129.527 15.3009L127.373 19.6089L128.267 20.0561ZM126.356 23.3678L148.469 62.392L149.339 61.899L127.226 22.8748L126.356 23.3678ZM126.39 23.1261L123.601 27.0376L124.415 27.6182L127.204 23.7066L126.39 23.1261ZM123.729 27.0043L143.754 62.3438L144.624 61.8508L124.599 26.5113L123.729 27.0043ZM143.829 62.3066H148.574V61.3066H143.829V62.3066ZM104.003 62.2075L122.225 30.0501L121.355 29.5571L103.133 61.7144L104.003 62.2075ZM121.996 30.3893L140.218 62.5466L141.088 62.0536L122.866 29.8962L121.996 30.3893ZM103.968 62.3066H108.713V61.3066H103.968V62.3066ZM108.746 62.2974L122.128 38.6819L121.258 38.1889L107.876 61.8044L108.746 62.2974ZM135.477 62.5H140.222V61.5H135.477V62.5ZM121.996 38.8987L135.378 62.5142L136.248 62.0212L122.866 38.4057L121.996 38.8987ZM267.013 62.2996L299.092 5.24773L298.22 4.75762L266.142 61.8095L267.013 62.2996ZM262.268 62.2996L296.814 0.99302L295.943 0.502097L261.397 61.8087L262.268 62.2996ZM299.092 5.26164L296.814 1.00693L295.932 1.4789L298.21 5.73362L299.092 5.26164ZM262.264 62.3066H267.009V61.3066H262.264V62.3066ZM269.688 62.6161L300.628 8.01562L299.758 7.52261L268.818 62.1231L269.688 62.6161ZM274.416 62.6056L302.754 12.5968L301.884 12.1038L273.546 62.1126L274.416 62.6056ZM269.667 62.6934H274.412V61.6934H269.667V62.6934ZM300.549 8.17638L302.746 12.5696L303.64 12.1223L301.443 7.7291L300.549 8.17638ZM305.365 15.6811L331.844 62.4097L332.714 61.9167L306.235 15.1881L305.365 15.6811ZM327.181 62.5H331.926V61.5H327.181V62.5ZM302.906 19.9566L327.013 62.4981L327.883 62.0051L303.776 19.4636L302.906 19.9566ZM303.267 20.0561L305.422 15.7482L304.527 15.3009L302.373 19.6089L303.267 20.0561ZM301.356 23.3678L323.469 62.392L324.339 61.899L302.226 22.8748L301.356 23.3678ZM301.39 23.1261L298.601 27.0376L299.415 27.6182L302.204 23.7066L301.39 23.1261ZM298.729 27.0043L318.754 62.3438L319.624 61.8508L299.599 26.5113L298.729 27.0043ZM318.829 62.3066H323.574V61.3066H318.829V62.3066ZM279.003 62.2075L297.225 30.0501L296.355 29.5571L278.133 61.7144L279.003 62.2075ZM296.996 30.3893L315.218 62.5466L316.088 62.0536L297.866 29.8962L296.996 30.3893ZM278.968 62.3066H283.713V61.3066H278.968V62.3066ZM283.746 62.2974L297.128 38.6819L296.258 38.1888L282.876 61.8044L283.746 62.2974ZM310.477 62.5H315.222V61.5H310.477V62.5ZM296.996 38.8987L310.378 62.5142L311.248 62.0212L297.866 38.4057L296.996 38.8987ZM442.013 62.2996L474.092 5.24773L473.22 4.75762L441.142 61.8095L442.013 62.2996ZM437.268 62.2996L471.814 0.99302L470.943 0.502097L436.397 61.8087L437.268 62.2996ZM474.092 5.26164L471.814 1.00693L470.932 1.4789L473.21 5.73362L474.092 5.26164ZM437.264 62.3066H442.009V61.3066H437.264V62.3066ZM444.688 62.6161L475.628 8.01562L474.758 7.52261L443.818 62.1231L444.688 62.6161ZM449.416 62.6056L477.754 12.5968L476.884 12.1038L448.546 62.1126L449.416 62.6056ZM444.667 62.6934H449.412V61.6934H444.667V62.6934ZM475.549 8.17638L477.746 12.5696L478.64 12.1223L476.443 7.7291L475.549 8.17638ZM480.365 15.6811L506.844 62.4097L507.714 61.9167L481.235 15.1881L480.365 15.6811ZM502.181 62.5H506.926V61.5H502.181V62.5ZM477.906 19.9566L502.013 62.4981L502.883 62.0051L478.776 19.4636L477.906 19.9566ZM478.267 20.0561L480.422 15.7482L479.527 15.3009L477.373 19.6089L478.267 20.0561ZM476.356 23.3678L498.469 62.392L499.339 61.899L477.226 22.8748L476.356 23.3678ZM476.39 23.1261L473.601 27.0376L474.415 27.6182L477.204 23.7066L476.39 23.1261ZM473.729 27.0043L493.754 62.3438L494.624 61.8508L474.599 26.5113L473.729 27.0043ZM493.829 62.3066H498.574V61.3066H493.829V62.3066ZM454.003 62.2075L472.225 30.0501L471.355 29.5571L453.133 61.7144L454.003 62.2075ZM471.996 30.3893L490.218 62.5466L491.088 62.0536L472.866 29.8962L471.996 30.3893ZM453.968 62.3066H458.713V61.3066H453.968V62.3066ZM458.746 62.2974L472.128 38.6819L471.258 38.1888L457.876 61.8044L458.746 62.2974ZM485.477 62.5H490.222V61.5H485.477V62.5ZM471.996 38.8987L485.378 62.5142L486.248 62.0212L472.866 38.4057L471.996 38.8987ZM617.013 62.2996L649.092 5.24773L648.22 4.75762L616.142 61.8095L617.013 62.2996ZM612.268 62.2996L646.814 0.99302L645.943 0.502097L611.397 61.8087L612.268 62.2996ZM649.092 5.26164L646.814 1.00693L645.932 1.4789L648.21 5.73362L649.092 5.26164ZM612.264 62.3066H617.009V61.3066H612.264V62.3066ZM619.688 62.6161L650.628 8.01562L649.758 7.52261L618.818 62.1231L619.688 62.6161ZM624.416 62.6056L652.754 12.5968L651.884 12.1038L623.546 62.1126L624.416 62.6056ZM619.667 62.6934H624.412V61.6934H619.667V62.6934ZM650.549 8.17638L652.746 12.5696L653.64 12.1223L651.443 7.7291L650.549 8.17638ZM655.365 15.6811L681.844 62.4097L682.714 61.9167L656.235 15.1881L655.365 15.6811ZM677.181 62.5H681.926V61.5H677.181V62.5ZM652.906 19.9566L677.013 62.4981L677.883 62.0051L653.776 19.4636L652.906 19.9566ZM653.267 20.0561L655.422 15.7482L654.527 15.3009L652.373 19.6089L653.267 20.0561ZM651.356 23.3678L673.469 62.392L674.339 61.899L652.226 22.8748L651.356 23.3678ZM651.39 23.1261L648.601 27.0376L649.415 27.6182L652.204 23.7066L651.39 23.1261ZM648.729 27.0043L668.754 62.3438L669.624 61.8508L649.599 26.5113L648.729 27.0043ZM668.829 62.3066H673.574V61.3066H668.829V62.3066ZM629.003 62.2075L647.225 30.0501L646.355 29.5571L628.133 61.7144L629.003 62.2075ZM646.996 30.3893L665.218 62.5466L666.088 62.0536L647.866 29.8962L646.996 30.3893ZM628.968 62.3066H633.713V61.3066H628.968V62.3066ZM633.746 62.2974L647.128 38.6819L646.258 38.1888L632.876 61.8044L633.746 62.2974ZM660.477 62.5H665.222V61.5H660.477V62.5ZM646.996 38.8987L660.378 62.5142L661.248 62.0212L647.866 38.4057L646.996 38.8987ZM792.013 62.2996L824.092 5.24773L823.22 4.75762L791.142 61.8095L792.013 62.2996ZM787.268 62.2996L821.814 0.99302L820.943 0.502097L786.397 61.8087L787.268 62.2996ZM824.092 5.26164L821.814 1.00693L820.932 1.4789L823.21 5.73362L824.092 5.26164ZM787.264 62.3066H792.009V61.3066H787.264V62.3066ZM794.688 62.6161L825.628 8.01562L824.758 7.52261L793.818 62.1231L794.688 62.6161ZM799.416 62.6056L827.754 12.5968L826.884 12.1038L798.546 62.1126L799.416 62.6056ZM794.667 62.6934H799.412V61.6934H794.667V62.6934ZM825.549 8.17638L827.746 12.5696L828.64 12.1223L826.443 7.7291L825.549 8.17638ZM830.365 15.6811L856.844 62.4097L857.714 61.9167L831.235 15.1881L830.365 15.6811ZM852.181 62.5H856.926V61.5H852.181V62.5ZM827.906 19.9566L852.013 62.4981L852.883 62.0051L828.776 19.4636L827.906 19.9566ZM828.267 20.0561L830.422 15.7482L829.527 15.3009L827.373 19.6089L828.267 20.0561ZM826.356 23.3678L848.469 62.392L849.339 61.899L827.226 22.8748L826.356 23.3678ZM826.39 23.1261L823.601 27.0376L824.415 27.6182L827.204 23.7066L826.39 23.1261ZM823.729 27.0043L843.754 62.3438L844.624 61.8508L824.599 26.5113L823.729 27.0043ZM843.829 62.3066H848.574V61.3066H843.829V62.3066ZM804.003 62.2075L822.225 30.0501L821.355 29.5571L803.133 61.7144L804.003 62.2075ZM821.996 30.3893L840.218 62.5466L841.088 62.0536L822.866 29.8962L821.996 30.3893ZM803.968 62.3066H808.713V61.3066H803.968V62.3066ZM808.746 62.2974L822.128 38.6819L821.258 38.1888L807.876 61.8044L808.746 62.2974ZM835.477 62.5H840.222V61.5H835.477V62.5ZM821.996 38.8987L835.378 62.5142L836.248 62.0212L822.866 38.4057L821.996 38.8987ZM967.013 62.2996L999.092 5.24773L998.22 4.75762L966.142 61.8095L967.013 62.2996ZM962.268 62.2996L996.814 0.99302L995.943 0.502097L961.397 61.8087L962.268 62.2996ZM999.092 5.26164L996.814 1.00693L995.932 1.4789L998.21 5.73362L999.092 5.26164ZM962.264 62.3066H967.009V61.3066H962.264V62.3066ZM969.688 62.6161L1000.63 8.01562L999.758 7.52261L968.818 62.1231L969.688 62.6161ZM974.416 62.6056L1002.75 12.5968L1001.88 12.1038L973.546 62.1126L974.416 62.6056ZM969.667 62.6934H974.412V61.6934H969.667V62.6934ZM1000.55 8.17638L1002.75 12.5696L1003.64 12.1223L1001.44 7.7291L1000.55 8.17638ZM1005.36 15.6811L1031.84 62.4097L1032.71 61.9167L1006.23 15.1881L1005.36 15.6811ZM1027.18 62.5H1031.93V61.5H1027.18V62.5ZM1002.91 19.9566L1027.01 62.4981L1027.88 62.0051L1003.78 19.4636L1002.91 19.9566ZM1003.27 20.0561L1005.42 15.7482L1004.53 15.3009L1002.37 19.6089L1003.27 20.0561ZM1001.36 23.3678L1023.47 62.392L1024.34 61.899L1002.23 22.8748L1001.36 23.3678ZM1001.39 23.1261L998.601 27.0376L999.415 27.6182L1002.2 23.7066L1001.39 23.1261ZM998.729 27.0043L1018.75 62.3438L1019.62 61.8508L999.599 26.5113L998.729 27.0043ZM1018.83 62.3066H1023.57V61.3066H1018.83V62.3066ZM979.003 62.2075L997.225 30.0501L996.355 29.5571L978.133 61.7144L979.003 62.2075ZM996.996 30.3893L1015.22 62.5466L1016.09 62.0536L997.866 29.8962L996.996 30.3893ZM978.968 62.3066H983.713V61.3066H978.968V62.3066ZM983.746 62.2974L997.128 38.6819L996.258 38.1888L982.876 61.8044L983.746 62.2974ZM1010.48 62.5H1015.22V61.5H1010.48V62.5ZM996.996 38.8987L1010.38 62.5142L1011.25 62.0212L997.866 38.4057L996.996 38.8987ZM1142.01 62.2996L1174.09 5.24773L1173.22 4.75762L1141.14 61.8095L1142.01 62.2996ZM1137.27 62.2996L1171.81 0.99302L1170.94 0.502097L1136.4 61.8087L1137.27 62.2996ZM1174.09 5.26164L1171.81 1.00692L1170.93 1.47891L1173.21 5.73362L1174.09 5.26164ZM1137.26 62.3066H1142.01V61.3066H1137.26V62.3066ZM1144.69 62.6161L1175.63 8.01562L1174.76 7.52261L1143.82 62.1231L1144.69 62.6161ZM1149.42 62.6056L1177.75 12.5968L1176.88 12.1038L1148.55 62.1126L1149.42 62.6056ZM1144.67 62.6934H1149.41V61.6934H1144.67V62.6934ZM1175.55 8.17638L1177.75 12.5696L1178.64 12.1223L1176.44 7.7291L1175.55 8.17638ZM1180.36 15.6811L1206.84 62.4097L1207.71 61.9167L1181.23 15.1881L1180.36 15.6811ZM1202.18 62.5H1206.93V61.5H1202.18V62.5ZM1177.91 19.9566L1202.01 62.4981L1202.88 62.0051L1178.78 19.4636L1177.91 19.9566ZM1178.27 20.0561L1180.42 15.7482L1179.53 15.3009L1177.37 19.6089L1178.27 20.0561ZM1176.36 23.3678L1198.47 62.392L1199.34 61.899L1177.23 22.8748L1176.36 23.3678ZM1176.39 23.1261L1173.6 27.0376L1174.41 27.6182L1177.2 23.7066L1176.39 23.1261ZM1173.73 27.0043L1193.75 62.3439L1194.62 61.8508L1174.6 26.5113L1173.73 27.0043ZM1193.83 62.3066H1198.57V61.3066H1193.83V62.3066ZM1154 62.2075L1172.23 30.0501L1171.36 29.5571L1153.13 61.7144L1154 62.2075ZM1172 30.3893L1190.22 62.5466L1191.09 62.0536L1172.87 29.8962L1172 30.3893ZM1153.97 62.3066H1158.71V61.3066H1153.97V62.3066ZM1158.75 62.2974L1172.13 38.6819L1171.26 38.1888L1157.88 61.8044L1158.75 62.2974ZM1185.48 62.5H1190.22V61.5H1185.48V62.5ZM1172 38.8987L1185.38 62.5142L1186.25 62.0212L1172.87 38.4057L1172 38.8987ZM1317.01 62.2996L1349.09 5.24773L1348.22 4.75762L1316.14 61.8095L1317.01 62.2996ZM1312.27 62.2996L1346.81 0.99302L1345.94 0.502097L1311.4 61.8087L1312.27 62.2996ZM1349.09 5.26164L1346.81 1.00692L1345.93 1.47891L1348.21 5.73362L1349.09 5.26164ZM1312.26 62.3066H1317.01V61.3066H1312.26V62.3066ZM1319.69 62.6161L1350.63 8.01562L1349.76 7.52261L1318.82 62.1231L1319.69 62.6161ZM1324.42 62.6056L1352.75 12.5968L1351.88 12.1038L1323.55 62.1126L1324.42 62.6056ZM1319.67 62.6934H1324.41V61.6934H1319.67V62.6934ZM1350.55 8.17638L1352.75 12.5696L1353.64 12.1223L1351.44 7.7291L1350.55 8.17638ZM1355.36 15.6811L1381.84 62.4097L1382.71 61.9167L1356.23 15.1881L1355.36 15.6811ZM1377.18 62.5H1381.93V61.5H1377.18V62.5ZM1352.91 19.9566L1377.01 62.4981L1377.88 62.0051L1353.78 19.4636L1352.91 19.9566ZM1353.27 20.0561L1355.42 15.7482L1354.53 15.3009L1352.37 19.6089L1353.27 20.0561ZM1351.36 23.3678L1373.47 62.392L1374.34 61.899L1352.23 22.8748L1351.36 23.3678ZM1351.39 23.1261L1348.6 27.0376L1349.41 27.6182L1352.2 23.7066L1351.39 23.1261ZM1348.73 27.0043L1368.75 62.3439L1369.62 61.8508L1349.6 26.5113L1348.73 27.0043ZM1368.83 62.3066H1373.57V61.3066H1368.83V62.3066ZM1329 62.2075L1347.23 30.0501L1346.36 29.5571L1328.13 61.7144L1329 62.2075ZM1347 30.3893L1365.22 62.5466L1366.09 62.0536L1347.87 29.8962L1347 30.3893ZM1328.97 62.3066H1333.71V61.3066H1328.97V62.3066ZM1333.75 62.2974L1347.13 38.6819L1346.26 38.1888L1332.88 61.8044L1333.75 62.2974ZM1360.48 62.5H1365.22V61.5H1360.48V62.5ZM1347 38.8987L1360.38 62.5142L1361.25 62.0212L1347.87 38.4057L1347 38.8987ZM6.0133 62.2996L38.092 5.24773L37.2203 4.75762L5.14164 61.8095L6.0133 62.2996ZM1.26791 62.2996L35.8142 0.99302L34.943 0.502097L0.396707 61.8087L1.26791 62.2996ZM38.0917 5.26164L35.814 1.00693L34.9324 1.4789L37.2101 5.73362L38.0917 5.26164ZM1.26389 62.3066H6.00926V61.3066H1.26389V62.3066ZM8.68827 62.6161L39.6281 8.01562L38.7581 7.52261L7.81824 62.1231L8.68827 62.6161ZM13.4161 62.6056L41.7541 12.5968L40.884 12.1038L12.5461 62.1126L13.4161 62.6056ZM8.66669 62.6934H13.4121V61.6934H8.66669V62.6934ZM39.5486 8.17638L41.7456 12.5696L42.64 12.1223L40.443 7.7291L39.5486 8.17638ZM44.3649 15.6811L70.8441 62.4097L71.7141 61.9167L45.2349 15.1881L44.3649 15.6811ZM66.1806 62.5H70.9259V61.5H66.1806V62.5ZM41.9062 19.9566L66.0127 62.4981L66.8827 62.0051L42.7762 19.4636L41.9062 19.9566ZM42.2673 20.0561L44.4217 15.7482L43.5273 15.3009L41.3729 19.6089L42.2673 20.0561ZM40.3559 23.3678L62.4693 62.392L63.3393 61.899L41.2259 22.8748L40.3559 23.3678ZM40.39 23.1261L37.6008 27.0376L38.415 27.6182L41.2042 23.7066L40.39 23.1261ZM37.7289 27.0043L57.7544 62.3438L58.6244 61.8508L38.5989 26.5113L37.7289 27.0043ZM57.8287 62.3066H62.5741V61.3066H57.8287V62.3066ZM18.0029 62.2075L36.2251 30.0501L35.3551 29.5571L17.1329 61.7144L18.0029 62.2075ZM35.996 30.3893L54.2182 62.5466L55.0882 62.0536L36.866 29.8962L35.996 30.3893ZM17.9677 62.3066H22.713V61.3066H17.9677V62.3066ZM22.7464 62.2974L36.1283 38.6819L35.2583 38.1889L21.8763 61.8044L22.7464 62.2974ZM49.4769 62.5H54.2223V61.5H49.4769V62.5ZM35.996 38.8987L49.3779 62.5142L50.248 62.0212L36.866 38.4057L35.996 38.8987ZM181.013 62.2996L213.092 5.24773L212.22 4.75762L180.142 61.8095L181.013 62.2996ZM176.268 62.2996L210.814 0.99302L209.943 0.502097L175.397 61.8087L176.268 62.2996ZM213.092 5.26164L210.814 1.00693L209.932 1.4789L212.21 5.73362L213.092 5.26164ZM176.264 62.3066H181.009V61.3066H176.264V62.3066ZM183.688 62.6161L214.628 8.01562L213.758 7.52261L182.818 62.1231L183.688 62.6161ZM188.416 62.6056L216.754 12.5968L215.884 12.1038L187.546 62.1126L188.416 62.6056ZM183.667 62.6934H188.412V61.6934H183.667V62.6934ZM214.549 8.17638L216.746 12.5696L217.64 12.1223L215.443 7.7291L214.549 8.17638ZM219.365 15.6811L245.844 62.4097L246.714 61.9167L220.235 15.1881L219.365 15.6811ZM241.181 62.5H245.926V61.5H241.181V62.5ZM216.906 19.9566L241.013 62.4981L241.883 62.0051L217.776 19.4636L216.906 19.9566ZM217.267 20.0561L219.422 15.7482L218.527 15.3009L216.373 19.6089L217.267 20.0561ZM215.356 23.3678L237.469 62.392L238.339 61.899L216.226 22.8748L215.356 23.3678ZM215.39 23.1261L212.601 27.0376L213.415 27.6182L216.204 23.7066L215.39 23.1261ZM212.729 27.0043L232.754 62.3438L233.624 61.8508L213.599 26.5113L212.729 27.0043ZM232.829 62.3066H237.574V61.3066H232.829V62.3066ZM193.003 62.2075L211.225 30.0501L210.355 29.5571L192.133 61.7144L193.003 62.2075ZM210.996 30.3893L229.218 62.5466L230.088 62.0536L211.866 29.8962L210.996 30.3893ZM192.968 62.3066H197.713V61.3066H192.968V62.3066ZM197.746 62.2974L211.128 38.6819L210.258 38.1889L196.876 61.8044L197.746 62.2974ZM224.477 62.5H229.222V61.5H224.477V62.5ZM210.996 38.8987L224.378 62.5142L225.248 62.0212L211.866 38.4057L210.996 38.8987ZM356.013 62.2996L388.092 5.24773L387.22 4.75762L355.142 61.8095L356.013 62.2996ZM351.268 62.2996L385.814 0.99302L384.943 0.502097L350.397 61.8087L351.268 62.2996ZM388.092 5.26164L385.814 1.00693L384.932 1.4789L387.21 5.73362L388.092 5.26164ZM351.264 62.3066H356.009V61.3066H351.264V62.3066ZM358.688 62.6161L389.628 8.01562L388.758 7.52261L357.818 62.1231L358.688 62.6161ZM363.416 62.6056L391.754 12.5968L390.884 12.1038L362.546 62.1126L363.416 62.6056ZM358.667 62.6934H363.412V61.6934H358.667V62.6934ZM389.549 8.17638L391.746 12.5696L392.64 12.1223L390.443 7.7291L389.549 8.17638ZM394.365 15.6811L420.844 62.4097L421.714 61.9167L395.235 15.1881L394.365 15.6811ZM416.181 62.5H420.926V61.5H416.181V62.5ZM391.906 19.9566L416.013 62.4981L416.883 62.0051L392.776 19.4636L391.906 19.9566ZM392.267 20.0561L394.422 15.7482L393.527 15.3009L391.373 19.6089L392.267 20.0561ZM390.356 23.3678L412.469 62.392L413.339 61.899L391.226 22.8748L390.356 23.3678ZM390.39 23.1261L387.601 27.0376L388.415 27.6182L391.204 23.7066L390.39 23.1261ZM387.729 27.0043L407.754 62.3438L408.624 61.8508L388.599 26.5113L387.729 27.0043ZM407.829 62.3066H412.574V61.3066H407.829V62.3066ZM368.003 62.2075L386.225 30.0501L385.355 29.5571L367.133 61.7144L368.003 62.2075ZM385.996 30.3893L404.218 62.5466L405.088 62.0536L386.866 29.8962L385.996 30.3893ZM367.968 62.3066H372.713V61.3066H367.968V62.3066ZM372.746 62.2974L386.128 38.6819L385.258 38.1888L371.876 61.8044L372.746 62.2974ZM399.477 62.5H404.222V61.5H399.477V62.5ZM385.996 38.8987L399.378 62.5142L400.248 62.0212L386.866 38.4057L385.996 38.8987ZM531.013 62.2996L563.092 5.24773L562.22 4.75762L530.142 61.8095L531.013 62.2996ZM526.268 62.2996L560.814 0.99302L559.943 0.502097L525.397 61.8087L526.268 62.2996ZM563.092 5.26164L560.814 1.00693L559.932 1.4789L562.21 5.73362L563.092 5.26164ZM526.264 62.3066H531.009V61.3066H526.264V62.3066ZM533.688 62.6161L564.628 8.01562L563.758 7.52261L532.818 62.1231L533.688 62.6161ZM538.416 62.6056L566.754 12.5968L565.884 12.1038L537.546 62.1126L538.416 62.6056ZM533.667 62.6934H538.412V61.6934H533.667V62.6934ZM564.549 8.17638L566.746 12.5696L567.64 12.1223L565.443 7.7291L564.549 8.17638ZM569.365 15.6811L595.844 62.4097L596.714 61.9167L570.235 15.1881L569.365 15.6811ZM591.181 62.5H595.926V61.5H591.181V62.5ZM566.906 19.9566L591.013 62.4981L591.883 62.0051L567.776 19.4636L566.906 19.9566ZM567.267 20.0561L569.422 15.7482L568.527 15.3009L566.373 19.6089L567.267 20.0561ZM565.356 23.3678L587.469 62.392L588.339 61.899L566.226 22.8748L565.356 23.3678ZM565.39 23.1261L562.601 27.0376L563.415 27.6182L566.204 23.7066L565.39 23.1261ZM562.729 27.0043L582.754 62.3438L583.624 61.8508L563.599 26.5113L562.729 27.0043ZM582.829 62.3066H587.574V61.3066H582.829V62.3066ZM543.003 62.2075L561.225 30.0501L560.355 29.5571L542.133 61.7144L543.003 62.2075ZM560.996 30.3893L579.218 62.5466L580.088 62.0536L561.866 29.8962L560.996 30.3893ZM542.968 62.3066H547.713V61.3066H542.968V62.3066ZM547.746 62.2974L561.128 38.6819L560.258 38.1888L546.876 61.8044L547.746 62.2974ZM574.477 62.5H579.222V61.5H574.477V62.5ZM560.996 38.8987L574.378 62.5142L575.248 62.0212L561.866 38.4057L560.996 38.8987ZM706.013 62.2996L738.092 5.24773L737.22 4.75762L705.142 61.8095L706.013 62.2996ZM701.268 62.2996L735.814 0.99302L734.943 0.502097L700.397 61.8087L701.268 62.2996ZM738.092 5.26164L735.814 1.00693L734.932 1.4789L737.21 5.73362L738.092 5.26164ZM701.264 62.3066H706.009V61.3066H701.264V62.3066ZM708.688 62.6161L739.628 8.01562L738.758 7.52261L707.818 62.1231L708.688 62.6161ZM713.416 62.6056L741.754 12.5968L740.884 12.1038L712.546 62.1126L713.416 62.6056ZM708.667 62.6934H713.412V61.6934H708.667V62.6934ZM739.549 8.17638L741.746 12.5696L742.64 12.1223L740.443 7.7291L739.549 8.17638ZM744.365 15.6811L770.844 62.4097L771.714 61.9167L745.235 15.1881L744.365 15.6811ZM766.181 62.5H770.926V61.5H766.181V62.5ZM741.906 19.9566L766.013 62.4981L766.883 62.0051L742.776 19.4636L741.906 19.9566ZM742.267 20.0561L744.422 15.7482L743.527 15.3009L741.373 19.6089L742.267 20.0561ZM740.356 23.3678L762.469 62.392L763.339 61.899L741.226 22.8748L740.356 23.3678ZM740.39 23.1261L737.601 27.0376L738.415 27.6182L741.204 23.7066L740.39 23.1261ZM737.729 27.0043L757.754 62.3438L758.624 61.8508L738.599 26.5113L737.729 27.0043ZM757.829 62.3066H762.574V61.3066H757.829V62.3066ZM718.003 62.2075L736.225 30.0501L735.355 29.5571L717.133 61.7144L718.003 62.2075ZM735.996 30.3893L754.218 62.5466L755.088 62.0536L736.866 29.8962L735.996 30.3893ZM717.968 62.3066H722.713V61.3066H717.968V62.3066ZM722.746 62.2974L736.128 38.6819L735.258 38.1888L721.876 61.8044L722.746 62.2974ZM749.477 62.5H754.222V61.5H749.477V62.5ZM735.996 38.8987L749.378 62.5142L750.248 62.0212L736.866 38.4057L735.996 38.8987ZM881.013 62.2996L913.092 5.24773L912.22 4.75762L880.142 61.8095L881.013 62.2996ZM876.268 62.2996L910.814 0.99302L909.943 0.502097L875.397 61.8087L876.268 62.2996ZM913.092 5.26164L910.814 1.00693L909.932 1.4789L912.21 5.73362L913.092 5.26164ZM876.264 62.3066H881.009V61.3066H876.264V62.3066ZM883.688 62.6161L914.628 8.01562L913.758 7.52261L882.818 62.1231L883.688 62.6161ZM888.416 62.6056L916.754 12.5968L915.884 12.1038L887.546 62.1126L888.416 62.6056ZM883.667 62.6934H888.412V61.6934H883.667V62.6934ZM914.549 8.17638L916.746 12.5696L917.64 12.1223L915.443 7.7291L914.549 8.17638ZM919.365 15.6811L945.844 62.4097L946.714 61.9167L920.235 15.1881L919.365 15.6811ZM941.181 62.5H945.926V61.5H941.181V62.5ZM916.906 19.9566L941.013 62.4981L941.883 62.0051L917.776 19.4636L916.906 19.9566ZM917.267 20.0561L919.422 15.7482L918.527 15.3009L916.373 19.6089L917.267 20.0561ZM915.356 23.3678L937.469 62.392L938.339 61.899L916.226 22.8748L915.356 23.3678ZM915.39 23.1261L912.601 27.0376L913.415 27.6182L916.204 23.7066L915.39 23.1261ZM912.729 27.0043L932.754 62.3438L933.624 61.8508L913.599 26.5113L912.729 27.0043ZM932.829 62.3066H937.574V61.3066H932.829V62.3066ZM893.003 62.2075L911.225 30.0501L910.355 29.5571L892.133 61.7144L893.003 62.2075ZM910.996 30.3893L929.218 62.5466L930.088 62.0536L911.866 29.8962L910.996 30.3893ZM892.968 62.3066H897.713V61.3066H892.968V62.3066ZM897.746 62.2974L911.128 38.6819L910.258 38.1888L896.876 61.8044L897.746 62.2974ZM924.477 62.5H929.222V61.5H924.477V62.5ZM910.996 38.8987L924.378 62.5142L925.248 62.0212L911.866 38.4057L910.996 38.8987ZM1056.01 62.2996L1088.09 5.24773L1087.22 4.75762L1055.14 61.8095L1056.01 62.2996ZM1051.27 62.2996L1085.81 0.99302L1084.94 0.502097L1050.4 61.8087L1051.27 62.2996ZM1088.09 5.26164L1085.81 1.00692L1084.93 1.47891L1087.21 5.73362L1088.09 5.26164ZM1051.26 62.3066H1056.01V61.3066H1051.26V62.3066ZM1058.69 62.6161L1089.63 8.01562L1088.76 7.52261L1057.82 62.1231L1058.69 62.6161ZM1063.42 62.6056L1091.75 12.5968L1090.88 12.1038L1062.55 62.1126L1063.42 62.6056ZM1058.67 62.6934H1063.41V61.6934H1058.67V62.6934ZM1089.55 8.17638L1091.75 12.5696L1092.64 12.1223L1090.44 7.7291L1089.55 8.17638ZM1094.36 15.6811L1120.84 62.4097L1121.71 61.9167L1095.23 15.1881L1094.36 15.6811ZM1116.18 62.5H1120.93V61.5H1116.18V62.5ZM1091.91 19.9566L1116.01 62.4981L1116.88 62.0051L1092.78 19.4636L1091.91 19.9566ZM1092.27 20.0561L1094.42 15.7482L1093.53 15.3009L1091.37 19.6089L1092.27 20.0561ZM1090.36 23.3678L1112.47 62.392L1113.34 61.899L1091.23 22.8748L1090.36 23.3678ZM1090.39 23.1261L1087.6 27.0376L1088.41 27.6182L1091.2 23.7066L1090.39 23.1261ZM1087.73 27.0043L1107.75 62.3439L1108.62 61.8508L1088.6 26.5113L1087.73 27.0043ZM1107.83 62.3066H1112.57V61.3066H1107.83V62.3066ZM1068 62.2075L1086.23 30.0501L1085.36 29.5571L1067.13 61.7144L1068 62.2075ZM1086 30.3893L1104.22 62.5466L1105.09 62.0536L1086.87 29.8962L1086 30.3893ZM1067.97 62.3066H1072.71V61.3066H1067.97V62.3066ZM1072.75 62.2974L1086.13 38.6819L1085.26 38.1888L1071.88 61.8044L1072.75 62.2974ZM1099.48 62.5H1104.22V61.5H1099.48V62.5ZM1086 38.8987L1099.38 62.5142L1100.25 62.0212L1086.87 38.4057L1086 38.8987ZM1231.01 62.2996L1263.09 5.24773L1262.22 4.75762L1230.14 61.8095L1231.01 62.2996ZM1226.27 62.2996L1260.81 0.99302L1259.94 0.502097L1225.4 61.8087L1226.27 62.2996ZM1263.09 5.26164L1260.81 1.00692L1259.93 1.47891L1262.21 5.73362L1263.09 5.26164ZM1226.26 62.3066H1231.01V61.3066H1226.26V62.3066ZM1233.69 62.6161L1264.63 8.01562L1263.76 7.52261L1232.82 62.1231L1233.69 62.6161ZM1238.42 62.6056L1266.75 12.5968L1265.88 12.1038L1237.55 62.1126L1238.42 62.6056ZM1233.67 62.6934H1238.41V61.6934H1233.67V62.6934ZM1264.55 8.17638L1266.75 12.5696L1267.64 12.1223L1265.44 7.7291L1264.55 8.17638ZM1269.36 15.6811L1295.84 62.4097L1296.71 61.9167L1270.23 15.1881L1269.36 15.6811ZM1291.18 62.5H1295.93V61.5H1291.18V62.5ZM1266.91 19.9566L1291.01 62.4981L1291.88 62.0051L1267.78 19.4636L1266.91 19.9566ZM1267.27 20.0561L1269.42 15.7482L1268.53 15.3009L1266.37 19.6089L1267.27 20.0561ZM1265.36 23.3678L1287.47 62.392L1288.34 61.899L1266.23 22.8748L1265.36 23.3678ZM1265.39 23.1261L1262.6 27.0376L1263.41 27.6182L1266.2 23.7066L1265.39 23.1261ZM1262.73 27.0043L1282.75 62.3439L1283.62 61.8508L1263.6 26.5113L1262.73 27.0043ZM1282.83 62.3066H1287.57V61.3066H1282.83V62.3066ZM1243 62.2075L1261.23 30.0501L1260.36 29.5571L1242.13 61.7144L1243 62.2075ZM1261 30.3893L1279.22 62.5466L1280.09 62.0536L1261.87 29.8962L1261 30.3893ZM1242.97 62.3066H1247.71V61.3066H1242.97V62.3066ZM1247.75 62.2974L1261.13 38.6819L1260.26 38.1888L1246.88 61.8044L1247.75 62.2974ZM1274.48 62.5H1279.22V61.5H1274.48V62.5ZM1261 38.8987L1274.38 62.5142L1275.25 62.0212L1261.87 38.4057L1261 38.8987ZM78.5 60L77.634 60.5L78.5 62L79.3661 60.5L78.5 60ZM44.292 0.749994V-0.250006H42.56L43.426 1.24999L44.292 0.749994ZM112.708 0.749994L113.574 1.24999L114.44 -0.250006H112.708V0.749994ZM78.4086 16.5873L77.5385 17.0803L78.4086 18.6157L79.2786 17.0803L78.4086 16.5873ZM69.4606 0.7966V-0.2034H67.7446L68.5906 1.28961L69.4606 0.7966ZM87.3565 0.7966L88.2265 1.28961L89.0725 -0.2034H87.3565V0.7966ZM253.5 60L252.634 60.5L253.5 62L254.366 60.5L253.5 60ZM219.292 0.749994V-0.250006H217.56L218.426 1.24999L219.292 0.749994ZM287.708 0.749994L288.574 1.24999L289.44 -0.250006H287.708V0.749994ZM253.409 16.5873L252.539 17.0803L253.409 18.6157L254.279 17.0803L253.409 16.5873ZM244.461 0.7966V-0.2034H242.745L243.591 1.28961L244.461 0.7966ZM262.356 0.7966L263.227 1.28961L264.073 -0.2034H262.356V0.7966ZM428.5 60L427.634 60.5L428.5 62L429.366 60.5L428.5 60ZM394.292 0.749994V-0.250006H392.56L393.426 1.24999L394.292 0.749994ZM462.708 0.749994L463.574 1.24999L464.44 -0.250006H462.708V0.749994ZM428.409 16.5873L427.539 17.0803L428.409 18.6157L429.279 17.0803L428.409 16.5873ZM419.461 0.7966V-0.2034H417.745L418.591 1.28961L419.461 0.7966ZM437.356 0.7966L438.227 1.28961L439.073 -0.2034H437.356V0.7966ZM603.5 60L602.634 60.5L603.5 62L604.366 60.5L603.5 60ZM569.292 0.749994V-0.250006H567.56L568.426 1.24999L569.292 0.749994ZM637.708 0.749994L638.574 1.24999L639.44 -0.250006H637.708V0.749994ZM603.409 16.5873L602.539 17.0803L603.409 18.6156L604.279 17.0803L603.409 16.5873ZM594.461 0.7966V-0.2034H592.745L593.591 1.28961L594.461 0.7966ZM612.357 0.7966L613.227 1.28961L614.073 -0.2034H612.357V0.7966ZM778.5 60L777.634 60.5L778.5 62L779.366 60.5L778.5 60ZM744.292 0.749994V-0.250006H742.56L743.426 1.24999L744.292 0.749994ZM812.708 0.749994L813.574 1.24999L814.44 -0.250006H812.708V0.749994ZM778.409 16.5873L777.539 17.0803L778.409 18.6156L779.279 17.0803L778.409 16.5873ZM769.461 0.7966V-0.2034H767.745L768.591 1.28961L769.461 0.7966ZM787.357 0.7966L788.227 1.28961L789.073 -0.2034H787.357V0.7966ZM953.5 60L952.634 60.5L953.5 62L954.366 60.5L953.5 60ZM919.292 0.749994V-0.250006H917.56L918.426 1.24999L919.292 0.749994ZM987.708 0.749994L988.574 1.24999L989.44 -0.250006H987.708V0.749994ZM953.409 16.5873L952.539 17.0803L953.409 18.6156L954.279 17.0803L953.409 16.5873ZM944.461 0.7966V-0.2034H942.745L943.591 1.28961L944.461 0.7966ZM962.357 0.7966L963.227 1.28961L964.073 -0.2034H962.357V0.7966ZM1128.5 60L1127.63 60.5L1128.5 62L1129.37 60.5L1128.5 60ZM1094.29 0.749994V-0.250006H1092.56L1093.43 1.24999L1094.29 0.749994ZM1162.71 0.749994L1163.57 1.24999L1164.44 -0.250006H1162.71V0.749994ZM1128.41 16.5873L1127.54 17.0803L1128.41 18.6156L1129.28 17.0803L1128.41 16.5873ZM1119.46 0.7966V-0.2034H1117.74L1118.59 1.28961L1119.46 0.7966ZM1137.36 0.7966L1138.23 1.28961L1139.07 -0.2034H1137.36V0.7966ZM1303.5 60L1302.63 60.5L1303.5 62L1304.37 60.5L1303.5 60ZM1269.29 0.749994V-0.250006H1267.56L1268.43 1.24999L1269.29 0.749994ZM1337.71 0.749994L1338.57 1.24999L1339.44 -0.250006H1337.71V0.749994ZM1303.41 16.5873L1302.54 17.0803L1303.41 18.6156L1304.28 17.0803L1303.41 16.5873ZM1294.46 0.7966V-0.2034H1292.74L1293.59 1.28961L1294.46 0.7966ZM1312.36 0.7966L1313.23 1.28961L1314.07 -0.2034H1312.36V0.7966ZM166.5 61L165.634 61.5L166.5 63L167.366 61.5L166.5 61ZM132.292 1.74999V0.749994H130.56L131.426 2.24999L132.292 1.74999ZM200.708 1.74999L201.574 2.24999L202.44 0.749994H200.708V1.74999ZM166.409 17.5873L165.539 18.0803L166.409 19.6157L167.279 18.0803L166.409 17.5873ZM157.461 1.7966V0.7966H155.745L156.591 2.28961L157.461 1.7966ZM175.356 1.7966L176.227 2.28961L177.073 0.7966H175.356V1.7966ZM341.5 61L340.634 61.5L341.5 63L342.366 61.5L341.5 61ZM307.292 1.74999V0.749994H305.56L306.426 2.24999L307.292 1.74999ZM375.708 1.74999L376.574 2.24999L377.44 0.749994H375.708V1.74999ZM341.409 17.5873L340.539 18.0803L341.409 19.6157L342.279 18.0803L341.409 17.5873ZM332.461 1.7966V0.7966H330.745L331.591 2.28961L332.461 1.7966ZM350.356 1.7966L351.227 2.28961L352.073 0.7966H350.356V1.7966ZM516.5 61L515.634 61.5L516.5 63L517.366 61.5L516.5 61ZM482.292 1.74999V0.749994H480.56L481.426 2.24999L482.292 1.74999ZM550.708 1.74999L551.574 2.24999L552.44 0.749994H550.708V1.74999ZM516.409 17.5873L515.539 18.0803L516.409 19.6156L517.279 18.0803L516.409 17.5873ZM507.461 1.7966V0.7966H505.745L506.591 2.28961L507.461 1.7966ZM525.357 1.7966L526.227 2.28961L527.073 0.7966H525.357V1.7966ZM691.5 61L690.634 61.5L691.5 63L692.366 61.5L691.5 61ZM657.292 1.74999V0.749994H655.56L656.426 2.24999L657.292 1.74999ZM725.708 1.74999L726.574 2.24999L727.44 0.749994H725.708V1.74999ZM691.409 17.5873L690.539 18.0803L691.409 19.6156L692.279 18.0803L691.409 17.5873ZM682.461 1.7966V0.7966H680.745L681.591 2.28961L682.461 1.7966ZM700.357 1.7966L701.227 2.28961L702.073 0.7966H700.357V1.7966ZM866.5 61L865.634 61.5L866.5 63L867.366 61.5L866.5 61ZM832.292 1.74999V0.749994H830.56L831.426 2.24999L832.292 1.74999ZM900.708 1.74999L901.574 2.24999L902.44 0.749994H900.708V1.74999ZM866.409 17.5873L865.539 18.0803L866.409 19.6156L867.279 18.0803L866.409 17.5873ZM857.461 1.7966V0.7966H855.745L856.591 2.28961L857.461 1.7966ZM875.357 1.7966L876.227 2.28961L877.073 0.7966H875.357V1.7966ZM1041.5 61L1040.63 61.5L1041.5 63L1042.37 61.5L1041.5 61ZM1007.29 1.74999V0.749994H1005.56L1006.43 2.25L1007.29 1.74999ZM1075.71 1.74999L1076.57 2.24999L1077.44 0.749994H1075.71V1.74999ZM1041.41 17.5873L1040.54 18.0803L1041.41 19.6156L1042.28 18.0803L1041.41 17.5873ZM1032.46 1.7966V0.7966H1030.74L1031.59 2.28961L1032.46 1.7966ZM1050.36 1.7966L1051.23 2.28961L1052.07 0.7966H1050.36V1.7966ZM1216.5 61L1215.63 61.5L1216.5 63L1217.37 61.5L1216.5 61ZM1182.29 1.74999V0.749994H1180.56L1181.43 2.24999L1182.29 1.74999ZM1250.71 1.74999L1251.57 2.24999L1252.44 0.749994H1250.71V1.74999ZM1216.41 17.5873L1215.54 18.0803L1216.41 19.6156L1217.28 18.0803L1216.41 17.5873ZM1207.46 1.7966V0.7966H1205.74L1206.59 2.28961L1207.46 1.7966ZM1225.36 1.7966L1226.23 2.28961L1227.07 0.7966H1225.36V1.7966ZM1391.5 61L1390.63 61.5L1391.5 63L1392.37 61.5L1391.5 61ZM1357.29 1.74999V0.749994H1355.56L1356.43 2.24999L1357.29 1.74999ZM1425.71 1.74999L1426.57 2.24999L1427.44 0.749994H1425.71V1.74999ZM1391.41 17.5873L1390.54 18.0803L1391.41 19.6156L1392.28 18.0803L1391.41 17.5873ZM1382.46 1.7966V0.7966H1380.74L1381.59 2.28961L1382.46 1.7966ZM1400.36 1.7966L1401.23 2.28961L1402.07 0.7966H1400.36V1.7966ZM122 1.00004L122.866 0.500042L122 -0.999957L121.134 0.500042L122 1.00004ZM157.507 62.5V63.5H159.239L158.373 62L157.507 62.5ZM86.493 62.5L85.627 62L84.7609 63.5H86.493V62.5ZM122.095 46.0613L122.965 45.5683L122.095 44.033L121.225 45.5683L122.095 46.0613ZM131.383 62.4517V63.4517H133.099L132.253 61.9586L131.383 62.4517ZM112.807 62.4517L111.937 61.9586L111.091 63.4517H112.807V62.4517ZM297 1.00004L297.866 0.500042L297 -0.999958L296.134 0.500042L297 1.00004ZM332.507 62.5V63.5H334.239L333.373 62L332.507 62.5ZM261.493 62.5L260.627 62L259.761 63.5H261.493V62.5ZM297.095 46.0613L297.965 45.5683L297.095 44.033L296.225 45.5683L297.095 46.0613ZM306.383 62.4517V63.4517H308.099L307.253 61.9586L306.383 62.4517ZM287.807 62.4517L286.937 61.9586L286.091 63.4517H287.807V62.4517ZM472 1.00004L472.866 0.500042L472 -0.999958L471.134 0.500042L472 1.00004ZM507.507 62.5V63.5H509.239L508.373 62L507.507 62.5ZM436.493 62.5L435.627 62L434.761 63.5H436.493V62.5ZM472.095 46.0613L472.965 45.5683L472.095 44.033L471.225 45.5683L472.095 46.0613ZM481.383 62.4517V63.4517H483.099L482.253 61.9586L481.383 62.4517ZM462.807 62.4517L461.937 61.9586L461.091 63.4517H462.807V62.4517ZM647 1.00004L647.866 0.500042L647 -0.999957L646.134 0.500042L647 1.00004ZM682.507 62.5V63.5H684.239L683.373 62L682.507 62.5ZM611.493 62.5L610.627 62L609.761 63.5H611.493V62.5ZM647.095 46.0613L647.965 45.5683L647.095 44.033L646.225 45.5683L647.095 46.0613ZM656.383 62.4517V63.4517H658.099L657.253 61.9586L656.383 62.4517ZM637.807 62.4517L636.937 61.9586L636.091 63.4517H637.807V62.4517ZM822 1.00004L822.866 0.500042L822 -0.999957L821.134 0.500042L822 1.00004ZM857.507 62.5V63.5H859.239L858.373 62L857.507 62.5ZM786.493 62.5L785.627 62L784.761 63.5H786.493V62.5ZM822.095 46.0613L822.965 45.5683L822.095 44.033L821.225 45.5683L822.095 46.0613ZM831.383 62.4517V63.4517H833.099L832.253 61.9586L831.383 62.4517ZM812.807 62.4517L811.937 61.9586L811.091 63.4517H812.807V62.4517ZM997 1.00004L997.866 0.500042L997 -0.999958L996.134 0.500042L997 1.00004ZM1032.51 62.5V63.5H1034.24L1033.37 62L1032.51 62.5ZM961.493 62.5L960.627 62L959.761 63.5H961.493V62.5ZM997.095 46.0613L997.965 45.5683L997.095 44.033L996.225 45.5683L997.095 46.0613ZM1006.38 62.4517V63.4517H1008.1L1007.25 61.9586L1006.38 62.4517ZM987.807 62.4517L986.937 61.9586L986.091 63.4517H987.807V62.4517ZM1172 1.00004L1172.87 0.500043L1172 -0.999958L1171.13 0.500042L1172 1.00004ZM1207.51 62.5V63.5H1209.24L1208.37 62L1207.51 62.5ZM1136.49 62.5L1135.63 62L1134.76 63.5H1136.49V62.5ZM1172.09 46.0613L1172.96 45.5683L1172.09 44.033L1171.22 45.5683L1172.09 46.0613ZM1181.38 62.4517V63.4517H1183.1L1182.25 61.9586L1181.38 62.4517ZM1162.81 62.4517L1161.94 61.9586L1161.09 63.4517H1162.81V62.4517ZM1347 1.00004L1347.87 0.500043L1347 -0.999958L1346.13 0.500042L1347 1.00004ZM1382.51 62.5V63.5H1384.24L1383.37 62L1382.51 62.5ZM1311.49 62.5L1310.63 62L1309.76 63.5H1311.49V62.5ZM1347.09 46.0613L1347.96 45.5683L1347.09 44.033L1346.22 45.5683L1347.09 46.0613ZM1356.38 62.4517V63.4517H1358.1L1357.25 61.9586L1356.38 62.4517ZM1337.81 62.4517L1336.94 61.9586L1336.09 63.4517H1337.81V62.4517ZM36 1.00004L36.866 0.500042L36 -0.999957L35.134 0.500042L36 1.00004ZM71.5071 62.5V63.5H73.2391L72.3731 62L71.5071 62.5ZM0.492981 62.5L-0.373044 62L-1.23907 63.5H0.492981V62.5ZM36.095 46.0613L36.965 45.5683L36.095 44.033L35.2249 45.5683L36.095 46.0613ZM45.3827 62.4517V63.4517H47.0987L46.2527 61.9586L45.3827 62.4517ZM26.8072 62.4517L25.9372 61.9586L25.0912 63.4517H26.8072V62.4517ZM211 1.00004L211.866 0.500042L211 -0.999957L210.134 0.500042L211 1.00004ZM246.507 62.5V63.5H248.239L247.373 62L246.507 62.5ZM175.493 62.5L174.627 62L173.761 63.5H175.493V62.5ZM211.095 46.0613L211.965 45.5683L211.095 44.033L210.225 45.5683L211.095 46.0613ZM220.383 62.4517V63.4517H222.099L221.253 61.9586L220.383 62.4517ZM201.807 62.4517L200.937 61.9586L200.091 63.4517H201.807V62.4517ZM386 1.00004L386.866 0.500042L386 -0.999958L385.134 0.500042L386 1.00004ZM421.507 62.5V63.5H423.239L422.373 62L421.507 62.5ZM350.493 62.5L349.627 62L348.761 63.5H350.493V62.5ZM386.095 46.0613L386.965 45.5683L386.095 44.033L385.225 45.5683L386.095 46.0613ZM395.383 62.4517V63.4517H397.099L396.253 61.9586L395.383 62.4517ZM376.807 62.4517L375.937 61.9586L375.091 63.4517H376.807V62.4517ZM561 1.00004L561.866 0.500042L561 -0.999957L560.134 0.500042L561 1.00004ZM596.507 62.5V63.5H598.239L597.373 62L596.507 62.5ZM525.493 62.5L524.627 62L523.761 63.5H525.493V62.5ZM561.095 46.0613L561.965 45.5683L561.095 44.033L560.225 45.5683L561.095 46.0613ZM570.383 62.4517V63.4517H572.099L571.253 61.9586L570.383 62.4517ZM551.807 62.4517L550.937 61.9586L550.091 63.4517H551.807V62.4517ZM736 1.00004L736.866 0.500042L736 -0.999957L735.134 0.500042L736 1.00004ZM771.507 62.5V63.5H773.239L772.373 62L771.507 62.5ZM700.493 62.5L699.627 62L698.761 63.5H700.493V62.5ZM736.095 46.0613L736.965 45.5683L736.095 44.033L735.225 45.5683L736.095 46.0613ZM745.383 62.4517V63.4517H747.099L746.253 61.9586L745.383 62.4517ZM726.807 62.4517L725.937 61.9586L725.091 63.4517H726.807V62.4517ZM911 1.00004L911.866 0.500042L911 -0.999957L910.134 0.500042L911 1.00004ZM946.507 62.5V63.5H948.239L947.373 62L946.507 62.5ZM875.493 62.5L874.627 62L873.761 63.5H875.493V62.5ZM911.095 46.0613L911.965 45.5683L911.095 44.033L910.225 45.5683L911.095 46.0613ZM920.383 62.4517V63.4517H922.099L921.253 61.9586L920.383 62.4517ZM901.807 62.4517L900.937 61.9586L900.091 63.4517H901.807V62.4517ZM1086 1.00004L1086.87 0.500043L1086 -0.999958L1085.13 0.500042L1086 1.00004ZM1121.51 62.5V63.5H1123.24L1122.37 62L1121.51 62.5ZM1050.49 62.5L1049.63 62L1048.76 63.5H1050.49V62.5ZM1086.09 46.0613L1086.96 45.5683L1086.09 44.033L1085.22 45.5683L1086.09 46.0613ZM1095.38 62.4517V63.4517H1097.1L1096.25 61.9586L1095.38 62.4517ZM1076.81 62.4517L1075.94 61.9586L1075.09 63.4517H1076.81V62.4517ZM1261 1.00004L1261.87 0.500043L1261 -0.999958L1260.13 0.500042L1261 1.00004ZM1296.51 62.5V63.5H1298.24L1297.37 62L1296.51 62.5ZM1225.49 62.5L1224.63 62L1223.76 63.5H1225.49V62.5ZM1261.09 46.0613L1261.96 45.5683L1261.09 44.033L1260.22 45.5683L1261.09 46.0613ZM1270.38 62.4517V63.4517H1272.1L1271.25 61.9586L1270.38 62.4517ZM1251.81 62.4517L1250.94 61.9586L1250.09 63.4517H1251.81V62.4517ZM79.3661 59.5L45.158 0.249994L43.426 1.24999L77.634 60.5L79.3661 59.5ZM44.292 1.74999H112.708V-0.250006H44.292V1.74999ZM111.842 0.249994L77.634 59.5L79.3661 60.5L113.574 1.24999L111.842 0.249994ZM79.2786 16.0943L70.3307 0.303593L68.5906 1.28961L77.5385 17.0803L79.2786 16.0943ZM69.4606 1.7966H87.3565V-0.2034H69.4606V1.7966ZM86.4865 0.303593L77.5385 16.0943L79.2786 17.0803L88.2265 1.28961L86.4865 0.303593ZM254.366 59.5L220.158 0.249994L218.426 1.24999L252.634 60.5L254.366 59.5ZM219.292 1.74999H287.708V-0.250006H219.292V1.74999ZM286.842 0.249994L252.634 59.5L254.366 60.5L288.574 1.24999L286.842 0.249994ZM254.279 16.0943L245.331 0.303593L243.591 1.28961L252.539 17.0803L254.279 16.0943ZM244.461 1.7966H262.356V-0.2034H244.461V1.7966ZM261.486 0.303593L252.539 16.0943L254.279 17.0803L263.227 1.28961L261.486 0.303593ZM429.366 59.5L395.158 0.249994L393.426 1.24999L427.634 60.5L429.366 59.5ZM394.292 1.74999H462.708V-0.250006H394.292V1.74999ZM461.842 0.249994L427.634 59.5L429.366 60.5L463.574 1.24999L461.842 0.249994ZM429.279 16.0943L420.331 0.303593L418.591 1.28961L427.539 17.0803L429.279 16.0943ZM419.461 1.7966H437.356V-0.2034H419.461V1.7966ZM436.486 0.303594L427.539 16.0943L429.279 17.0803L438.227 1.28961L436.486 0.303594ZM604.366 59.5L570.158 0.249994L568.426 1.24999L602.634 60.5L604.366 59.5ZM569.292 1.74999H637.708V-0.250006H569.292V1.74999ZM636.842 0.249994L602.634 59.5L604.366 60.5L638.574 1.24999L636.842 0.249994ZM604.279 16.0943L595.331 0.303593L593.591 1.28961L602.539 17.0803L604.279 16.0943ZM594.461 1.7966H612.357V-0.2034H594.461V1.7966ZM611.487 0.303593L602.539 16.0943L604.279 17.0803L613.227 1.28961L611.487 0.303593ZM779.366 59.5L745.158 0.249994L743.426 1.24999L777.634 60.5L779.366 59.5ZM744.292 1.74999H812.708V-0.250006H744.292V1.74999ZM811.842 0.249994L777.634 59.5L779.366 60.5L813.574 1.24999L811.842 0.249994ZM779.279 16.0943L770.331 0.303593L768.591 1.28961L777.539 17.0803L779.279 16.0943ZM769.461 1.7966H787.357V-0.2034H769.461V1.7966ZM786.487 0.303593L777.539 16.0943L779.279 17.0803L788.227 1.28961L786.487 0.303593ZM954.366 59.5L920.158 0.249994L918.426 1.24999L952.634 60.5L954.366 59.5ZM919.292 1.74999H987.708V-0.250006H919.292V1.74999ZM986.842 0.249994L952.634 59.5L954.366 60.5L988.574 1.24999L986.842 0.249994ZM954.279 16.0943L945.331 0.303593L943.591 1.28961L952.539 17.0803L954.279 16.0943ZM944.461 1.7966H962.357V-0.2034H944.461V1.7966ZM961.487 0.303593L952.539 16.0943L954.279 17.0803L963.227 1.28961L961.487 0.303593ZM1129.37 59.5L1095.16 0.249994L1093.43 1.24999L1127.63 60.5L1129.37 59.5ZM1094.29 1.74999H1162.71V-0.250006H1094.29V1.74999ZM1161.84 0.249994L1127.63 59.5L1129.37 60.5L1163.57 1.24999L1161.84 0.249994ZM1129.28 16.0943L1120.33 0.303595L1118.59 1.28961L1127.54 17.0803L1129.28 16.0943ZM1119.46 1.7966H1137.36V-0.2034H1119.46V1.7966ZM1136.49 0.30359L1127.54 16.0943L1129.28 17.0803L1138.23 1.28961L1136.49 0.30359ZM1304.37 59.5L1270.16 0.249994L1268.43 1.24999L1302.63 60.5L1304.37 59.5ZM1269.29 1.74999H1337.71V-0.250006H1269.29V1.74999ZM1336.84 0.249994L1302.63 59.5L1304.37 60.5L1338.57 1.24999L1336.84 0.249994ZM1304.28 16.0943L1295.33 0.303595L1293.59 1.28961L1302.54 17.0803L1304.28 16.0943ZM1294.46 1.7966H1312.36V-0.2034H1294.46V1.7966ZM1311.49 0.30359L1302.54 16.0943L1304.28 17.0803L1313.23 1.28961L1311.49 0.30359ZM167.366 60.5L133.158 1.24999L131.426 2.24999L165.634 61.5L167.366 60.5ZM132.292 2.74999H200.708V0.749994H132.292V2.74999ZM199.842 1.24999L165.634 60.5L167.366 61.5L201.574 2.24999L199.842 1.24999ZM167.279 17.0943L158.331 1.30359L156.591 2.28961L165.539 18.0803L167.279 17.0943ZM157.461 2.7966H175.356V0.7966H157.461V2.7966ZM174.486 1.30359L165.539 17.0943L167.279 18.0803L176.227 2.28961L174.486 1.30359ZM342.366 60.5L308.158 1.24999L306.426 2.24999L340.634 61.5L342.366 60.5ZM307.292 2.74999H375.708V0.749994H307.292V2.74999ZM374.842 1.24999L340.634 60.5L342.366 61.5L376.574 2.24999L374.842 1.24999ZM342.279 17.0943L333.331 1.30359L331.591 2.28961L340.539 18.0803L342.279 17.0943ZM332.461 2.7966H350.356V0.7966H332.461V2.7966ZM349.486 1.30359L340.539 17.0943L342.279 18.0803L351.227 2.28961L349.486 1.30359ZM517.366 60.5L483.158 1.24999L481.426 2.24999L515.634 61.5L517.366 60.5ZM482.292 2.74999H550.708V0.749994H482.292V2.74999ZM549.842 1.24999L515.634 60.5L517.366 61.5L551.574 2.24999L549.842 1.24999ZM517.279 17.0943L508.331 1.30359L506.591 2.28961L515.539 18.0803L517.279 17.0943ZM507.461 2.7966H525.357V0.7966H507.461V2.7966ZM524.487 1.30359L515.539 17.0943L517.279 18.0803L526.227 2.28961L524.487 1.30359ZM692.366 60.5L658.158 1.24999L656.426 2.24999L690.634 61.5L692.366 60.5ZM657.292 2.74999H725.708V0.749994H657.292V2.74999ZM724.842 1.24999L690.634 60.5L692.366 61.5L726.574 2.24999L724.842 1.24999ZM692.279 17.0943L683.331 1.30359L681.591 2.28961L690.539 18.0803L692.279 17.0943ZM682.461 2.7966H700.357V0.7966H682.461V2.7966ZM699.487 1.30359L690.539 17.0943L692.279 18.0803L701.227 2.28961L699.487 1.30359ZM867.366 60.5L833.158 1.24999L831.426 2.24999L865.634 61.5L867.366 60.5ZM832.292 2.74999H900.708V0.749994H832.292V2.74999ZM899.842 1.24999L865.634 60.5L867.366 61.5L901.574 2.24999L899.842 1.24999ZM867.279 17.0943L858.331 1.30359L856.591 2.28961L865.539 18.0803L867.279 17.0943ZM857.461 2.7966H875.357V0.7966H857.461V2.7966ZM874.487 1.30359L865.539 17.0943L867.279 18.0803L876.227 2.28961L874.487 1.30359ZM1042.37 60.5L1008.16 1.24999L1006.43 2.25L1040.63 61.5L1042.37 60.5ZM1007.29 2.74999H1075.71V0.749994H1007.29V2.74999ZM1074.84 1.24999L1040.63 60.5L1042.37 61.5L1076.57 2.24999L1074.84 1.24999ZM1042.28 17.0943L1033.33 1.3036L1031.59 2.28961L1040.54 18.0803L1042.28 17.0943ZM1032.46 2.7966H1050.36V0.7966H1032.46V2.7966ZM1049.49 1.30359L1040.54 17.0943L1042.28 18.0803L1051.23 2.28961L1049.49 1.30359ZM1217.37 60.5L1183.16 1.24999L1181.43 2.24999L1215.63 61.5L1217.37 60.5ZM1182.29 2.74999H1250.71V0.749994H1182.29V2.74999ZM1249.84 1.24999L1215.63 60.5L1217.37 61.5L1251.57 2.24999L1249.84 1.24999ZM1217.28 17.0943L1208.33 1.3036L1206.59 2.28961L1215.54 18.0803L1217.28 17.0943ZM1207.46 2.7966H1225.36V0.7966H1207.46V2.7966ZM1224.49 1.30359L1215.54 17.0943L1217.28 18.0803L1226.23 2.28961L1224.49 1.30359ZM1392.37 60.5L1358.16 1.24999L1356.43 2.24999L1390.63 61.5L1392.37 60.5ZM1357.29 2.74999H1425.71V0.749994H1357.29V2.74999ZM1424.84 1.24999L1390.63 60.5L1392.37 61.5L1426.57 2.24999L1424.84 1.24999ZM1392.28 17.0943L1383.33 1.3036L1381.59 2.28961L1390.54 18.0803L1392.28 17.0943ZM1382.46 2.7966H1400.36V0.7966H1382.46V2.7966ZM1399.49 1.30359L1390.54 17.0943L1392.28 18.0803L1401.23 2.28961L1399.49 1.30359ZM121.134 1.50004L156.641 63L158.373 62L122.866 0.500042L121.134 1.50004ZM157.507 61.5H86.493V63.5H157.507V61.5ZM87.359 63L122.866 1.50004L121.134 0.500042L85.627 62L87.359 63ZM121.225 46.5543L130.513 62.9447L132.253 61.9586L122.965 45.5683L121.225 46.5543ZM131.383 61.4517H112.807V63.4517H131.383V61.4517ZM113.677 62.9447L122.965 46.5543L121.225 45.5683L111.937 61.9586L113.677 62.9447ZM296.134 1.50004L331.641 63L333.373 62L297.866 0.500042L296.134 1.50004ZM332.507 61.5H261.493V63.5H332.507V61.5ZM262.359 63L297.866 1.50004L296.134 0.500042L260.627 62L262.359 63ZM296.225 46.5543L305.513 62.9447L307.253 61.9586L297.965 45.5683L296.225 46.5543ZM306.383 61.4517H287.807V63.4517H306.383V61.4517ZM288.677 62.9447L297.965 46.5543L296.225 45.5683L286.937 61.9586L288.677 62.9447ZM471.134 1.50004L506.641 63L508.373 62L472.866 0.500042L471.134 1.50004ZM507.507 61.5H436.493V63.5H507.507V61.5ZM437.359 63L472.866 1.50004L471.134 0.500042L435.627 62L437.359 63ZM471.225 46.5543L480.513 62.9447L482.253 61.9586L472.965 45.5683L471.225 46.5543ZM481.383 61.4517H462.807V63.4517H481.383V61.4517ZM463.677 62.9447L472.965 46.5543L471.225 45.5683L461.937 61.9586L463.677 62.9447ZM646.134 1.50004L681.641 63L683.373 62L647.866 0.500042L646.134 1.50004ZM682.507 61.5H611.493V63.5H682.507V61.5ZM612.359 63L647.866 1.50004L646.134 0.500042L610.627 62L612.359 63ZM646.225 46.5543L655.513 62.9447L657.253 61.9586L647.965 45.5683L646.225 46.5543ZM656.383 61.4517H637.807V63.4517H656.383V61.4517ZM638.677 62.9447L647.965 46.5543L646.225 45.5683L636.937 61.9586L638.677 62.9447ZM821.134 1.50004L856.641 63L858.373 62L822.866 0.500042L821.134 1.50004ZM857.507 61.5H786.493V63.5H857.507V61.5ZM787.359 63L822.866 1.50004L821.134 0.500042L785.627 62L787.359 63ZM821.225 46.5543L830.513 62.9447L832.253 61.9586L822.965 45.5683L821.225 46.5543ZM831.383 61.4517H812.807V63.4517H831.383V61.4517ZM813.677 62.9447L822.965 46.5543L821.225 45.5683L811.937 61.9586L813.677 62.9447ZM996.134 1.50004L1031.64 63L1033.37 62L997.866 0.500042L996.134 1.50004ZM1032.51 61.5H961.493V63.5H1032.51V61.5ZM962.359 63L997.866 1.50004L996.134 0.500042L960.627 62L962.359 63ZM996.225 46.5543L1005.51 62.9447L1007.25 61.9586L997.965 45.5683L996.225 46.5543ZM1006.38 61.4517H987.807V63.4517H1006.38V61.4517ZM988.677 62.9447L997.965 46.5543L996.225 45.5683L986.937 61.9586L988.677 62.9447ZM1171.13 1.50004L1206.64 63L1208.37 62L1172.87 0.500043L1171.13 1.50004ZM1207.51 61.5H1136.49V63.5H1207.51V61.5ZM1137.36 63L1172.87 1.50004L1171.13 0.500042L1135.63 62L1137.36 63ZM1171.22 46.5543L1180.51 62.9447L1182.25 61.9586L1172.96 45.5683L1171.22 46.5543ZM1181.38 61.4517H1162.81V63.4517H1181.38V61.4517ZM1163.68 62.9447L1172.96 46.5543L1171.22 45.5683L1161.94 61.9586L1163.68 62.9447ZM1346.13 1.50004L1381.64 63L1383.37 62L1347.87 0.500043L1346.13 1.50004ZM1382.51 61.5H1311.49V63.5H1382.51V61.5ZM1312.36 63L1347.87 1.50004L1346.13 0.500042L1310.63 62L1312.36 63ZM1346.22 46.5543L1355.51 62.9447L1357.25 61.9586L1347.96 45.5683L1346.22 46.5543ZM1356.38 61.4517H1337.81V63.4517H1356.38V61.4517ZM1338.68 62.9447L1347.96 46.5543L1346.22 45.5683L1336.94 61.9586L1338.68 62.9447ZM35.134 1.50004L70.641 63L72.3731 62L36.866 0.500042L35.134 1.50004ZM71.5071 61.5H0.492981V63.5H71.5071V61.5ZM1.35901 63L36.866 1.50004L35.134 0.500042L-0.373044 62L1.35901 63ZM35.2249 46.5543L44.5127 62.9447L46.2527 61.9586L36.965 45.5683L35.2249 46.5543ZM45.3827 61.4517H26.8072V63.4517H45.3827V61.4517ZM27.6773 62.9447L36.965 46.5543L35.2249 45.5683L25.9372 61.9586L27.6773 62.9447ZM210.134 1.50004L245.641 63L247.373 62L211.866 0.500042L210.134 1.50004ZM246.507 61.5H175.493V63.5H246.507V61.5ZM176.359 63L211.866 1.50004L210.134 0.500042L174.627 62L176.359 63ZM210.225 46.5543L219.513 62.9447L221.253 61.9586L211.965 45.5683L210.225 46.5543ZM220.383 61.4517H201.807V63.4517H220.383V61.4517ZM202.677 62.9447L211.965 46.5543L210.225 45.5683L200.937 61.9586L202.677 62.9447ZM385.134 1.50004L420.641 63L422.373 62L386.866 0.500042L385.134 1.50004ZM421.507 61.5H350.493V63.5H421.507V61.5ZM351.359 63L386.866 1.50004L385.134 0.500042L349.627 62L351.359 63ZM385.225 46.5543L394.513 62.9447L396.253 61.9586L386.965 45.5683L385.225 46.5543ZM395.383 61.4517H376.807V63.4517H395.383V61.4517ZM377.677 62.9447L386.965 46.5543L385.225 45.5683L375.937 61.9586L377.677 62.9447ZM560.134 1.50004L595.641 63L597.373 62L561.866 0.500042L560.134 1.50004ZM596.507 61.5H525.493V63.5H596.507V61.5ZM526.359 63L561.866 1.50004L560.134 0.500042L524.627 62L526.359 63ZM560.225 46.5543L569.513 62.9447L571.253 61.9586L561.965 45.5683L560.225 46.5543ZM570.383 61.4517H551.807V63.4517H570.383V61.4517ZM552.677 62.9447L561.965 46.5543L560.225 45.5683L550.937 61.9586L552.677 62.9447ZM735.134 1.50004L770.641 63L772.373 62L736.866 0.500042L735.134 1.50004ZM771.507 61.5H700.493V63.5H771.507V61.5ZM701.359 63L736.866 1.50004L735.134 0.500042L699.627 62L701.359 63ZM735.225 46.5543L744.513 62.9447L746.253 61.9586L736.965 45.5683L735.225 46.5543ZM745.383 61.4517H726.807V63.4517H745.383V61.4517ZM727.677 62.9447L736.965 46.5543L735.225 45.5683L725.937 61.9586L727.677 62.9447ZM910.134 1.50004L945.641 63L947.373 62L911.866 0.500042L910.134 1.50004ZM946.507 61.5H875.493V63.5H946.507V61.5ZM876.359 63L911.866 1.50004L910.134 0.500042L874.627 62L876.359 63ZM910.225 46.5543L919.513 62.9447L921.253 61.9586L911.965 45.5683L910.225 46.5543ZM920.383 61.4517H901.807V63.4517H920.383V61.4517ZM902.677 62.9447L911.965 46.5543L910.225 45.5683L900.937 61.9586L902.677 62.9447ZM1085.13 1.50004L1120.64 63L1122.37 62L1086.87 0.500043L1085.13 1.50004ZM1121.51 61.5H1050.49V63.5H1121.51V61.5ZM1051.36 63L1086.87 1.50004L1085.13 0.500042L1049.63 62L1051.36 63ZM1085.22 46.5543L1094.51 62.9447L1096.25 61.9586L1086.96 45.5683L1085.22 46.5543ZM1095.38 61.4517H1076.81V63.4517H1095.38V61.4517ZM1077.68 62.9447L1086.96 46.5543L1085.22 45.5683L1075.94 61.9586L1077.68 62.9447ZM1260.13 1.50004L1295.64 63L1297.37 62L1261.87 0.500043L1260.13 1.50004ZM1296.51 61.5H1225.49V63.5H1296.51V61.5ZM1226.36 63L1261.87 1.50004L1260.13 0.500042L1224.63 62L1226.36 63ZM1260.22 46.5543L1269.51 62.9447L1271.25 61.9586L1261.96 45.5683L1260.22 46.5543ZM1270.38 61.4517H1251.81V63.4517H1270.38V61.4517ZM1252.68 62.9447L1261.96 46.5543L1260.22 45.5683L1250.94 61.9586L1252.68 62.9447Z" fill="white" fill-opacity="0.8" mask="url(#path-1-inside-1)"/>
</svg>
