<svg width="3675" height="50" viewBox="0 0 3675 50" fill="none" xmlns="http://www.w3.org/2000/svg">
<path d="M3410.9 0.856619L3383.64 42.0898L3385.59 45.148L3414.96 0.841363L3410.9 0.856619Z" fill="#00B0E3"/>
<path d="M3405.5 0.873339L3381.41 36.7952L3383.24 40.0935L3409.54 0.858134L3405.5 0.873339Z" fill="#00B0E3"/>
<path d="M3398.56 0.93374L3387.1 17.9631L3375.66 0.981935L3371.74 0.996605L3387.12 24.1813L3402.61 0.880967L3398.56 0.93374Z" fill="#00B0E3"/>
<path d="M3379.66 0.962831L3387.46 12.5894L3395.25 0.903384L3379.66 0.962831Z" fill="#00B0E3"/>
<path d="M3383.41 29.0119L3364.46 1.01472L3368.61 0.999129L3385.79 26.2902L3383.41 29.0119Z" fill="#00B0E3"/>
<path d="M3380.69 34.5595L3357.86 1.03797L3361.99 1.02249L3382.82 31.472L3380.69 34.5595Z" fill="#00B0E3"/>
<path d="M3378.81 46.3072L3351.27 5.28538L3353.2 2.20792L3382.86 46.292L3378.81 46.3072Z" fill="#EB1947"/>
<path d="M3373.04 46.3276L3348.71 10.5878L3350.51 7.2804L3377.07 46.3124L3373.04 46.3276Z" fill="#EB1947"/>
<path d="M3366.09 46.316L3354.52 29.3731L3343.19 46.4347L3339.28 46.4494L3354.5 23.1502L3370.15 46.3337L3366.09 46.316Z" fill="#EB1947"/>
<path d="M3347.2 46.4238L3354.92 34.7428L3362.79 46.3644L3347.2 46.4238Z" fill="#EB1947"/>
<path d="M3350.77 18.3389L3331.99 46.4729L3336.15 46.4573L3353.16 21.0428L3350.77 18.3389Z" fill="#EB1947"/>
<path d="M3348.01 12.8022L3325.4 46.4941L3329.53 46.4786L3350.15 15.8784L3348.01 12.8022Z" fill="#EB1947"/>
<path d="M3345.96 1.64339L3318.69 42.8715L3320.65 45.9343L3350.01 1.62813L3345.96 1.64339Z" fill="white"/>
<path d="M3340.03 2.23636L3315.94 38.1583L3317.77 41.4567L3344.07 2.22118L3340.03 2.23636Z" fill="white"/>
<path d="M3333.25 1.71765L3321.79 18.7469L3310.35 1.77054L3306.44 1.7852L3321.81 24.9698L3337.31 1.66956L3333.25 1.71765Z" fill="white"/>
<path d="M3314.36 1.75139L3322.15 13.3733L3329.95 1.69193L3314.36 1.75139Z" fill="white"/>
<path d="M3318.11 29.7959L3299.15 1.80333L3303.31 1.78774L3320.49 27.0789L3318.11 29.7959Z" fill="white"/>
<path d="M3315.38 35.3478L3292.55 1.8268L3296.68 1.81127L3317.51 32.2555L3315.38 35.3478Z" fill="white"/>
<path d="M3312.87 46.5194L3285.33 5.49744L3287.27 2.41995L3316.92 46.5042L3312.87 46.5194Z" fill="#00B0E3"/>
<path d="M3307.1 46.5398L3282.77 10.8L3284.58 7.49266L3311.14 46.5246L3307.1 46.5398Z" fill="#00B0E3"/>
<path d="M3300.16 46.5282L3288.58 29.5854L3277.26 46.6469L3273.34 46.6615L3288.56 23.3625L3304.21 46.5459L3300.16 46.5282Z" fill="#00B0E3"/>
<path d="M3281.26 46.6362L3288.98 34.9552L3296.85 46.5767L3281.26 46.6362Z" fill="#00B0E3"/>
<path d="M3284.83 18.5509L3266.06 46.685L3270.21 46.6695L3287.22 21.2547L3284.83 18.5509Z" fill="#00B0E3"/>
<path d="M3282.07 13.0144L3259.46 46.7061L3263.59 46.6906L3284.21 16.0906L3282.07 13.0144Z" fill="#00B0E3"/>
<path d="M3280.11 1.27684L3252.84 42.5099L3254.8 45.5681L3284.16 1.26158L3280.11 1.27684Z" fill="#EB1947"/>
<path d="M3274.35 1.29527L3250.25 37.2173L3252.08 40.5157L3278.38 1.28008L3274.35 1.29527Z" fill="#EB1947"/>
<path d="M3267.4 1.35588L3255.94 18.385L3244.5 1.40407L3240.59 1.41874L3255.97 24.6032L3271.45 1.30311L3267.4 1.35588Z" fill="#EB1947"/>
<path d="M3248.51 1.38479L3256.3 13.0114L3264.1 1.32534L3248.51 1.38479Z" fill="#EB1947"/>
<path d="M3252.26 29.4338L3233.3 1.43667L3237.46 1.42108L3254.63 26.7121L3252.26 29.4338Z" fill="#EB1947"/>
<path d="M3249.44 34.9817L3226.61 1.46019L3230.74 1.44472L3251.57 31.8942L3249.44 34.9817Z" fill="#EB1947"/>
<path d="M3247.56 46.1556L3220.02 5.12902L3221.95 2.05627L3251.61 46.1404L3247.56 46.1556Z" fill="white"/>
<path d="M3241.63 45.5983L3217.3 9.86307L3219.11 6.55099L3245.67 45.5831L3241.63 45.5983Z" fill="white"/>
<path d="M3234.85 46.1597L3223.28 29.2214L3211.95 46.2831L3208.03 46.2977L3223.26 22.9985L3238.9 46.1821L3234.85 46.1597Z" fill="white"/>
<path d="M3215.95 46.2724L3223.67 34.5867L3231.54 46.213L3215.95 46.2724Z" fill="white"/>
<path d="M3219.52 18.1874L3200.75 46.3214L3204.91 46.3059L3221.91 20.8865L3219.52 18.1874Z" fill="white"/>
<path d="M3216.76 12.6506L3194.15 46.3425L3198.28 46.327L3218.91 15.7221L3216.76 12.6506Z" fill="white"/>
<path d="M3606.03 2.41791L3578.76 43.6508L3580.72 46.7089L3610.08 2.40266L3606.03 2.41791Z" fill="#00B0E3"/>
<path d="M3600.62 2.4347L3576.54 38.3566L3578.36 41.6549L3604.66 2.4195L3600.62 2.4347Z" fill="#00B0E3"/>
<path d="M3593.69 2.49484L3582.23 19.5242L3570.78 2.54303L3566.87 2.55771L3582.25 25.7424L3597.74 2.44207L3593.69 2.49484Z" fill="#00B0E3"/>
<path d="M3574.79 2.52402L3582.59 14.1506L3590.38 2.46458L3574.79 2.52402Z" fill="#00B0E3"/>
<path d="M3578.54 30.5733L3559.58 2.57616L3563.74 2.56057L3580.92 27.8516L3578.54 30.5733Z" fill="#00B0E3"/>
<path d="M3575.82 36.1209L3552.98 2.59923L3557.11 2.58374L3577.95 33.0334L3575.82 36.1209Z" fill="#00B0E3"/>
<path d="M3573.94 47.8686L3546.4 6.8465L3548.33 3.76902L3577.99 47.8534L3573.94 47.8686Z" fill="#EB1947"/>
<path d="M3568.17 47.8888L3543.84 12.1489L3545.64 8.84155L3572.2 47.8737L3568.17 47.8888Z" fill="#EB1947"/>
<path d="M3561.22 47.8773L3549.65 30.9344L3538.32 47.996L3534.41 48.0107L3549.63 24.7115L3565.28 47.895L3561.22 47.8773Z" fill="#EB1947"/>
<path d="M3542.33 47.9852L3550.05 36.304L3557.92 47.9258L3542.33 47.9852Z" fill="#EB1947"/>
<path d="M3545.9 19.9002L3527.12 48.0342L3531.28 48.0186L3548.29 22.604L3545.9 19.9002Z" fill="#EB1947"/>
<path d="M3543.14 14.3634L3520.53 48.0554L3524.65 48.0399L3545.28 17.4396L3543.14 14.3634Z" fill="#EB1947"/>
<path d="M3541.09 3.20449L3513.82 44.4329L3515.77 47.4957L3545.14 3.18923L3541.09 3.20449Z" fill="white"/>
<path d="M3535.16 3.79768L3511.07 39.7196L3512.9 43.018L3539.2 3.78249L3535.16 3.79768Z" fill="white"/>
<path d="M3528.38 3.27883L3516.92 20.3082L3505.48 3.33173L3501.57 3.34639L3516.94 26.5312L3532.43 3.23075L3528.38 3.27883Z" fill="white"/>
<path d="M3509.48 3.31275L3517.28 14.9345L3525.08 3.25328L3509.48 3.31275Z" fill="white"/>
<path d="M3513.24 31.3571L3494.28 3.36462L3498.43 3.34903L3515.61 28.6401L3513.24 31.3571Z" fill="white"/>
<path d="M3510.51 36.9094L3487.68 3.38788L3491.81 3.37241L3512.64 33.8172L3510.51 36.9094Z" fill="white"/>
<path d="M3508 48.0806L3480.46 7.05876L3482.39 3.98128L3512.05 48.0654L3508 48.0806Z" fill="#00B0E3"/>
<path d="M3502.23 48.1009L3477.9 12.3613L3479.71 9.05392L3506.27 48.0857L3502.23 48.1009Z" fill="#00B0E3"/>
<path d="M3495.28 48.0894L3483.71 31.1465L3472.39 48.2081L3468.47 48.2228L3483.69 24.9236L3499.34 48.1071L3495.28 48.0894Z" fill="#00B0E3"/>
<path d="M3476.39 48.1974L3484.11 36.5163L3491.98 48.1379L3476.39 48.1974Z" fill="#00B0E3"/>
<path d="M3479.96 20.1124L3461.19 48.2461L3465.34 48.2305L3482.35 22.8162L3479.96 20.1124Z" fill="#00B0E3"/>
<path d="M3477.2 14.5757L3454.59 48.2676L3458.71 48.2522L3479.34 17.6519L3477.2 14.5757Z" fill="#00B0E3"/>
<path d="M3475.24 2.83812L3447.97 44.0712L3449.93 47.1294L3479.29 2.82286L3475.24 2.83812Z" fill="#EB1947"/>
<path d="M3469.47 2.85663L3445.38 38.7786L3447.21 42.077L3473.51 2.84144L3469.47 2.85663Z" fill="#EB1947"/>
<path d="M3462.53 2.91681L3451.07 19.9461L3439.63 2.96501L3435.71 2.97968L3451.09 26.1643L3466.58 2.86404L3462.53 2.91681Z" fill="#EB1947"/>
<path d="M3443.64 2.94611L3451.43 14.5727L3459.23 2.88666L3443.64 2.94611Z" fill="#EB1947"/>
<path d="M3447.39 30.9955L3428.43 2.99826L3432.59 2.98267L3449.76 28.2738L3447.39 30.9955Z" fill="#EB1947"/>
<path d="M3444.57 36.5431L3421.74 3.02159L3425.87 3.00612L3446.7 33.4556L3444.57 36.5431Z" fill="#EB1947"/>
<path d="M3442.69 47.7172L3415.15 6.6904L3417.08 3.61762L3446.74 47.702L3442.69 47.7172Z" fill="white"/>
<path d="M3436.75 47.1596L3412.43 11.4245L3414.23 8.11242L3440.8 47.1443L3436.75 47.1596Z" fill="white"/>
<path d="M3429.98 47.7209L3418.41 30.7827L3407.08 47.8443L3403.16 47.859L3418.38 24.5598L3434.03 47.7433L3429.98 47.7209Z" fill="white"/>
<path d="M3411.08 47.8337L3418.8 36.1481L3426.67 47.7742L3411.08 47.8337Z" fill="white"/>
<path d="M3414.65 19.7485L3395.88 47.8825L3400.03 47.8669L3417.04 22.4476L3414.65 19.7485Z" fill="white"/>
<path d="M3411.89 14.212L3389.28 47.9038L3393.41 47.8883L3414.04 17.2835L3411.89 14.212Z" fill="white"/>
<path d="M3670.36 2.21035L3643.09 43.4432L3645.05 46.5014L3674.41 2.1951L3670.36 2.21035Z" fill="#EB1947"/>
<path d="M3664.6 2.22871L3640.5 38.1506L3642.33 41.449L3668.63 2.21352L3664.6 2.22871Z" fill="#EB1947"/>
<path d="M3657.65 2.2889L3646.2 19.3182L3634.75 2.3371L3630.84 2.35177L3646.22 25.5365L3661.7 2.23613L3657.65 2.2889Z" fill="#EB1947"/>
<path d="M3638.76 2.31817L3646.55 13.9447L3654.35 2.25872L3638.76 2.31817Z" fill="#EB1947"/>
<path d="M3642.51 30.3674L3623.55 2.37026L3627.71 2.35467L3644.88 27.6457L3642.51 30.3674Z" fill="#EB1947"/>
<path d="M3639.7 35.915L3616.86 2.39366L3620.99 2.37819L3641.82 32.8275L3639.7 35.915Z" fill="#EB1947"/>
<path d="M3637.81 47.0891L3610.27 6.0625L3612.21 2.98974L3641.86 47.0739L3637.81 47.0891Z" fill="white"/>
<path d="M3631.88 46.5317L3607.55 10.7966L3609.36 7.48449L3635.92 46.5165L3631.88 46.5317Z" fill="white"/>
<path d="M3625.1 47.0931L3613.53 30.1549L3602.2 47.2165L3598.28 47.2312L3613.51 23.932L3629.15 47.1155L3625.1 47.0931Z" fill="white"/>
<path d="M3606.2 47.2057L3613.92 35.52L3621.79 47.1462L3606.2 47.2057Z" fill="white"/>
<path d="M3609.77 19.1206L3591 47.2545L3595.16 47.239L3612.16 21.8197L3609.77 19.1206Z" fill="white"/>
<path d="M3607.01 13.5841L3584.4 47.276L3588.53 47.2605L3609.16 16.6556L3607.01 13.5841Z" fill="white"/>
<path d="M2955.9 0.856619L2928.64 42.0898L2930.59 45.148L2959.96 0.841363L2955.9 0.856619Z" fill="#00B0E3"/>
<path d="M2950.5 0.873339L2926.41 36.7952L2928.24 40.0935L2954.54 0.858134L2950.5 0.873339Z" fill="#00B0E3"/>
<path d="M2943.56 0.93374L2932.1 17.9631L2920.66 0.981935L2916.74 0.996605L2932.12 24.1813L2947.61 0.880967L2943.56 0.93374Z" fill="#00B0E3"/>
<path d="M2924.66 0.962831L2932.46 12.5894L2940.25 0.903384L2924.66 0.962831Z" fill="#00B0E3"/>
<path d="M2928.41 29.0119L2909.46 1.01472L2913.61 0.999129L2930.79 26.2902L2928.41 29.0119Z" fill="#00B0E3"/>
<path d="M2925.69 34.5595L2902.86 1.03797L2906.99 1.02249L2927.82 31.472L2925.69 34.5595Z" fill="#00B0E3"/>
<path d="M2923.81 46.3072L2896.27 5.28538L2898.2 2.20792L2927.86 46.292L2923.81 46.3072Z" fill="#EB1947"/>
<path d="M2918.04 46.3276L2893.71 10.5878L2895.51 7.2804L2922.07 46.3124L2918.04 46.3276Z" fill="#EB1947"/>
<path d="M2911.09 46.316L2899.52 29.3731L2888.19 46.4347L2884.28 46.4494L2899.5 23.1502L2915.15 46.3337L2911.09 46.316Z" fill="#EB1947"/>
<path d="M2892.2 46.4238L2899.92 34.7428L2907.79 46.3644L2892.2 46.4238Z" fill="#EB1947"/>
<path d="M2895.77 18.3389L2876.99 46.4729L2881.15 46.4573L2898.16 21.0428L2895.77 18.3389Z" fill="#EB1947"/>
<path d="M2893.01 12.8022L2870.4 46.4941L2874.53 46.4786L2895.15 15.8784L2893.01 12.8022Z" fill="#EB1947"/>
<path d="M2890.96 1.64339L2863.69 42.8715L2865.65 45.9343L2895.01 1.62813L2890.96 1.64339Z" fill="white"/>
<path d="M2885.03 2.23636L2860.94 38.1583L2862.77 41.4567L2889.07 2.22118L2885.03 2.23636Z" fill="white"/>
<path d="M2878.25 1.71765L2866.79 18.7469L2855.35 1.77054L2851.44 1.7852L2866.81 24.9698L2882.31 1.66956L2878.25 1.71765Z" fill="white"/>
<path d="M2859.36 1.75139L2867.15 13.3733L2874.95 1.69193L2859.36 1.75139Z" fill="white"/>
<path d="M2863.11 29.7959L2844.15 1.80333L2848.31 1.78774L2865.49 27.0789L2863.11 29.7959Z" fill="white"/>
<path d="M2860.38 35.3478L2837.55 1.8268L2841.68 1.81127L2862.51 32.2555L2860.38 35.3478Z" fill="white"/>
<path d="M2857.87 46.5194L2830.33 5.49744L2832.27 2.41995L2861.92 46.5042L2857.87 46.5194Z" fill="#00B0E3"/>
<path d="M2852.1 46.5398L2827.77 10.8L2829.58 7.49266L2856.14 46.5246L2852.1 46.5398Z" fill="#00B0E3"/>
<path d="M2845.16 46.5282L2833.58 29.5854L2822.26 46.6469L2818.34 46.6615L2833.56 23.3625L2849.21 46.5459L2845.16 46.5282Z" fill="#00B0E3"/>
<path d="M2826.26 46.6362L2833.98 34.9552L2841.85 46.5767L2826.26 46.6362Z" fill="#00B0E3"/>
<path d="M2829.83 18.5509L2811.06 46.685L2815.21 46.6695L2832.22 21.2547L2829.83 18.5509Z" fill="#00B0E3"/>
<path d="M2827.07 13.0144L2804.46 46.7061L2808.59 46.6906L2829.21 16.0906L2827.07 13.0144Z" fill="#00B0E3"/>
<path d="M2825.11 1.27684L2797.84 42.5099L2799.8 45.5681L2829.16 1.26158L2825.11 1.27684Z" fill="#EB1947"/>
<path d="M2819.35 1.29527L2795.25 37.2173L2797.08 40.5157L2823.38 1.28008L2819.35 1.29527Z" fill="#EB1947"/>
<path d="M2812.4 1.35588L2800.94 18.385L2789.5 1.40407L2785.59 1.41874L2800.97 24.6032L2816.45 1.30311L2812.4 1.35588Z" fill="#EB1947"/>
<path d="M2793.51 1.38479L2801.3 13.0114L2809.1 1.32534L2793.51 1.38479Z" fill="#EB1947"/>
<path d="M2797.26 29.4338L2778.3 1.43667L2782.46 1.42108L2799.63 26.7121L2797.26 29.4338Z" fill="#EB1947"/>
<path d="M2794.44 34.9817L2771.61 1.46019L2775.74 1.44472L2796.57 31.8942L2794.44 34.9817Z" fill="#EB1947"/>
<path d="M2792.56 46.1556L2765.02 5.12902L2766.95 2.05627L2796.61 46.1404L2792.56 46.1556Z" fill="white"/>
<path d="M2786.63 45.5983L2762.3 9.86307L2764.11 6.55099L2790.67 45.5831L2786.63 45.5983Z" fill="white"/>
<path d="M2779.85 46.1597L2768.28 29.2214L2756.95 46.2831L2753.03 46.2977L2768.26 22.9985L2783.9 46.1821L2779.85 46.1597Z" fill="white"/>
<path d="M2760.95 46.2724L2768.67 34.5867L2776.54 46.213L2760.95 46.2724Z" fill="white"/>
<path d="M2764.52 18.1874L2745.75 46.3214L2749.91 46.3059L2766.91 20.8865L2764.52 18.1874Z" fill="white"/>
<path d="M2761.76 12.6506L2739.15 46.3425L2743.28 46.327L2763.91 15.7221L2761.76 12.6506Z" fill="white"/>
<path d="M3151.03 2.41791L3123.76 43.6508L3125.72 46.7089L3155.08 2.40266L3151.03 2.41791Z" fill="#00B0E3"/>
<path d="M3145.62 2.4347L3121.54 38.3566L3123.36 41.6549L3149.66 2.4195L3145.62 2.4347Z" fill="#00B0E3"/>
<path d="M3138.69 2.49484L3127.23 19.5242L3115.78 2.54303L3111.87 2.55771L3127.25 25.7424L3142.74 2.44207L3138.69 2.49484Z" fill="#00B0E3"/>
<path d="M3119.79 2.52402L3127.59 14.1506L3135.38 2.46458L3119.79 2.52402Z" fill="#00B0E3"/>
<path d="M3123.54 30.5733L3104.58 2.57616L3108.74 2.56057L3125.92 27.8516L3123.54 30.5733Z" fill="#00B0E3"/>
<path d="M3120.82 36.1209L3097.98 2.59923L3102.11 2.58374L3122.95 33.0334L3120.82 36.1209Z" fill="#00B0E3"/>
<path d="M3118.94 47.8686L3091.4 6.8465L3093.33 3.76902L3122.99 47.8534L3118.94 47.8686Z" fill="#EB1947"/>
<path d="M3113.17 47.8888L3088.84 12.1489L3090.64 8.84155L3117.2 47.8737L3113.17 47.8888Z" fill="#EB1947"/>
<path d="M3106.22 47.8773L3094.65 30.9344L3083.32 47.996L3079.41 48.0107L3094.63 24.7115L3110.28 47.895L3106.22 47.8773Z" fill="#EB1947"/>
<path d="M3087.33 47.9852L3095.05 36.304L3102.92 47.9258L3087.33 47.9852Z" fill="#EB1947"/>
<path d="M3090.9 19.9002L3072.12 48.0342L3076.28 48.0186L3093.29 22.604L3090.9 19.9002Z" fill="#EB1947"/>
<path d="M3088.14 14.3634L3065.53 48.0554L3069.65 48.0399L3090.28 17.4396L3088.14 14.3634Z" fill="#EB1947"/>
<path d="M3086.09 3.20449L3058.82 44.4329L3060.77 47.4957L3090.14 3.18923L3086.09 3.20449Z" fill="white"/>
<path d="M3080.16 3.79768L3056.07 39.7196L3057.9 43.018L3084.2 3.78249L3080.16 3.79768Z" fill="white"/>
<path d="M3073.38 3.27883L3061.92 20.3082L3050.48 3.33173L3046.57 3.34639L3061.94 26.5312L3077.43 3.23075L3073.38 3.27883Z" fill="white"/>
<path d="M3054.48 3.31275L3062.28 14.9345L3070.08 3.25328L3054.48 3.31275Z" fill="white"/>
<path d="M3058.24 31.3571L3039.28 3.36462L3043.43 3.34903L3060.61 28.6401L3058.24 31.3571Z" fill="white"/>
<path d="M3055.51 36.9094L3032.68 3.38788L3036.81 3.37241L3057.64 33.8172L3055.51 36.9094Z" fill="white"/>
<path d="M3053 48.0806L3025.46 7.05876L3027.39 3.98128L3057.05 48.0654L3053 48.0806Z" fill="#00B0E3"/>
<path d="M3047.23 48.1009L3022.9 12.3613L3024.71 9.05392L3051.27 48.0857L3047.23 48.1009Z" fill="#00B0E3"/>
<path d="M3040.28 48.0894L3028.71 31.1465L3017.39 48.2081L3013.47 48.2228L3028.69 24.9236L3044.34 48.1071L3040.28 48.0894Z" fill="#00B0E3"/>
<path d="M3021.39 48.1974L3029.11 36.5163L3036.98 48.1379L3021.39 48.1974Z" fill="#00B0E3"/>
<path d="M3024.96 20.1124L3006.19 48.2461L3010.34 48.2305L3027.35 22.8162L3024.96 20.1124Z" fill="#00B0E3"/>
<path d="M3022.2 14.5757L2999.59 48.2676L3003.71 48.2522L3024.34 17.6519L3022.2 14.5757Z" fill="#00B0E3"/>
<path d="M3020.24 2.83812L2992.97 44.0712L2994.93 47.1294L3024.29 2.82286L3020.24 2.83812Z" fill="#EB1947"/>
<path d="M3014.47 2.85663L2990.38 38.7786L2992.21 42.077L3018.51 2.84144L3014.47 2.85663Z" fill="#EB1947"/>
<path d="M3007.53 2.91681L2996.07 19.9461L2984.63 2.96501L2980.71 2.97968L2996.09 26.1643L3011.58 2.86404L3007.53 2.91681Z" fill="#EB1947"/>
<path d="M2988.64 2.94611L2996.43 14.5727L3004.23 2.88666L2988.64 2.94611Z" fill="#EB1947"/>
<path d="M2992.39 30.9955L2973.43 2.99826L2977.59 2.98267L2994.76 28.2738L2992.39 30.9955Z" fill="#EB1947"/>
<path d="M2989.57 36.5431L2966.74 3.02159L2970.87 3.00612L2991.7 33.4556L2989.57 36.5431Z" fill="#EB1947"/>
<path d="M2987.69 47.7172L2960.15 6.6904L2962.08 3.61762L2991.74 47.702L2987.69 47.7172Z" fill="white"/>
<path d="M2981.75 47.1596L2957.43 11.4245L2959.23 8.11242L2985.8 47.1443L2981.75 47.1596Z" fill="white"/>
<path d="M2974.98 47.7209L2963.41 30.7827L2952.08 47.8443L2948.16 47.859L2963.38 24.5598L2979.03 47.7433L2974.98 47.7209Z" fill="white"/>
<path d="M2956.08 47.8337L2963.8 36.1481L2971.67 47.7742L2956.08 47.8337Z" fill="white"/>
<path d="M2959.65 19.7485L2940.88 47.8825L2945.03 47.8669L2962.04 22.4476L2959.65 19.7485Z" fill="white"/>
<path d="M2956.89 14.212L2934.28 47.9038L2938.41 47.8883L2959.04 17.2835L2956.89 14.212Z" fill="white"/>
<path d="M3215.36 2.21035L3188.09 43.4432L3190.05 46.5014L3219.41 2.1951L3215.36 2.21035Z" fill="#EB1947"/>
<path d="M3209.59 2.22871L3185.5 38.1506L3187.33 41.449L3213.63 2.21352L3209.59 2.22871Z" fill="#EB1947"/>
<path d="M3202.65 2.2889L3191.2 19.3182L3179.75 2.3371L3175.84 2.35177L3191.22 25.5365L3206.7 2.23613L3202.65 2.2889Z" fill="#EB1947"/>
<path d="M3183.76 2.31817L3191.55 13.9447L3199.35 2.25872L3183.76 2.31817Z" fill="#EB1947"/>
<path d="M3187.51 30.3674L3168.55 2.37026L3172.71 2.35467L3189.88 27.6457L3187.51 30.3674Z" fill="#EB1947"/>
<path d="M3184.7 35.915L3161.86 2.39366L3165.99 2.37819L3186.82 32.8275L3184.7 35.915Z" fill="#EB1947"/>
<path d="M3182.81 47.0891L3155.27 6.0625L3157.2 2.98974L3186.86 47.0739L3182.81 47.0891Z" fill="white"/>
<path d="M3176.88 46.5317L3152.55 10.7966L3154.36 7.48449L3180.92 46.5165L3176.88 46.5317Z" fill="white"/>
<path d="M3170.1 47.0931L3158.53 30.1549L3147.2 47.2165L3143.28 47.2312L3158.51 23.932L3174.15 47.1155L3170.1 47.0931Z" fill="white"/>
<path d="M3151.2 47.2057L3158.92 35.52L3166.79 47.1462L3151.2 47.2057Z" fill="white"/>
<path d="M3154.77 19.1206L3136 47.2545L3140.16 47.239L3157.16 21.8197L3154.77 19.1206Z" fill="white"/>
<path d="M3152.01 13.5841L3129.4 47.276L3133.53 47.2605L3154.16 16.6556L3152.01 13.5841Z" fill="white"/>
<path d="M2500.9 0.856619L2473.64 42.0898L2475.59 45.148L2504.96 0.841363L2500.9 0.856619Z" fill="#00B0E3"/>
<path d="M2495.5 0.873339L2471.41 36.7952L2473.24 40.0935L2499.54 0.858134L2495.5 0.873339Z" fill="#00B0E3"/>
<path d="M2488.56 0.93374L2477.1 17.9631L2465.66 0.981935L2461.74 0.996605L2477.12 24.1813L2492.61 0.880967L2488.56 0.93374Z" fill="#00B0E3"/>
<path d="M2469.66 0.962831L2477.46 12.5894L2485.25 0.903384L2469.66 0.962831Z" fill="#00B0E3"/>
<path d="M2473.41 29.0119L2454.46 1.01472L2458.61 0.999129L2475.79 26.2902L2473.41 29.0119Z" fill="#00B0E3"/>
<path d="M2470.69 34.5595L2447.86 1.03797L2451.99 1.02249L2472.82 31.472L2470.69 34.5595Z" fill="#00B0E3"/>
<path d="M2468.81 46.3072L2441.27 5.28538L2443.2 2.20792L2472.86 46.292L2468.81 46.3072Z" fill="#EB1947"/>
<path d="M2463.04 46.3276L2438.71 10.5878L2440.51 7.2804L2467.07 46.3124L2463.04 46.3276Z" fill="#EB1947"/>
<path d="M2456.09 46.316L2444.52 29.3731L2433.19 46.4347L2429.28 46.4494L2444.5 23.1502L2460.15 46.3337L2456.09 46.316Z" fill="#EB1947"/>
<path d="M2437.2 46.4238L2444.92 34.7428L2452.79 46.3644L2437.2 46.4238Z" fill="#EB1947"/>
<path d="M2440.77 18.3389L2421.99 46.4729L2426.15 46.4573L2443.16 21.0428L2440.77 18.3389Z" fill="#EB1947"/>
<path d="M2438.01 12.8022L2415.4 46.4941L2419.53 46.4786L2440.15 15.8784L2438.01 12.8022Z" fill="#EB1947"/>
<path d="M2435.96 1.64339L2408.69 42.8715L2410.65 45.9343L2440.01 1.62813L2435.96 1.64339Z" fill="white"/>
<path d="M2430.03 2.23636L2405.94 38.1583L2407.77 41.4567L2434.07 2.22118L2430.03 2.23636Z" fill="white"/>
<path d="M2423.25 1.71765L2411.79 18.7469L2400.35 1.77054L2396.44 1.7852L2411.81 24.9698L2427.31 1.66956L2423.25 1.71765Z" fill="white"/>
<path d="M2404.36 1.75139L2412.15 13.3733L2419.95 1.69193L2404.36 1.75139Z" fill="white"/>
<path d="M2408.11 29.7959L2389.15 1.80333L2393.31 1.78774L2410.49 27.0789L2408.11 29.7959Z" fill="white"/>
<path d="M2405.38 35.3478L2382.55 1.8268L2386.68 1.81127L2407.51 32.2555L2405.38 35.3478Z" fill="white"/>
<path d="M2402.87 46.5194L2375.33 5.49744L2377.27 2.41995L2406.92 46.5042L2402.87 46.5194Z" fill="#00B0E3"/>
<path d="M2397.1 46.5398L2372.77 10.8L2374.58 7.49266L2401.14 46.5246L2397.1 46.5398Z" fill="#00B0E3"/>
<path d="M2390.16 46.5282L2378.58 29.5854L2367.26 46.6469L2363.34 46.6615L2378.56 23.3625L2394.21 46.5459L2390.16 46.5282Z" fill="#00B0E3"/>
<path d="M2371.26 46.6362L2378.98 34.9552L2386.85 46.5767L2371.26 46.6362Z" fill="#00B0E3"/>
<path d="M2374.83 18.5509L2356.06 46.685L2360.21 46.6695L2377.22 21.2547L2374.83 18.5509Z" fill="#00B0E3"/>
<path d="M2372.07 13.0144L2349.46 46.7061L2353.59 46.6906L2374.21 16.0906L2372.07 13.0144Z" fill="#00B0E3"/>
<path d="M2370.11 1.27684L2342.84 42.5099L2344.8 45.5681L2374.16 1.26158L2370.11 1.27684Z" fill="#EB1947"/>
<path d="M2364.35 1.29527L2340.25 37.2173L2342.08 40.5157L2368.38 1.28008L2364.35 1.29527Z" fill="#EB1947"/>
<path d="M2357.4 1.35588L2345.94 18.385L2334.5 1.40407L2330.59 1.41874L2345.97 24.6032L2361.45 1.30311L2357.4 1.35588Z" fill="#EB1947"/>
<path d="M2338.51 1.38479L2346.3 13.0114L2354.1 1.32534L2338.51 1.38479Z" fill="#EB1947"/>
<path d="M2342.26 29.4338L2323.3 1.43667L2327.46 1.42108L2344.63 26.7121L2342.26 29.4338Z" fill="#EB1947"/>
<path d="M2339.44 34.9817L2316.61 1.46019L2320.74 1.44472L2341.57 31.8942L2339.44 34.9817Z" fill="#EB1947"/>
<path d="M2337.56 46.1556L2310.02 5.12902L2311.95 2.05627L2341.61 46.1404L2337.56 46.1556Z" fill="white"/>
<path d="M2331.63 45.5983L2307.3 9.86307L2309.11 6.55099L2335.67 45.5831L2331.63 45.5983Z" fill="white"/>
<path d="M2324.85 46.1597L2313.28 29.2214L2301.95 46.2831L2298.03 46.2977L2313.26 22.9985L2328.9 46.1821L2324.85 46.1597Z" fill="white"/>
<path d="M2305.95 46.2724L2313.67 34.5867L2321.54 46.213L2305.95 46.2724Z" fill="white"/>
<path d="M2309.52 18.1874L2290.75 46.3214L2294.91 46.3059L2311.91 20.8865L2309.52 18.1874Z" fill="white"/>
<path d="M2306.76 12.6506L2284.15 46.3425L2288.28 46.327L2308.91 15.7221L2306.76 12.6506Z" fill="white"/>
<path d="M2696.03 2.41791L2668.76 43.6508L2670.72 46.7089L2700.08 2.40266L2696.03 2.41791Z" fill="#00B0E3"/>
<path d="M2690.62 2.4347L2666.54 38.3566L2668.36 41.6549L2694.66 2.4195L2690.62 2.4347Z" fill="#00B0E3"/>
<path d="M2683.69 2.49484L2672.23 19.5242L2660.78 2.54303L2656.87 2.55771L2672.25 25.7424L2687.74 2.44207L2683.69 2.49484Z" fill="#00B0E3"/>
<path d="M2664.79 2.52402L2672.59 14.1506L2680.38 2.46458L2664.79 2.52402Z" fill="#00B0E3"/>
<path d="M2668.54 30.5733L2649.58 2.57616L2653.74 2.56057L2670.92 27.8516L2668.54 30.5733Z" fill="#00B0E3"/>
<path d="M2665.82 36.1209L2642.98 2.59923L2647.11 2.58374L2667.95 33.0334L2665.82 36.1209Z" fill="#00B0E3"/>
<path d="M2663.94 47.8686L2636.4 6.8465L2638.33 3.76902L2667.99 47.8534L2663.94 47.8686Z" fill="#EB1947"/>
<path d="M2658.17 47.8888L2633.84 12.1489L2635.64 8.84155L2662.2 47.8737L2658.17 47.8888Z" fill="#EB1947"/>
<path d="M2651.22 47.8773L2639.65 30.9344L2628.32 47.996L2624.41 48.0107L2639.63 24.7115L2655.28 47.895L2651.22 47.8773Z" fill="#EB1947"/>
<path d="M2632.33 47.9852L2640.05 36.304L2647.92 47.9258L2632.33 47.9852Z" fill="#EB1947"/>
<path d="M2635.9 19.9002L2617.12 48.0342L2621.28 48.0186L2638.29 22.604L2635.9 19.9002Z" fill="#EB1947"/>
<path d="M2633.14 14.3634L2610.53 48.0554L2614.65 48.0399L2635.28 17.4396L2633.14 14.3634Z" fill="#EB1947"/>
<path d="M2631.09 3.20449L2603.82 44.4329L2605.77 47.4957L2635.14 3.18923L2631.09 3.20449Z" fill="white"/>
<path d="M2625.16 3.79768L2601.07 39.7196L2602.9 43.018L2629.2 3.78249L2625.16 3.79768Z" fill="white"/>
<path d="M2618.38 3.27883L2606.92 20.3082L2595.48 3.33173L2591.57 3.34639L2606.94 26.5312L2622.43 3.23075L2618.38 3.27883Z" fill="white"/>
<path d="M2599.48 3.31275L2607.28 14.9345L2615.08 3.25328L2599.48 3.31275Z" fill="white"/>
<path d="M2603.24 31.3571L2584.28 3.36462L2588.43 3.34903L2605.61 28.6401L2603.24 31.3571Z" fill="white"/>
<path d="M2600.51 36.9094L2577.68 3.38788L2581.81 3.37241L2602.64 33.8172L2600.51 36.9094Z" fill="white"/>
<path d="M2598 48.0806L2570.46 7.05876L2572.39 3.98128L2602.05 48.0654L2598 48.0806Z" fill="#00B0E3"/>
<path d="M2592.23 48.1009L2567.9 12.3613L2569.71 9.05392L2596.27 48.0857L2592.23 48.1009Z" fill="#00B0E3"/>
<path d="M2585.28 48.0894L2573.71 31.1465L2562.39 48.2081L2558.47 48.2228L2573.69 24.9236L2589.34 48.1071L2585.28 48.0894Z" fill="#00B0E3"/>
<path d="M2566.39 48.1974L2574.11 36.5163L2581.98 48.1379L2566.39 48.1974Z" fill="#00B0E3"/>
<path d="M2569.96 20.1124L2551.19 48.2461L2555.34 48.2305L2572.35 22.8162L2569.96 20.1124Z" fill="#00B0E3"/>
<path d="M2567.2 14.5757L2544.59 48.2676L2548.71 48.2522L2569.34 17.6519L2567.2 14.5757Z" fill="#00B0E3"/>
<path d="M2565.24 2.83812L2537.97 44.0712L2539.93 47.1294L2569.29 2.82286L2565.24 2.83812Z" fill="#EB1947"/>
<path d="M2559.47 2.85663L2535.38 38.7786L2537.21 42.077L2563.51 2.84144L2559.47 2.85663Z" fill="#EB1947"/>
<path d="M2552.53 2.91681L2541.07 19.9461L2529.63 2.96501L2525.71 2.97968L2541.09 26.1643L2556.58 2.86404L2552.53 2.91681Z" fill="#EB1947"/>
<path d="M2533.64 2.94611L2541.43 14.5727L2549.23 2.88666L2533.64 2.94611Z" fill="#EB1947"/>
<path d="M2537.39 30.9955L2518.43 2.99826L2522.59 2.98267L2539.76 28.2738L2537.39 30.9955Z" fill="#EB1947"/>
<path d="M2534.57 36.5431L2511.74 3.02159L2515.87 3.00612L2536.7 33.4556L2534.57 36.5431Z" fill="#EB1947"/>
<path d="M2532.69 47.7172L2505.15 6.6904L2507.08 3.61762L2536.74 47.702L2532.69 47.7172Z" fill="white"/>
<path d="M2526.75 47.1596L2502.43 11.4245L2504.23 8.11242L2530.8 47.1443L2526.75 47.1596Z" fill="white"/>
<path d="M2519.98 47.7209L2508.41 30.7827L2497.08 47.8443L2493.16 47.859L2508.38 24.5598L2524.03 47.7433L2519.98 47.7209Z" fill="white"/>
<path d="M2501.08 47.8337L2508.8 36.1481L2516.67 47.7742L2501.08 47.8337Z" fill="white"/>
<path d="M2504.65 19.7485L2485.88 47.8825L2490.03 47.8669L2507.04 22.4476L2504.65 19.7485Z" fill="white"/>
<path d="M2501.89 14.212L2479.28 47.9038L2483.41 47.8883L2504.04 17.2835L2501.89 14.212Z" fill="white"/>
<path d="M2760.36 2.21035L2733.09 43.4432L2735.05 46.5014L2764.41 2.1951L2760.36 2.21035Z" fill="#EB1947"/>
<path d="M2754.59 2.22871L2730.5 38.1506L2732.33 41.449L2758.63 2.21352L2754.59 2.22871Z" fill="#EB1947"/>
<path d="M2747.65 2.2889L2736.2 19.3182L2724.75 2.3371L2720.84 2.35177L2736.22 25.5365L2751.7 2.23613L2747.65 2.2889Z" fill="#EB1947"/>
<path d="M2728.76 2.31817L2736.55 13.9447L2744.35 2.25872L2728.76 2.31817Z" fill="#EB1947"/>
<path d="M2732.51 30.3674L2713.55 2.37026L2717.71 2.35467L2734.88 27.6457L2732.51 30.3674Z" fill="#EB1947"/>
<path d="M2729.7 35.915L2706.86 2.39366L2710.99 2.37819L2731.82 32.8275L2729.7 35.915Z" fill="#EB1947"/>
<path d="M2727.81 47.0891L2700.27 6.0625L2702.2 2.98974L2731.86 47.0739L2727.81 47.0891Z" fill="white"/>
<path d="M2721.88 46.5317L2697.55 10.7966L2699.36 7.48449L2725.92 46.5165L2721.88 46.5317Z" fill="white"/>
<path d="M2715.1 47.0931L2703.53 30.1549L2692.2 47.2165L2688.28 47.2312L2703.51 23.932L2719.15 47.1155L2715.1 47.0931Z" fill="white"/>
<path d="M2696.2 47.2057L2703.92 35.52L2711.79 47.1462L2696.2 47.2057Z" fill="white"/>
<path d="M2699.77 19.1206L2681 47.2545L2685.16 47.239L2702.16 21.8197L2699.77 19.1206Z" fill="white"/>
<path d="M2697.01 13.5841L2674.4 47.276L2678.53 47.2605L2699.16 16.6556L2697.01 13.5841Z" fill="white"/>
<path d="M2044.9 0.856619L2017.64 42.0898L2019.59 45.148L2048.96 0.841363L2044.9 0.856619Z" fill="#00B0E3"/>
<path d="M2039.5 0.873339L2015.41 36.7952L2017.24 40.0935L2043.54 0.858134L2039.5 0.873339Z" fill="#00B0E3"/>
<path d="M2032.56 0.93374L2021.1 17.9631L2009.66 0.981935L2005.74 0.996605L2021.12 24.1813L2036.61 0.880967L2032.56 0.93374Z" fill="#00B0E3"/>
<path d="M2013.66 0.962831L2021.46 12.5894L2029.25 0.903384L2013.66 0.962831Z" fill="#00B0E3"/>
<path d="M2017.41 29.0119L1998.46 1.01472L2002.61 0.999129L2019.79 26.2902L2017.41 29.0119Z" fill="#00B0E3"/>
<path d="M2014.69 34.5595L1991.86 1.03797L1995.99 1.02249L2016.82 31.472L2014.69 34.5595Z" fill="#00B0E3"/>
<path d="M2012.81 46.3072L1985.27 5.28538L1987.2 2.20792L2016.86 46.292L2012.81 46.3072Z" fill="#EB1947"/>
<path d="M2007.04 46.3276L1982.71 10.5878L1984.51 7.2804L2011.08 46.3124L2007.04 46.3276Z" fill="#EB1947"/>
<path d="M2000.1 46.316L1988.52 29.3731L1977.19 46.4347L1973.28 46.4494L1988.5 23.1502L2004.15 46.3337L2000.1 46.316Z" fill="#EB1947"/>
<path d="M1981.2 46.4238L1988.92 34.7428L1996.79 46.3644L1981.2 46.4238Z" fill="#EB1947"/>
<path d="M1984.77 18.3389L1965.99 46.4729L1970.15 46.4573L1987.16 21.0428L1984.77 18.3389Z" fill="#EB1947"/>
<path d="M1982.01 12.8022L1959.4 46.4941L1963.53 46.4786L1984.15 15.8784L1982.01 12.8022Z" fill="#EB1947"/>
<path d="M1979.96 1.64339L1952.69 42.8715L1954.65 45.9343L1984.02 1.62813L1979.96 1.64339Z" fill="white"/>
<path d="M1974.03 2.23636L1949.94 38.1583L1951.77 41.4567L1978.07 2.22118L1974.03 2.23636Z" fill="white"/>
<path d="M1967.25 1.71765L1955.79 18.7469L1944.35 1.77054L1940.44 1.7852L1955.81 24.9698L1971.31 1.66956L1967.25 1.71765Z" fill="white"/>
<path d="M1948.36 1.75139L1956.15 13.3733L1963.95 1.69193L1948.36 1.75139Z" fill="white"/>
<path d="M1952.11 29.7959L1933.15 1.80333L1937.31 1.78774L1954.49 27.0789L1952.11 29.7959Z" fill="white"/>
<path d="M1949.39 35.3478L1926.55 1.8268L1930.68 1.81127L1951.51 32.2555L1949.39 35.3478Z" fill="white"/>
<path d="M1946.87 46.5194L1919.33 5.49744L1921.27 2.41995L1950.92 46.5042L1946.87 46.5194Z" fill="#00B0E3"/>
<path d="M1941.1 46.5398L1916.77 10.8L1918.58 7.49266L1945.14 46.5246L1941.1 46.5398Z" fill="#00B0E3"/>
<path d="M1934.16 46.5282L1922.58 29.5854L1911.26 46.6469L1907.34 46.6615L1922.56 23.3625L1938.21 46.5459L1934.16 46.5282Z" fill="#00B0E3"/>
<path d="M1915.26 46.6362L1922.98 34.9552L1930.85 46.5767L1915.26 46.6362Z" fill="#00B0E3"/>
<path d="M1918.83 18.5509L1900.06 46.685L1904.21 46.6695L1921.22 21.2547L1918.83 18.5509Z" fill="#00B0E3"/>
<path d="M1916.07 13.0144L1893.46 46.7061L1897.59 46.6906L1918.21 16.0906L1916.07 13.0144Z" fill="#00B0E3"/>
<path d="M1914.11 1.27684L1886.84 42.5099L1888.8 45.5681L1918.16 1.26158L1914.11 1.27684Z" fill="#EB1947"/>
<path d="M1908.35 1.29527L1884.25 37.2173L1886.08 40.5157L1912.38 1.28008L1908.35 1.29527Z" fill="#EB1947"/>
<path d="M1901.4 1.35588L1889.94 18.385L1878.5 1.40407L1874.59 1.41874L1889.97 24.6032L1905.45 1.30311L1901.4 1.35588Z" fill="#EB1947"/>
<path d="M1882.51 1.38479L1890.3 13.0114L1898.1 1.32534L1882.51 1.38479Z" fill="#EB1947"/>
<path d="M1886.26 29.4338L1867.3 1.43667L1871.46 1.42108L1888.63 26.7121L1886.26 29.4338Z" fill="#EB1947"/>
<path d="M1883.45 34.9817L1860.61 1.46019L1864.74 1.44472L1885.57 31.8942L1883.45 34.9817Z" fill="#EB1947"/>
<path d="M1881.56 46.1556L1854.02 5.12902L1855.95 2.05627L1885.61 46.1404L1881.56 46.1556Z" fill="white"/>
<path d="M1875.63 45.5983L1851.3 9.86307L1853.11 6.55099L1879.67 45.5831L1875.63 45.5983Z" fill="white"/>
<path d="M1868.85 46.1597L1857.28 29.2214L1845.95 46.2831L1842.03 46.2977L1857.26 22.9985L1872.9 46.1821L1868.85 46.1597Z" fill="white"/>
<path d="M1849.95 46.2724L1857.67 34.5867L1865.54 46.213L1849.95 46.2724Z" fill="white"/>
<path d="M1853.52 18.1874L1834.75 46.3214L1838.91 46.3059L1855.91 20.8865L1853.52 18.1874Z" fill="white"/>
<path d="M1850.76 12.6506L1828.15 46.3425L1832.28 46.327L1852.91 15.7221L1850.76 12.6506Z" fill="white"/>
<path d="M2240.03 2.41791L2212.76 43.6508L2214.72 46.7089L2244.08 2.40266L2240.03 2.41791Z" fill="#00B0E3"/>
<path d="M2234.62 2.4347L2210.54 38.3566L2212.36 41.6549L2238.66 2.4195L2234.62 2.4347Z" fill="#00B0E3"/>
<path d="M2227.69 2.49484L2216.23 19.5242L2204.78 2.54303L2200.87 2.55771L2216.25 25.7424L2231.74 2.44207L2227.69 2.49484Z" fill="#00B0E3"/>
<path d="M2208.79 2.52402L2216.59 14.1506L2224.38 2.46458L2208.79 2.52402Z" fill="#00B0E3"/>
<path d="M2212.54 30.5733L2193.58 2.57616L2197.74 2.56057L2214.92 27.8516L2212.54 30.5733Z" fill="#00B0E3"/>
<path d="M2209.82 36.1209L2186.98 2.59923L2191.11 2.58374L2211.95 33.0334L2209.82 36.1209Z" fill="#00B0E3"/>
<path d="M2207.94 47.8686L2180.4 6.8465L2182.33 3.76902L2211.99 47.8534L2207.94 47.8686Z" fill="#EB1947"/>
<path d="M2202.17 47.8888L2177.84 12.1489L2179.64 8.84155L2206.2 47.8737L2202.17 47.8888Z" fill="#EB1947"/>
<path d="M2195.22 47.8773L2183.65 30.9344L2172.32 47.996L2168.41 48.0107L2183.63 24.7115L2199.28 47.895L2195.22 47.8773Z" fill="#EB1947"/>
<path d="M2176.33 47.9852L2184.05 36.304L2191.92 47.9258L2176.33 47.9852Z" fill="#EB1947"/>
<path d="M2179.9 19.9002L2161.12 48.0342L2165.28 48.0186L2182.29 22.604L2179.9 19.9002Z" fill="#EB1947"/>
<path d="M2177.14 14.3634L2154.53 48.0554L2158.65 48.0399L2179.28 17.4396L2177.14 14.3634Z" fill="#EB1947"/>
<path d="M2175.09 3.20449L2147.82 44.4329L2149.77 47.4957L2179.14 3.18923L2175.09 3.20449Z" fill="white"/>
<path d="M2169.16 3.79768L2145.07 39.7196L2146.9 43.018L2173.2 3.78249L2169.16 3.79768Z" fill="white"/>
<path d="M2162.38 3.27883L2150.92 20.3082L2139.48 3.33173L2135.57 3.34639L2150.94 26.5312L2166.43 3.23075L2162.38 3.27883Z" fill="white"/>
<path d="M2143.48 3.31275L2151.28 14.9345L2159.08 3.25328L2143.48 3.31275Z" fill="white"/>
<path d="M2147.24 31.3571L2128.28 3.36462L2132.43 3.34903L2149.61 28.6401L2147.24 31.3571Z" fill="white"/>
<path d="M2144.51 36.9094L2121.68 3.38788L2125.81 3.37241L2146.64 33.8172L2144.51 36.9094Z" fill="white"/>
<path d="M2142 48.0806L2114.46 7.05876L2116.39 3.98128L2146.05 48.0654L2142 48.0806Z" fill="#00B0E3"/>
<path d="M2136.23 48.1009L2111.9 12.3613L2113.71 9.05392L2140.27 48.0857L2136.23 48.1009Z" fill="#00B0E3"/>
<path d="M2129.28 48.0894L2117.71 31.1465L2106.39 48.2081L2102.47 48.2228L2117.69 24.9236L2133.34 48.1071L2129.28 48.0894Z" fill="#00B0E3"/>
<path d="M2110.39 48.1974L2118.11 36.5163L2125.98 48.1379L2110.39 48.1974Z" fill="#00B0E3"/>
<path d="M2113.96 20.1124L2095.19 48.2461L2099.34 48.2305L2116.35 22.8162L2113.96 20.1124Z" fill="#00B0E3"/>
<path d="M2111.2 14.5757L2088.59 48.2676L2092.71 48.2522L2113.34 17.6519L2111.2 14.5757Z" fill="#00B0E3"/>
<path d="M2109.24 2.83812L2081.97 44.0712L2083.93 47.1294L2113.29 2.82286L2109.24 2.83812Z" fill="#EB1947"/>
<path d="M2103.47 2.85663L2079.38 38.7786L2081.21 42.077L2107.51 2.84144L2103.47 2.85663Z" fill="#EB1947"/>
<path d="M2096.53 2.91681L2085.07 19.9461L2073.63 2.96501L2069.71 2.97968L2085.09 26.1643L2100.58 2.86404L2096.53 2.91681Z" fill="#EB1947"/>
<path d="M2077.64 2.94611L2085.43 14.5727L2093.23 2.88666L2077.64 2.94611Z" fill="#EB1947"/>
<path d="M2081.39 30.9955L2062.43 2.99826L2066.59 2.98267L2083.76 28.2738L2081.39 30.9955Z" fill="#EB1947"/>
<path d="M2078.57 36.5431L2055.74 3.02159L2059.87 3.00612L2080.7 33.4556L2078.57 36.5431Z" fill="#EB1947"/>
<path d="M2076.69 47.7172L2049.15 6.6904L2051.08 3.61762L2080.74 47.702L2076.69 47.7172Z" fill="white"/>
<path d="M2070.75 47.1596L2046.43 11.4245L2048.23 8.11242L2074.8 47.1443L2070.75 47.1596Z" fill="white"/>
<path d="M2063.98 47.7209L2052.41 30.7827L2041.08 47.8443L2037.16 47.859L2052.38 24.5598L2068.03 47.7433L2063.98 47.7209Z" fill="white"/>
<path d="M2045.08 47.8337L2052.8 36.1481L2060.67 47.7742L2045.08 47.8337Z" fill="white"/>
<path d="M2048.65 19.7485L2029.88 47.8825L2034.03 47.8669L2051.04 22.4476L2048.65 19.7485Z" fill="white"/>
<path d="M2045.89 14.212L2023.28 47.9038L2027.41 47.8883L2048.04 17.2835L2045.89 14.212Z" fill="white"/>
<path d="M2304.36 2.21035L2277.09 43.4432L2279.05 46.5014L2308.41 2.1951L2304.36 2.21035Z" fill="#EB1947"/>
<path d="M2298.6 2.22871L2274.5 38.1506L2276.33 41.449L2302.63 2.21352L2298.6 2.22871Z" fill="#EB1947"/>
<path d="M2291.65 2.2889L2280.2 19.3182L2268.75 2.3371L2264.84 2.35177L2280.22 25.5365L2295.7 2.23613L2291.65 2.2889Z" fill="#EB1947"/>
<path d="M2272.76 2.31817L2280.55 13.9447L2288.35 2.25872L2272.76 2.31817Z" fill="#EB1947"/>
<path d="M2276.51 30.3674L2257.55 2.37026L2261.71 2.35467L2278.88 27.6457L2276.51 30.3674Z" fill="#EB1947"/>
<path d="M2273.7 35.915L2250.86 2.39366L2254.99 2.37819L2275.82 32.8275L2273.7 35.915Z" fill="#EB1947"/>
<path d="M2271.81 47.0891L2244.27 6.0625L2246.21 2.98974L2275.86 47.0739L2271.81 47.0891Z" fill="white"/>
<path d="M2265.88 46.5317L2241.55 10.7966L2243.36 7.48449L2269.92 46.5165L2265.88 46.5317Z" fill="white"/>
<path d="M2259.1 47.0931L2247.53 30.1549L2236.2 47.2165L2232.28 47.2312L2247.51 23.932L2263.15 47.1155L2259.1 47.0931Z" fill="white"/>
<path d="M2240.2 47.2057L2247.92 35.52L2255.79 47.1462L2240.2 47.2057Z" fill="white"/>
<path d="M2243.77 19.1206L2225 47.2545L2229.16 47.239L2246.16 21.8197L2243.77 19.1206Z" fill="white"/>
<path d="M2241.01 13.5841L2218.4 47.276L2222.53 47.2605L2243.16 16.6556L2241.01 13.5841Z" fill="white"/>
<path d="M2044.9 0.856619L2017.64 42.0898L2019.59 45.148L2048.96 0.841363L2044.9 0.856619Z" fill="#00B0E3"/>
<path d="M2039.5 0.873339L2015.41 36.7952L2017.24 40.0935L2043.54 0.858134L2039.5 0.873339Z" fill="#00B0E3"/>
<path d="M2032.56 0.93374L2021.1 17.9631L2009.66 0.981935L2005.74 0.996605L2021.12 24.1813L2036.61 0.880967L2032.56 0.93374Z" fill="#00B0E3"/>
<path d="M2013.66 0.962831L2021.46 12.5894L2029.25 0.903384L2013.66 0.962831Z" fill="#00B0E3"/>
<path d="M2017.41 29.0119L1998.46 1.01472L2002.61 0.999129L2019.79 26.2902L2017.41 29.0119Z" fill="#00B0E3"/>
<path d="M2014.69 34.5595L1991.86 1.03797L1995.99 1.02249L2016.82 31.472L2014.69 34.5595Z" fill="#00B0E3"/>
<path d="M2012.81 46.3072L1985.27 5.28538L1987.2 2.20792L2016.86 46.292L2012.81 46.3072Z" fill="#EB1947"/>
<path d="M2007.04 46.3276L1982.71 10.5878L1984.51 7.2804L2011.08 46.3124L2007.04 46.3276Z" fill="#EB1947"/>
<path d="M2000.1 46.316L1988.52 29.3731L1977.19 46.4347L1973.28 46.4494L1988.5 23.1502L2004.15 46.3337L2000.1 46.316Z" fill="#EB1947"/>
<path d="M1981.2 46.4238L1988.92 34.7428L1996.79 46.3644L1981.2 46.4238Z" fill="#EB1947"/>
<path d="M1984.77 18.3389L1965.99 46.4729L1970.15 46.4573L1987.16 21.0428L1984.77 18.3389Z" fill="#EB1947"/>
<path d="M1982.01 12.8022L1959.4 46.4941L1963.53 46.4786L1984.15 15.8784L1982.01 12.8022Z" fill="#EB1947"/>
<path d="M1979.96 1.64339L1952.69 42.8715L1954.65 45.9343L1984.02 1.62813L1979.96 1.64339Z" fill="white"/>
<path d="M1974.03 2.23636L1949.94 38.1583L1951.77 41.4567L1978.07 2.22118L1974.03 2.23636Z" fill="white"/>
<path d="M1967.25 1.71765L1955.79 18.7469L1944.35 1.77054L1940.44 1.7852L1955.81 24.9698L1971.31 1.66956L1967.25 1.71765Z" fill="white"/>
<path d="M1948.36 1.75139L1956.15 13.3733L1963.95 1.69193L1948.36 1.75139Z" fill="white"/>
<path d="M1952.11 29.7959L1933.15 1.80333L1937.31 1.78774L1954.49 27.0789L1952.11 29.7959Z" fill="white"/>
<path d="M1949.39 35.3478L1926.55 1.8268L1930.68 1.81127L1951.51 32.2555L1949.39 35.3478Z" fill="white"/>
<path d="M1946.87 46.5194L1919.33 5.49744L1921.27 2.41995L1950.92 46.5042L1946.87 46.5194Z" fill="#00B0E3"/>
<path d="M1941.1 46.5398L1916.77 10.8L1918.58 7.49266L1945.14 46.5246L1941.1 46.5398Z" fill="#00B0E3"/>
<path d="M1934.16 46.5282L1922.58 29.5854L1911.26 46.6469L1907.34 46.6615L1922.56 23.3625L1938.21 46.5459L1934.16 46.5282Z" fill="#00B0E3"/>
<path d="M1915.26 46.6362L1922.98 34.9552L1930.85 46.5767L1915.26 46.6362Z" fill="#00B0E3"/>
<path d="M1918.83 18.5509L1900.06 46.685L1904.21 46.6695L1921.22 21.2547L1918.83 18.5509Z" fill="#00B0E3"/>
<path d="M1916.07 13.0144L1893.46 46.7061L1897.59 46.6906L1918.21 16.0906L1916.07 13.0144Z" fill="#00B0E3"/>
<path d="M1914.11 1.27684L1886.84 42.5099L1888.8 45.5681L1918.16 1.26158L1914.11 1.27684Z" fill="#EB1947"/>
<path d="M1908.35 1.29527L1884.25 37.2173L1886.08 40.5157L1912.38 1.28008L1908.35 1.29527Z" fill="#EB1947"/>
<path d="M1901.4 1.35588L1889.94 18.385L1878.5 1.40407L1874.59 1.41874L1889.97 24.6032L1905.45 1.30311L1901.4 1.35588Z" fill="#EB1947"/>
<path d="M1882.51 1.38479L1890.3 13.0114L1898.1 1.32534L1882.51 1.38479Z" fill="#EB1947"/>
<path d="M1886.26 29.4338L1867.3 1.43667L1871.46 1.42108L1888.63 26.7121L1886.26 29.4338Z" fill="#EB1947"/>
<path d="M1883.45 34.9817L1860.61 1.46019L1864.74 1.44472L1885.57 31.8942L1883.45 34.9817Z" fill="#EB1947"/>
<path d="M1881.56 46.1556L1854.02 5.12902L1855.95 2.05627L1885.61 46.1404L1881.56 46.1556Z" fill="white"/>
<path d="M1875.63 45.5983L1851.3 9.86307L1853.11 6.55099L1879.67 45.5831L1875.63 45.5983Z" fill="white"/>
<path d="M1868.85 46.1597L1857.28 29.2214L1845.95 46.2831L1842.03 46.2977L1857.26 22.9985L1872.9 46.1821L1868.85 46.1597Z" fill="white"/>
<path d="M1849.95 46.2724L1857.67 34.5867L1865.54 46.213L1849.95 46.2724Z" fill="white"/>
<path d="M1853.52 18.1874L1834.75 46.3214L1838.91 46.3059L1855.91 20.8865L1853.52 18.1874Z" fill="white"/>
<path d="M1850.76 12.6506L1828.15 46.3425L1832.28 46.327L1852.91 15.7221L1850.76 12.6506Z" fill="white"/>
<path d="M2240.03 2.41791L2212.76 43.6508L2214.72 46.7089L2244.08 2.40266L2240.03 2.41791Z" fill="#00B0E3"/>
<path d="M2234.62 2.4347L2210.54 38.3566L2212.36 41.6549L2238.66 2.4195L2234.62 2.4347Z" fill="#00B0E3"/>
<path d="M2227.69 2.49484L2216.23 19.5242L2204.78 2.54303L2200.87 2.55771L2216.25 25.7424L2231.74 2.44207L2227.69 2.49484Z" fill="#00B0E3"/>
<path d="M2208.79 2.52402L2216.59 14.1506L2224.38 2.46458L2208.79 2.52402Z" fill="#00B0E3"/>
<path d="M2212.54 30.5733L2193.58 2.57616L2197.74 2.56057L2214.92 27.8516L2212.54 30.5733Z" fill="#00B0E3"/>
<path d="M2209.82 36.1209L2186.98 2.59923L2191.11 2.58374L2211.95 33.0334L2209.82 36.1209Z" fill="#00B0E3"/>
<path d="M2207.94 47.8686L2180.4 6.8465L2182.33 3.76902L2211.99 47.8534L2207.94 47.8686Z" fill="#EB1947"/>
<path d="M2202.17 47.8888L2177.84 12.1489L2179.64 8.84155L2206.2 47.8737L2202.17 47.8888Z" fill="#EB1947"/>
<path d="M2195.22 47.8773L2183.65 30.9344L2172.32 47.996L2168.41 48.0107L2183.63 24.7115L2199.28 47.895L2195.22 47.8773Z" fill="#EB1947"/>
<path d="M2176.33 47.9852L2184.05 36.304L2191.92 47.9258L2176.33 47.9852Z" fill="#EB1947"/>
<path d="M2179.9 19.9002L2161.12 48.0342L2165.28 48.0186L2182.29 22.604L2179.9 19.9002Z" fill="#EB1947"/>
<path d="M2177.14 14.3634L2154.53 48.0554L2158.65 48.0399L2179.28 17.4396L2177.14 14.3634Z" fill="#EB1947"/>
<path d="M2175.09 3.20449L2147.82 44.4329L2149.77 47.4957L2179.14 3.18923L2175.09 3.20449Z" fill="white"/>
<path d="M2169.16 3.79768L2145.07 39.7196L2146.9 43.018L2173.2 3.78249L2169.16 3.79768Z" fill="white"/>
<path d="M2162.38 3.27883L2150.92 20.3082L2139.48 3.33173L2135.57 3.34639L2150.94 26.5312L2166.43 3.23075L2162.38 3.27883Z" fill="white"/>
<path d="M2143.48 3.31275L2151.28 14.9345L2159.08 3.25328L2143.48 3.31275Z" fill="white"/>
<path d="M2147.24 31.3571L2128.28 3.36462L2132.43 3.34903L2149.61 28.6401L2147.24 31.3571Z" fill="white"/>
<path d="M2144.51 36.9094L2121.68 3.38788L2125.81 3.37241L2146.64 33.8172L2144.51 36.9094Z" fill="white"/>
<path d="M2142 48.0806L2114.46 7.05876L2116.39 3.98128L2146.05 48.0654L2142 48.0806Z" fill="#00B0E3"/>
<path d="M2136.23 48.1009L2111.9 12.3613L2113.71 9.05392L2140.27 48.0857L2136.23 48.1009Z" fill="#00B0E3"/>
<path d="M2129.28 48.0894L2117.71 31.1465L2106.39 48.2081L2102.47 48.2228L2117.69 24.9236L2133.34 48.1071L2129.28 48.0894Z" fill="#00B0E3"/>
<path d="M2110.39 48.1974L2118.11 36.5163L2125.98 48.1379L2110.39 48.1974Z" fill="#00B0E3"/>
<path d="M2113.96 20.1124L2095.19 48.2461L2099.34 48.2305L2116.35 22.8162L2113.96 20.1124Z" fill="#00B0E3"/>
<path d="M2111.2 14.5757L2088.59 48.2676L2092.71 48.2522L2113.34 17.6519L2111.2 14.5757Z" fill="#00B0E3"/>
<path d="M2109.24 2.83812L2081.97 44.0712L2083.93 47.1294L2113.29 2.82286L2109.24 2.83812Z" fill="#EB1947"/>
<path d="M2103.47 2.85663L2079.38 38.7786L2081.21 42.077L2107.51 2.84144L2103.47 2.85663Z" fill="#EB1947"/>
<path d="M2096.53 2.91681L2085.07 19.9461L2073.63 2.96501L2069.71 2.97968L2085.09 26.1643L2100.58 2.86404L2096.53 2.91681Z" fill="#EB1947"/>
<path d="M2077.64 2.94611L2085.43 14.5727L2093.23 2.88666L2077.64 2.94611Z" fill="#EB1947"/>
<path d="M2081.39 30.9955L2062.43 2.99826L2066.59 2.98267L2083.76 28.2738L2081.39 30.9955Z" fill="#EB1947"/>
<path d="M2078.57 36.5431L2055.74 3.02159L2059.87 3.00612L2080.7 33.4556L2078.57 36.5431Z" fill="#EB1947"/>
<path d="M2076.69 47.7172L2049.15 6.6904L2051.08 3.61762L2080.74 47.702L2076.69 47.7172Z" fill="white"/>
<path d="M2070.75 47.1596L2046.43 11.4245L2048.23 8.11242L2074.8 47.1443L2070.75 47.1596Z" fill="white"/>
<path d="M2063.98 47.7209L2052.41 30.7827L2041.08 47.8443L2037.16 47.859L2052.38 24.5598L2068.03 47.7433L2063.98 47.7209Z" fill="white"/>
<path d="M2045.08 47.8337L2052.8 36.1481L2060.67 47.7742L2045.08 47.8337Z" fill="white"/>
<path d="M2048.65 19.7485L2029.88 47.8825L2034.03 47.8669L2051.04 22.4476L2048.65 19.7485Z" fill="white"/>
<path d="M2045.89 14.212L2023.28 47.9038L2027.41 47.8883L2048.04 17.2835L2045.89 14.212Z" fill="white"/>
<path d="M2304.36 2.21035L2277.09 43.4432L2279.05 46.5014L2308.41 2.1951L2304.36 2.21035Z" fill="#EB1947"/>
<path d="M2298.6 2.22871L2274.5 38.1506L2276.33 41.449L2302.63 2.21352L2298.6 2.22871Z" fill="#EB1947"/>
<path d="M2291.65 2.2889L2280.2 19.3182L2268.75 2.3371L2264.84 2.35177L2280.22 25.5365L2295.7 2.23613L2291.65 2.2889Z" fill="#EB1947"/>
<path d="M2272.76 2.31817L2280.55 13.9447L2288.35 2.25872L2272.76 2.31817Z" fill="#EB1947"/>
<path d="M2276.51 30.3674L2257.55 2.37026L2261.71 2.35467L2278.88 27.6457L2276.51 30.3674Z" fill="#EB1947"/>
<path d="M2273.7 35.915L2250.86 2.39366L2254.99 2.37819L2275.82 32.8275L2273.7 35.915Z" fill="#EB1947"/>
<path d="M2271.81 47.0891L2244.27 6.0625L2246.21 2.98974L2275.86 47.0739L2271.81 47.0891Z" fill="white"/>
<path d="M2265.88 46.5317L2241.55 10.7966L2243.36 7.48449L2269.92 46.5165L2265.88 46.5317Z" fill="white"/>
<path d="M2259.1 47.0931L2247.53 30.1549L2236.2 47.2165L2232.28 47.2312L2247.51 23.932L2263.15 47.1155L2259.1 47.0931Z" fill="white"/>
<path d="M2240.2 47.2057L2247.92 35.52L2255.79 47.1462L2240.2 47.2057Z" fill="white"/>
<path d="M2243.77 19.1206L2225 47.2545L2229.16 47.239L2246.16 21.8197L2243.77 19.1206Z" fill="white"/>
<path d="M2241.01 13.5841L2218.4 47.276L2222.53 47.2605L2243.16 16.6556L2241.01 13.5841Z" fill="white"/>
<path d="M1581.9 0.856619L1554.64 42.0898L1556.59 45.148L1585.96 0.841363L1581.9 0.856619Z" fill="#00B0E3"/>
<path d="M1576.5 0.873339L1552.41 36.7952L1554.24 40.0935L1580.54 0.858134L1576.5 0.873339Z" fill="#00B0E3"/>
<path d="M1569.56 0.93374L1558.1 17.9631L1546.66 0.981935L1542.74 0.996605L1558.12 24.1813L1573.61 0.880967L1569.56 0.93374Z" fill="#00B0E3"/>
<path d="M1550.66 0.962831L1558.46 12.5894L1566.25 0.903384L1550.66 0.962831Z" fill="#00B0E3"/>
<path d="M1554.41 29.0119L1535.46 1.01472L1539.61 0.999129L1556.79 26.2902L1554.41 29.0119Z" fill="#00B0E3"/>
<path d="M1551.69 34.5595L1528.86 1.03797L1532.99 1.02249L1553.82 31.472L1551.69 34.5595Z" fill="#00B0E3"/>
<path d="M1549.81 46.3072L1522.27 5.28538L1524.2 2.20792L1553.86 46.292L1549.81 46.3072Z" fill="#EB1947"/>
<path d="M1544.04 46.3276L1519.71 10.5878L1521.51 7.2804L1548.08 46.3124L1544.04 46.3276Z" fill="#EB1947"/>
<path d="M1537.1 46.316L1525.52 29.3731L1514.19 46.4347L1510.28 46.4494L1525.5 23.1502L1541.15 46.3337L1537.1 46.316Z" fill="#EB1947"/>
<path d="M1518.2 46.4238L1525.92 34.7428L1533.79 46.3644L1518.2 46.4238Z" fill="#EB1947"/>
<path d="M1521.77 18.3389L1502.99 46.4729L1507.15 46.4573L1524.16 21.0428L1521.77 18.3389Z" fill="#EB1947"/>
<path d="M1519.01 12.8022L1496.4 46.4941L1500.53 46.4786L1521.15 15.8784L1519.01 12.8022Z" fill="#EB1947"/>
<path d="M1516.96 1.64339L1489.69 42.8715L1491.65 45.9343L1521.02 1.62813L1516.96 1.64339Z" fill="white"/>
<path d="M1511.03 2.23636L1486.94 38.1583L1488.77 41.4567L1515.07 2.22118L1511.03 2.23636Z" fill="white"/>
<path d="M1504.25 1.71765L1492.79 18.7469L1481.35 1.77054L1477.44 1.7852L1492.81 24.9698L1508.31 1.66956L1504.25 1.71765Z" fill="white"/>
<path d="M1485.36 1.75139L1493.15 13.3733L1500.95 1.69193L1485.36 1.75139Z" fill="white"/>
<path d="M1489.11 29.7959L1470.15 1.80333L1474.31 1.78774L1491.49 27.0789L1489.11 29.7959Z" fill="white"/>
<path d="M1486.39 35.3478L1463.55 1.8268L1467.68 1.81127L1488.51 32.2555L1486.39 35.3478Z" fill="white"/>
<path d="M1483.87 46.5194L1456.33 5.49744L1458.27 2.41995L1487.92 46.5042L1483.87 46.5194Z" fill="#00B0E3"/>
<path d="M1478.1 46.5398L1453.77 10.8L1455.58 7.49266L1482.14 46.5246L1478.1 46.5398Z" fill="#00B0E3"/>
<path d="M1471.16 46.5282L1459.58 29.5854L1448.26 46.6469L1444.34 46.6615L1459.56 23.3625L1475.21 46.5459L1471.16 46.5282Z" fill="#00B0E3"/>
<path d="M1452.26 46.6362L1459.98 34.9552L1467.85 46.5767L1452.26 46.6362Z" fill="#00B0E3"/>
<path d="M1455.83 18.5509L1437.06 46.685L1441.21 46.6695L1458.22 21.2547L1455.83 18.5509Z" fill="#00B0E3"/>
<path d="M1453.07 13.0144L1430.46 46.7061L1434.59 46.6906L1455.21 16.0906L1453.07 13.0144Z" fill="#00B0E3"/>
<path d="M1451.11 1.27684L1423.84 42.5099L1425.8 45.5681L1455.16 1.26158L1451.11 1.27684Z" fill="#EB1947"/>
<path d="M1445.35 1.29527L1421.25 37.2173L1423.08 40.5157L1449.38 1.28008L1445.35 1.29527Z" fill="#EB1947"/>
<path d="M1438.4 1.35588L1426.94 18.385L1415.5 1.40407L1411.59 1.41874L1426.97 24.6032L1442.45 1.30311L1438.4 1.35588Z" fill="#EB1947"/>
<path d="M1419.51 1.38479L1427.3 13.0114L1435.1 1.32534L1419.51 1.38479Z" fill="#EB1947"/>
<path d="M1423.26 29.4338L1404.3 1.43667L1408.46 1.42108L1425.63 26.7121L1423.26 29.4338Z" fill="#EB1947"/>
<path d="M1420.45 34.9817L1397.61 1.46019L1401.74 1.44472L1422.57 31.8942L1420.45 34.9817Z" fill="#EB1947"/>
<path d="M1418.56 46.1556L1391.02 5.12902L1392.95 2.05627L1422.61 46.1404L1418.56 46.1556Z" fill="white"/>
<path d="M1412.63 45.5983L1388.3 9.86307L1390.11 6.55099L1416.67 45.5831L1412.63 45.5983Z" fill="white"/>
<path d="M1405.85 46.1597L1394.28 29.2214L1382.95 46.2831L1379.03 46.2977L1394.26 22.9985L1409.9 46.1821L1405.85 46.1597Z" fill="white"/>
<path d="M1386.95 46.2724L1394.67 34.5867L1402.54 46.213L1386.95 46.2724Z" fill="white"/>
<path d="M1390.52 18.1874L1371.75 46.3214L1375.91 46.3059L1392.91 20.8865L1390.52 18.1874Z" fill="white"/>
<path d="M1387.76 12.6506L1365.15 46.3425L1369.28 46.327L1389.91 15.7221L1387.76 12.6506Z" fill="white"/>
<path d="M1777.03 2.41791L1749.76 43.6508L1751.72 46.7089L1781.08 2.40266L1777.03 2.41791Z" fill="#00B0E3"/>
<path d="M1771.62 2.4347L1747.54 38.3566L1749.36 41.6549L1775.66 2.4195L1771.62 2.4347Z" fill="#00B0E3"/>
<path d="M1764.69 2.49484L1753.23 19.5242L1741.78 2.54303L1737.87 2.55771L1753.25 25.7424L1768.74 2.44207L1764.69 2.49484Z" fill="#00B0E3"/>
<path d="M1745.79 2.52402L1753.59 14.1506L1761.38 2.46458L1745.79 2.52402Z" fill="#00B0E3"/>
<path d="M1749.54 30.5733L1730.58 2.57616L1734.74 2.56057L1751.92 27.8516L1749.54 30.5733Z" fill="#00B0E3"/>
<path d="M1746.82 36.1209L1723.98 2.59923L1728.11 2.58374L1748.95 33.0334L1746.82 36.1209Z" fill="#00B0E3"/>
<path d="M1744.94 47.8686L1717.4 6.8465L1719.33 3.76902L1748.99 47.8534L1744.94 47.8686Z" fill="#EB1947"/>
<path d="M1739.17 47.8888L1714.84 12.1489L1716.64 8.84155L1743.2 47.8737L1739.17 47.8888Z" fill="#EB1947"/>
<path d="M1732.22 47.8773L1720.65 30.9344L1709.32 47.996L1705.41 48.0107L1720.63 24.7115L1736.28 47.895L1732.22 47.8773Z" fill="#EB1947"/>
<path d="M1713.33 47.9852L1721.05 36.304L1728.92 47.9258L1713.33 47.9852Z" fill="#EB1947"/>
<path d="M1716.9 19.9002L1698.12 48.0342L1702.28 48.0186L1719.29 22.604L1716.9 19.9002Z" fill="#EB1947"/>
<path d="M1714.14 14.3634L1691.53 48.0554L1695.65 48.0399L1716.28 17.4396L1714.14 14.3634Z" fill="#EB1947"/>
<path d="M1712.09 3.20449L1684.82 44.4329L1686.77 47.4957L1716.14 3.18923L1712.09 3.20449Z" fill="white"/>
<path d="M1706.16 3.79768L1682.07 39.7196L1683.9 43.018L1710.2 3.78249L1706.16 3.79768Z" fill="white"/>
<path d="M1699.38 3.27883L1687.92 20.3082L1676.48 3.33173L1672.57 3.34639L1687.94 26.5312L1703.43 3.23075L1699.38 3.27883Z" fill="white"/>
<path d="M1680.48 3.31275L1688.28 14.9345L1696.08 3.25328L1680.48 3.31275Z" fill="white"/>
<path d="M1684.24 31.3571L1665.28 3.36462L1669.43 3.34903L1686.61 28.6401L1684.24 31.3571Z" fill="white"/>
<path d="M1681.51 36.9094L1658.68 3.38788L1662.81 3.37241L1683.64 33.8172L1681.51 36.9094Z" fill="white"/>
<path d="M1679 48.0806L1651.46 7.05876L1653.39 3.98128L1683.05 48.0654L1679 48.0806Z" fill="#00B0E3"/>
<path d="M1673.23 48.1009L1648.9 12.3613L1650.71 9.05392L1677.27 48.0857L1673.23 48.1009Z" fill="#00B0E3"/>
<path d="M1666.28 48.0894L1654.71 31.1465L1643.39 48.2081L1639.47 48.2228L1654.69 24.9236L1670.34 48.1071L1666.28 48.0894Z" fill="#00B0E3"/>
<path d="M1647.39 48.1974L1655.11 36.5163L1662.98 48.1379L1647.39 48.1974Z" fill="#00B0E3"/>
<path d="M1650.96 20.1124L1632.19 48.2461L1636.34 48.2305L1653.35 22.8162L1650.96 20.1124Z" fill="#00B0E3"/>
<path d="M1648.2 14.5757L1625.59 48.2676L1629.71 48.2522L1650.34 17.6519L1648.2 14.5757Z" fill="#00B0E3"/>
<path d="M1646.24 2.83812L1618.97 44.0712L1620.93 47.1294L1650.29 2.82286L1646.24 2.83812Z" fill="#EB1947"/>
<path d="M1640.47 2.85663L1616.38 38.7786L1618.21 42.077L1644.51 2.84144L1640.47 2.85663Z" fill="#EB1947"/>
<path d="M1633.53 2.91681L1622.07 19.9461L1610.63 2.96501L1606.71 2.97968L1622.09 26.1643L1637.58 2.86404L1633.53 2.91681Z" fill="#EB1947"/>
<path d="M1614.64 2.94611L1622.43 14.5727L1630.23 2.88666L1614.64 2.94611Z" fill="#EB1947"/>
<path d="M1618.39 30.9955L1599.43 2.99826L1603.59 2.98267L1620.76 28.2738L1618.39 30.9955Z" fill="#EB1947"/>
<path d="M1615.57 36.5431L1592.74 3.02159L1596.87 3.00612L1617.7 33.4556L1615.57 36.5431Z" fill="#EB1947"/>
<path d="M1613.69 47.7172L1586.15 6.6904L1588.08 3.61762L1617.74 47.702L1613.69 47.7172Z" fill="white"/>
<path d="M1607.75 47.1596L1583.43 11.4245L1585.23 8.11242L1611.8 47.1443L1607.75 47.1596Z" fill="white"/>
<path d="M1600.98 47.7209L1589.41 30.7827L1578.08 47.8443L1574.16 47.859L1589.38 24.5598L1605.03 47.7433L1600.98 47.7209Z" fill="white"/>
<path d="M1582.08 47.8337L1589.8 36.1481L1597.67 47.7742L1582.08 47.8337Z" fill="white"/>
<path d="M1585.65 19.7485L1566.88 47.8825L1571.03 47.8669L1588.04 22.4476L1585.65 19.7485Z" fill="white"/>
<path d="M1582.89 14.212L1560.28 47.9038L1564.41 47.8883L1585.04 17.2835L1582.89 14.212Z" fill="white"/>
<path d="M1841.36 2.21035L1814.09 43.4432L1816.05 46.5014L1845.41 2.1951L1841.36 2.21035Z" fill="#EB1947"/>
<path d="M1835.6 2.22871L1811.5 38.1506L1813.33 41.449L1839.63 2.21352L1835.6 2.22871Z" fill="#EB1947"/>
<path d="M1828.65 2.2889L1817.2 19.3182L1805.75 2.3371L1801.84 2.35177L1817.22 25.5365L1832.7 2.23613L1828.65 2.2889Z" fill="#EB1947"/>
<path d="M1809.76 2.31817L1817.55 13.9447L1825.35 2.25872L1809.76 2.31817Z" fill="#EB1947"/>
<path d="M1813.51 30.3674L1794.55 2.37026L1798.71 2.35467L1815.88 27.6457L1813.51 30.3674Z" fill="#EB1947"/>
<path d="M1810.7 35.915L1787.86 2.39366L1791.99 2.37819L1812.82 32.8275L1810.7 35.915Z" fill="#EB1947"/>
<path d="M1808.81 47.0891L1781.27 6.0625L1783.21 2.98974L1812.86 47.0739L1808.81 47.0891Z" fill="white"/>
<path d="M1802.88 46.5317L1778.55 10.7966L1780.36 7.48449L1806.92 46.5165L1802.88 46.5317Z" fill="white"/>
<path d="M1796.1 47.0931L1784.53 30.1549L1773.2 47.2165L1769.28 47.2312L1784.51 23.932L1800.15 47.1155L1796.1 47.0931Z" fill="white"/>
<path d="M1777.2 47.2057L1784.92 35.52L1792.79 47.1462L1777.2 47.2057Z" fill="white"/>
<path d="M1780.77 19.1206L1762 47.2545L1766.16 47.239L1783.16 21.8197L1780.77 19.1206Z" fill="white"/>
<path d="M1778.01 13.5841L1755.4 47.276L1759.53 47.2605L1780.16 16.6556L1778.01 13.5841Z" fill="white"/>
<path d="M1126.9 0.856619L1099.64 42.0898L1101.59 45.148L1130.96 0.841363L1126.9 0.856619Z" fill="#00B0E3"/>
<path d="M1121.5 0.873339L1097.41 36.7952L1099.24 40.0935L1125.54 0.858134L1121.5 0.873339Z" fill="#00B0E3"/>
<path d="M1114.56 0.93374L1103.1 17.9631L1091.66 0.981935L1087.74 0.996605L1103.12 24.1813L1118.61 0.880967L1114.56 0.93374Z" fill="#00B0E3"/>
<path d="M1095.66 0.962831L1103.46 12.5894L1111.25 0.903384L1095.66 0.962831Z" fill="#00B0E3"/>
<path d="M1099.41 29.0119L1080.46 1.01472L1084.61 0.999129L1101.79 26.2902L1099.41 29.0119Z" fill="#00B0E3"/>
<path d="M1096.69 34.5595L1073.86 1.03797L1077.99 1.02249L1098.82 31.472L1096.69 34.5595Z" fill="#00B0E3"/>
<path d="M1094.81 46.3072L1067.27 5.28538L1069.2 2.20792L1098.86 46.292L1094.81 46.3072Z" fill="#EB1947"/>
<path d="M1089.04 46.3276L1064.71 10.5878L1066.51 7.2804L1093.08 46.3124L1089.04 46.3276Z" fill="#EB1947"/>
<path d="M1082.1 46.316L1070.52 29.3731L1059.19 46.4347L1055.28 46.4494L1070.5 23.1502L1086.15 46.3337L1082.1 46.316Z" fill="#EB1947"/>
<path d="M1063.2 46.4238L1070.92 34.7428L1078.79 46.3644L1063.2 46.4238Z" fill="#EB1947"/>
<path d="M1066.77 18.3389L1047.99 46.4729L1052.15 46.4573L1069.16 21.0428L1066.77 18.3389Z" fill="#EB1947"/>
<path d="M1064.01 12.8022L1041.4 46.4941L1045.53 46.4786L1066.15 15.8784L1064.01 12.8022Z" fill="#EB1947"/>
<path d="M1061.96 1.64339L1034.69 42.8715L1036.65 45.9343L1066.02 1.62813L1061.96 1.64339Z" fill="white"/>
<path d="M1056.03 2.23636L1031.94 38.1583L1033.77 41.4567L1060.07 2.22118L1056.03 2.23636Z" fill="white"/>
<path d="M1049.25 1.71765L1037.79 18.7469L1026.35 1.77054L1022.44 1.7852L1037.81 24.9698L1053.31 1.66956L1049.25 1.71765Z" fill="white"/>
<path d="M1030.36 1.75139L1038.15 13.3733L1045.95 1.69193L1030.36 1.75139Z" fill="white"/>
<path d="M1034.11 29.7959L1015.15 1.80333L1019.31 1.78774L1036.49 27.0789L1034.11 29.7959Z" fill="white"/>
<path d="M1031.38 35.3478L1008.55 1.8268L1012.68 1.81127L1033.51 32.2555L1031.38 35.3478Z" fill="white"/>
<path d="M1028.87 46.5194L1001.33 5.49744L1003.27 2.41995L1032.92 46.5042L1028.87 46.5194Z" fill="#00B0E3"/>
<path d="M1023.1 46.5398L998.774 10.8L1000.58 7.49266L1027.14 46.5246L1023.1 46.5398Z" fill="#00B0E3"/>
<path d="M1016.16 46.5282L1004.58 29.5854L993.258 46.6469L989.342 46.6615L1004.56 23.3625L1020.21 46.5459L1016.16 46.5282Z" fill="#00B0E3"/>
<path d="M997.262 46.6362L1004.98 34.9552L1012.85 46.5767L997.262 46.6362Z" fill="#00B0E3"/>
<path d="M1000.83 18.5509L982.059 46.685L986.212 46.6695L1003.22 21.2547L1000.83 18.5509Z" fill="#00B0E3"/>
<path d="M998.069 13.0144L975.46 46.7061L979.586 46.6906L1000.21 16.0906L998.069 13.0144Z" fill="#00B0E3"/>
<path d="M996.109 1.27684L968.842 42.5099L970.799 45.5681L1000.16 1.26158L996.109 1.27684Z" fill="#EB1947"/>
<path d="M990.345 1.29527L966.253 37.2173L968.081 40.5157L994.381 1.28008L990.345 1.29527Z" fill="#EB1947"/>
<path d="M983.404 1.35588L971.945 18.385L960.501 1.40407L956.585 1.41874L971.966 24.6032L987.454 1.30311L983.404 1.35588Z" fill="#EB1947"/>
<path d="M964.508 1.38479L972.302 13.0114L980.096 1.32534L964.508 1.38479Z" fill="#EB1947"/>
<path d="M968.259 29.4338L949.302 1.43667L953.459 1.42108L970.634 26.7121L968.259 29.4338Z" fill="#EB1947"/>
<path d="M965.445 34.9817L942.612 1.46019L946.737 1.44472L967.569 31.8942L965.445 34.9817Z" fill="#EB1947"/>
<path d="M963.559 46.1556L936.023 5.12902L937.954 2.05627L967.613 46.1404L963.559 46.1556Z" fill="white"/>
<path d="M957.627 45.5983L933.3 9.86307L935.106 6.55099L961.667 45.5831L957.627 45.5983Z" fill="white"/>
<path d="M950.849 46.1597L939.276 29.2214L927.947 46.2831L924.031 46.2977L939.256 22.9985L954.904 46.1821L950.849 46.1597Z" fill="white"/>
<path d="M931.951 46.2724L939.669 34.5867L947.539 46.213L931.951 46.2724Z" fill="white"/>
<path d="M935.523 18.1874L916.749 46.3214L920.905 46.3059L937.911 20.8865L935.523 18.1874Z" fill="white"/>
<path d="M932.758 12.6506L910.149 46.3425L914.279 46.327L934.907 15.7221L932.758 12.6506Z" fill="white"/>
<path d="M1322.03 2.41791L1294.76 43.6508L1296.72 46.7089L1326.08 2.40266L1322.03 2.41791Z" fill="#00B0E3"/>
<path d="M1316.62 2.4347L1292.54 38.3566L1294.36 41.6549L1320.66 2.4195L1316.62 2.4347Z" fill="#00B0E3"/>
<path d="M1309.69 2.49484L1298.23 19.5242L1286.78 2.54303L1282.87 2.55771L1298.25 25.7424L1313.74 2.44207L1309.69 2.49484Z" fill="#00B0E3"/>
<path d="M1290.79 2.52402L1298.59 14.1506L1306.38 2.46458L1290.79 2.52402Z" fill="#00B0E3"/>
<path d="M1294.54 30.5733L1275.58 2.57616L1279.74 2.56057L1296.92 27.8516L1294.54 30.5733Z" fill="#00B0E3"/>
<path d="M1291.82 36.1209L1268.98 2.59923L1273.11 2.58374L1293.95 33.0334L1291.82 36.1209Z" fill="#00B0E3"/>
<path d="M1289.94 47.8686L1262.4 6.8465L1264.33 3.76902L1293.99 47.8534L1289.94 47.8686Z" fill="#EB1947"/>
<path d="M1284.17 47.8888L1259.84 12.1489L1261.64 8.84155L1288.2 47.8737L1284.17 47.8888Z" fill="#EB1947"/>
<path d="M1277.22 47.8773L1265.65 30.9344L1254.32 47.996L1250.41 48.0107L1265.63 24.7115L1281.28 47.895L1277.22 47.8773Z" fill="#EB1947"/>
<path d="M1258.33 47.9852L1266.05 36.304L1273.92 47.9258L1258.33 47.9852Z" fill="#EB1947"/>
<path d="M1261.9 19.9002L1243.12 48.0342L1247.28 48.0186L1264.29 22.604L1261.9 19.9002Z" fill="#EB1947"/>
<path d="M1259.14 14.3634L1236.53 48.0554L1240.65 48.0399L1261.28 17.4396L1259.14 14.3634Z" fill="#EB1947"/>
<path d="M1257.09 3.20449L1229.82 44.4329L1231.77 47.4957L1261.14 3.18923L1257.09 3.20449Z" fill="white"/>
<path d="M1251.16 3.79768L1227.07 39.7196L1228.9 43.018L1255.2 3.78249L1251.16 3.79768Z" fill="white"/>
<path d="M1244.38 3.27883L1232.92 20.3082L1221.48 3.33173L1217.57 3.34639L1232.94 26.5312L1248.43 3.23075L1244.38 3.27883Z" fill="white"/>
<path d="M1225.48 3.31275L1233.28 14.9345L1241.08 3.25328L1225.48 3.31275Z" fill="white"/>
<path d="M1229.24 31.3571L1210.28 3.36462L1214.43 3.34903L1231.61 28.6401L1229.24 31.3571Z" fill="white"/>
<path d="M1226.51 36.9094L1203.68 3.38788L1207.81 3.37241L1228.64 33.8172L1226.51 36.9094Z" fill="white"/>
<path d="M1224 48.0806L1196.46 7.05876L1198.39 3.98128L1228.05 48.0654L1224 48.0806Z" fill="#00B0E3"/>
<path d="M1218.23 48.1009L1193.9 12.3613L1195.71 9.05392L1222.27 48.0857L1218.23 48.1009Z" fill="#00B0E3"/>
<path d="M1211.28 48.0894L1199.71 31.1465L1188.39 48.2081L1184.47 48.2228L1199.69 24.9236L1215.34 48.1071L1211.28 48.0894Z" fill="#00B0E3"/>
<path d="M1192.39 48.1974L1200.11 36.5163L1207.98 48.1379L1192.39 48.1974Z" fill="#00B0E3"/>
<path d="M1195.96 20.1124L1177.19 48.2461L1181.34 48.2305L1198.35 22.8162L1195.96 20.1124Z" fill="#00B0E3"/>
<path d="M1193.2 14.5757L1170.59 48.2676L1174.71 48.2522L1195.34 17.6519L1193.2 14.5757Z" fill="#00B0E3"/>
<path d="M1191.24 2.83812L1163.97 44.0712L1165.93 47.1294L1195.29 2.82286L1191.24 2.83812Z" fill="#EB1947"/>
<path d="M1185.47 2.85663L1161.38 38.7786L1163.21 42.077L1189.51 2.84144L1185.47 2.85663Z" fill="#EB1947"/>
<path d="M1178.53 2.91681L1167.07 19.9461L1155.63 2.96501L1151.71 2.97968L1167.09 26.1643L1182.58 2.86404L1178.53 2.91681Z" fill="#EB1947"/>
<path d="M1159.64 2.94611L1167.43 14.5727L1175.23 2.88666L1159.64 2.94611Z" fill="#EB1947"/>
<path d="M1163.39 30.9955L1144.43 2.99826L1148.59 2.98267L1165.76 28.2738L1163.39 30.9955Z" fill="#EB1947"/>
<path d="M1160.57 36.5431L1137.74 3.02159L1141.87 3.00612L1162.7 33.4556L1160.57 36.5431Z" fill="#EB1947"/>
<path d="M1158.69 47.7172L1131.15 6.6904L1133.08 3.61762L1162.74 47.702L1158.69 47.7172Z" fill="white"/>
<path d="M1152.75 47.1596L1128.43 11.4245L1130.23 8.11242L1156.8 47.1443L1152.75 47.1596Z" fill="white"/>
<path d="M1145.98 47.7209L1134.41 30.7827L1123.08 47.8443L1119.16 47.859L1134.38 24.5598L1150.03 47.7433L1145.98 47.7209Z" fill="white"/>
<path d="M1127.08 47.8337L1134.8 36.1481L1142.67 47.7742L1127.08 47.8337Z" fill="white"/>
<path d="M1130.65 19.7485L1111.88 47.8825L1116.03 47.8669L1133.04 22.4476L1130.65 19.7485Z" fill="white"/>
<path d="M1127.89 14.212L1105.28 47.9038L1109.41 47.8883L1130.04 17.2835L1127.89 14.212Z" fill="white"/>
<path d="M1386.36 2.21035L1359.09 43.4432L1361.05 46.5014L1390.41 2.1951L1386.36 2.21035Z" fill="#EB1947"/>
<path d="M1380.6 2.22871L1356.5 38.1506L1358.33 41.449L1384.63 2.21352L1380.6 2.22871Z" fill="#EB1947"/>
<path d="M1373.65 2.2889L1362.2 19.3182L1350.75 2.3371L1346.84 2.35177L1362.22 25.5365L1377.7 2.23613L1373.65 2.2889Z" fill="#EB1947"/>
<path d="M1354.76 2.31817L1362.55 13.9447L1370.35 2.25872L1354.76 2.31817Z" fill="#EB1947"/>
<path d="M1358.51 30.3674L1339.55 2.37026L1343.71 2.35467L1360.88 27.6457L1358.51 30.3674Z" fill="#EB1947"/>
<path d="M1355.7 35.915L1332.86 2.39366L1336.99 2.37819L1357.82 32.8275L1355.7 35.915Z" fill="#EB1947"/>
<path d="M1353.81 47.0891L1326.27 6.0625L1328.21 2.98974L1357.86 47.0739L1353.81 47.0891Z" fill="white"/>
<path d="M1347.88 46.5317L1323.55 10.7966L1325.36 7.48449L1351.92 46.5165L1347.88 46.5317Z" fill="white"/>
<path d="M1341.1 47.0931L1329.53 30.1549L1318.2 47.2165L1314.28 47.2312L1329.51 23.932L1345.15 47.1155L1341.1 47.0931Z" fill="white"/>
<path d="M1322.2 47.2057L1329.92 35.52L1337.79 47.1462L1322.2 47.2057Z" fill="white"/>
<path d="M1325.77 19.1206L1307 47.2545L1311.16 47.239L1328.16 21.8197L1325.77 19.1206Z" fill="white"/>
<path d="M1323.01 13.5841L1300.4 47.276L1304.53 47.2605L1325.16 16.6556L1323.01 13.5841Z" fill="white"/>
<path d="M671.902 0.856619L644.635 42.0898L646.592 45.148L675.956 0.841363L671.902 0.856619Z" fill="#00B0E3"/>
<path d="M666.495 0.873339L642.407 36.7952L644.235 40.0935L670.536 0.858134L666.495 0.873339Z" fill="#00B0E3"/>
<path d="M659.558 0.93374L648.099 17.9631L636.656 0.981935L632.74 0.996605L648.12 24.1813L663.608 0.880967L659.558 0.93374Z" fill="#00B0E3"/>
<path d="M640.663 0.962831L648.458 12.5894L656.251 0.903384L640.663 0.962831Z" fill="#00B0E3"/>
<path d="M644.413 29.0119L625.456 1.01472L629.613 0.999129L646.789 26.2902L644.413 29.0119Z" fill="#00B0E3"/>
<path d="M641.689 34.5595L618.856 1.03797L622.986 1.02249L643.817 31.472L641.689 34.5595Z" fill="#00B0E3"/>
<path d="M639.809 46.3072L612.268 5.28538L614.2 2.20792L643.863 46.292L639.809 46.3072Z" fill="#EB1947"/>
<path d="M634.039 46.3276L609.712 10.5878L611.514 7.2804L638.075 46.3124L634.039 46.3276Z" fill="#EB1947"/>
<path d="M627.095 46.316L615.522 29.3731L604.193 46.4347L600.282 46.4494L615.502 23.1502L631.15 46.3337L627.095 46.316Z" fill="#EB1947"/>
<path d="M608.197 46.4238L615.919 34.7428L623.79 46.3644L608.197 46.4238Z" fill="#EB1947"/>
<path d="M611.768 18.3389L592.994 46.4729L597.151 46.4573L614.162 21.0428L611.768 18.3389Z" fill="#EB1947"/>
<path d="M609.008 12.8022L586.4 46.4941L590.525 46.4786L611.153 15.8784L609.008 12.8022Z" fill="#EB1947"/>
<path d="M606.961 1.64339L579.694 42.8715L581.647 45.9343L611.015 1.62813L606.961 1.64339Z" fill="white"/>
<path d="M601.033 2.23636L576.941 38.1583L578.769 41.4567L605.069 2.22118L601.033 2.23636Z" fill="white"/>
<path d="M594.251 1.71765L582.792 18.7469L571.349 1.77054L567.437 1.7852L582.813 24.9698L598.305 1.66956L594.251 1.71765Z" fill="white"/>
<path d="M575.356 1.75139L583.155 13.3733L590.949 1.69193L575.356 1.75139Z" fill="white"/>
<path d="M579.111 29.7959L560.149 1.80333L564.305 1.78774L581.486 27.0789L579.111 29.7959Z" fill="white"/>
<path d="M576.385 35.3478L553.552 1.8268L557.677 1.81127L578.509 32.2555L576.385 35.3478Z" fill="white"/>
<path d="M573.87 46.5194L546.329 5.49744L548.266 2.41995L577.924 46.5042L573.87 46.5194Z" fill="#00B0E3"/>
<path d="M568.101 46.5398L543.774 10.8L545.58 7.49266L572.141 46.5246L568.101 46.5398Z" fill="#00B0E3"/>
<path d="M561.156 46.5282L549.583 29.5854L538.258 46.6469L534.342 46.6615L549.562 23.3625L565.21 46.5459L561.156 46.5282Z" fill="#00B0E3"/>
<path d="M542.262 46.6362L549.98 34.9552L557.85 46.5767L542.262 46.6362Z" fill="#00B0E3"/>
<path d="M545.829 18.5509L527.059 46.685L531.212 46.6695L548.222 21.2547L545.829 18.5509Z" fill="#00B0E3"/>
<path d="M543.069 13.0144L520.46 46.7061L524.586 46.6906L545.213 16.0906L543.069 13.0144Z" fill="#00B0E3"/>
<path d="M541.109 1.27684L513.842 42.5099L515.799 45.5681L545.163 1.26158L541.109 1.27684Z" fill="#EB1947"/>
<path d="M535.345 1.29527L511.253 37.2173L513.081 40.5157L539.381 1.28008L535.345 1.29527Z" fill="#EB1947"/>
<path d="M528.404 1.35588L516.945 18.385L505.501 1.40407L501.585 1.41874L516.966 24.6032L532.454 1.30311L528.404 1.35588Z" fill="#EB1947"/>
<path d="M509.508 1.38479L517.302 13.0114L525.096 1.32534L509.508 1.38479Z" fill="#EB1947"/>
<path d="M513.259 29.4338L494.302 1.43667L498.459 1.42108L515.634 26.7121L513.259 29.4338Z" fill="#EB1947"/>
<path d="M510.445 34.9817L487.612 1.46019L491.737 1.44472L512.569 31.8942L510.445 34.9817Z" fill="#EB1947"/>
<path d="M508.559 46.1556L481.023 5.12902L482.954 2.05627L512.613 46.1404L508.559 46.1556Z" fill="white"/>
<path d="M502.627 45.5983L478.3 9.86307L480.106 6.55099L506.667 45.5831L502.627 45.5983Z" fill="white"/>
<path d="M495.849 46.1597L484.276 29.2214L472.947 46.2831L469.031 46.2977L484.256 22.9985L499.904 46.1821L495.849 46.1597Z" fill="white"/>
<path d="M476.951 46.2724L484.669 34.5867L492.539 46.213L476.951 46.2724Z" fill="white"/>
<path d="M480.523 18.1874L461.749 46.3214L465.905 46.3059L482.911 20.8865L480.523 18.1874Z" fill="white"/>
<path d="M477.758 12.6506L455.149 46.3425L459.279 46.327L479.907 15.7221L477.758 12.6506Z" fill="white"/>
<path d="M867.031 2.41791L839.764 43.6508L841.72 46.7089L871.085 2.40266L867.031 2.41791Z" fill="#00B0E3"/>
<path d="M861.623 2.4347L837.535 38.3566L839.363 41.6549L865.664 2.4195L861.623 2.4347Z" fill="#00B0E3"/>
<path d="M854.687 2.49484L843.228 19.5242L831.785 2.54303L827.869 2.55771L843.249 25.7424L858.737 2.44207L854.687 2.49484Z" fill="#00B0E3"/>
<path d="M835.792 2.52402L843.586 14.1506L851.38 2.46458L835.792 2.52402Z" fill="#00B0E3"/>
<path d="M839.542 30.5733L820.584 2.57616L824.741 2.56057L841.917 27.8516L839.542 30.5733Z" fill="#00B0E3"/>
<path d="M836.817 36.1209L813.984 2.59923L818.114 2.58374L838.945 33.0334L836.817 36.1209Z" fill="#00B0E3"/>
<path d="M834.937 47.8686L807.396 6.8465L809.328 3.76902L838.991 47.8534L834.937 47.8686Z" fill="#EB1947"/>
<path d="M829.167 47.8888L804.84 12.1489L806.642 8.84155L833.203 47.8737L829.167 47.8888Z" fill="#EB1947"/>
<path d="M822.224 47.8773L810.651 30.9344L799.321 47.996L795.41 48.0107L810.63 24.7115L826.278 47.895L822.224 47.8773Z" fill="#EB1947"/>
<path d="M803.325 47.9852L811.048 36.304L818.918 47.9258L803.325 47.9852Z" fill="#EB1947"/>
<path d="M806.897 19.9002L788.123 48.0342L792.28 48.0186L809.29 22.604L806.897 19.9002Z" fill="#EB1947"/>
<path d="M804.137 14.3634L781.528 48.0554L785.654 48.0399L806.281 17.4396L804.137 14.3634Z" fill="#EB1947"/>
<path d="M802.089 3.20449L774.822 44.4329L776.774 47.4957L806.143 3.18923L802.089 3.20449Z" fill="white"/>
<path d="M796.161 3.79768L772.069 39.7196L773.897 43.018L800.197 3.78249L796.161 3.79768Z" fill="white"/>
<path d="M789.379 3.27883L777.92 20.3082L766.477 3.33173L762.566 3.34639L777.941 26.5312L793.434 3.23075L789.379 3.27883Z" fill="white"/>
<path d="M770.484 3.31275L778.283 14.9345L786.077 3.25328L770.484 3.31275Z" fill="white"/>
<path d="M774.239 31.3571L755.277 3.36462L759.434 3.34903L776.614 28.6401L774.239 31.3571Z" fill="white"/>
<path d="M771.514 36.9094L748.681 3.38788L752.806 3.37241L773.638 33.8172L771.514 36.9094Z" fill="white"/>
<path d="M768.999 48.0806L741.458 7.05876L743.394 3.98128L773.053 48.0654L768.999 48.0806Z" fill="#00B0E3"/>
<path d="M763.229 48.1009L738.902 12.3613L740.708 9.05392L767.269 48.0857L763.229 48.1009Z" fill="#00B0E3"/>
<path d="M756.284 48.0894L744.712 31.1465L733.387 48.2081L729.471 48.2228L744.691 24.9236L760.339 48.1071L756.284 48.0894Z" fill="#00B0E3"/>
<path d="M737.39 48.1974L745.108 36.5163L752.979 48.1379L737.39 48.1974Z" fill="#00B0E3"/>
<path d="M740.958 20.1124L722.188 48.2461L726.34 48.2305L743.351 22.8162L740.958 20.1124Z" fill="#00B0E3"/>
<path d="M738.198 14.5757L715.589 48.2676L719.714 48.2522L740.342 17.6519L738.198 14.5757Z" fill="#00B0E3"/>
<path d="M736.238 2.83812L708.971 44.0712L710.928 47.1294L740.292 2.82286L736.238 2.83812Z" fill="#EB1947"/>
<path d="M730.473 2.85663L706.381 38.7786L708.209 42.077L734.509 2.84144L730.473 2.85663Z" fill="#EB1947"/>
<path d="M723.532 2.91681L712.073 19.9461L700.63 2.96501L696.714 2.97968L712.094 26.1643L727.582 2.86404L723.532 2.91681Z" fill="#EB1947"/>
<path d="M704.638 2.94611L712.432 14.5727L720.225 2.88666L704.638 2.94611Z" fill="#EB1947"/>
<path d="M708.388 30.9955L689.43 2.99826L693.587 2.98267L710.763 28.2738L708.388 30.9955Z" fill="#EB1947"/>
<path d="M705.574 36.5431L682.74 3.02159L686.866 3.00612L707.698 33.4556L705.574 36.5431Z" fill="#EB1947"/>
<path d="M703.688 47.7172L676.151 6.6904L678.083 3.61762L707.742 47.702L703.688 47.7172Z" fill="white"/>
<path d="M697.755 47.1596L673.428 11.4245L675.234 8.11242L701.795 47.1443L697.755 47.1596Z" fill="white"/>
<path d="M690.978 47.7209L679.405 30.7827L668.076 47.8443L664.16 47.859L679.384 24.5598L695.032 47.7433L690.978 47.7209Z" fill="white"/>
<path d="M672.08 47.8337L679.798 36.1481L687.668 47.7742L672.08 47.8337Z" fill="white"/>
<path d="M675.651 19.7485L656.877 47.8825L661.034 47.8669L678.04 22.4476L675.651 19.7485Z" fill="white"/>
<path d="M672.886 14.212L650.278 47.9038L654.408 47.8883L675.035 17.2835L672.886 14.212Z" fill="white"/>
<path d="M931.36 2.21035L904.093 43.4432L906.049 46.5014L935.413 2.1951L931.36 2.21035Z" fill="#EB1947"/>
<path d="M925.595 2.22871L901.503 38.1506L903.331 41.449L929.631 2.21352L925.595 2.22871Z" fill="#EB1947"/>
<path d="M918.654 2.2889L907.195 19.3182L895.752 2.3371L891.836 2.35177L907.216 25.5365L922.704 2.23613L918.654 2.2889Z" fill="#EB1947"/>
<path d="M899.759 2.31817L907.553 13.9447L915.347 2.25872L899.759 2.31817Z" fill="#EB1947"/>
<path d="M903.509 30.3674L884.552 2.37026L888.709 2.35467L905.884 27.6457L903.509 30.3674Z" fill="#EB1947"/>
<path d="M900.696 35.915L877.863 2.39366L881.988 2.37819L902.82 32.8275L900.696 35.915Z" fill="#EB1947"/>
<path d="M898.81 47.0891L871.273 6.0625L873.205 2.98974L902.864 47.0739L898.81 47.0891Z" fill="white"/>
<path d="M892.877 46.5317L868.55 10.7966L870.356 7.48449L896.917 46.5165L892.877 46.5317Z" fill="white"/>
<path d="M886.1 47.0931L874.527 30.1549L863.198 47.2165L859.282 47.2312L874.506 23.932L890.154 47.1155L886.1 47.0931Z" fill="white"/>
<path d="M867.202 47.2057L874.92 35.52L882.79 47.1462L867.202 47.2057Z" fill="white"/>
<path d="M870.773 19.1206L851.999 47.2545L856.156 47.239L873.162 21.8197L870.773 19.1206Z" fill="white"/>
<path d="M868.008 13.5841L845.4 47.276L849.53 47.2605L870.157 16.6556L868.008 13.5841Z" fill="white"/>
<path d="M216.902 0.856619L189.635 42.0898L191.592 45.148L220.956 0.841363L216.902 0.856619Z" fill="#00B0E3"/>
<path d="M211.495 0.873339L187.407 36.7952L189.235 40.0935L215.536 0.858134L211.495 0.873339Z" fill="#00B0E3"/>
<path d="M204.558 0.93374L193.099 17.9631L181.656 0.981935L177.74 0.996605L193.12 24.1813L208.608 0.880967L204.558 0.93374Z" fill="#00B0E3"/>
<path d="M185.663 0.962831L193.458 12.5894L201.251 0.903384L185.663 0.962831Z" fill="#00B0E3"/>
<path d="M189.413 29.0119L170.456 1.01472L174.613 0.999129L191.789 26.2902L189.413 29.0119Z" fill="#00B0E3"/>
<path d="M186.689 34.5595L163.856 1.03797L167.986 1.02249L188.817 31.472L186.689 34.5595Z" fill="#00B0E3"/>
<path d="M184.809 46.3072L157.268 5.28538L159.2 2.20792L188.863 46.292L184.809 46.3072Z" fill="#EB1947"/>
<path d="M179.039 46.3276L154.712 10.5878L156.514 7.2804L183.075 46.3124L179.039 46.3276Z" fill="#EB1947"/>
<path d="M172.095 46.316L160.522 29.3731L149.193 46.4347L145.282 46.4494L160.502 23.1502L176.15 46.3337L172.095 46.316Z" fill="#EB1947"/>
<path d="M153.197 46.4238L160.919 34.7428L168.789 46.3644L153.197 46.4238Z" fill="#EB1947"/>
<path d="M156.768 18.3389L137.994 46.4729L142.151 46.4573L159.162 21.0428L156.768 18.3389Z" fill="#EB1947"/>
<path d="M154.008 12.8022L131.4 46.4941L135.525 46.4786L156.153 15.8784L154.008 12.8022Z" fill="#EB1947"/>
<path d="M151.961 1.64339L124.694 42.8715L126.647 45.9343L156.015 1.62813L151.961 1.64339Z" fill="white"/>
<path d="M146.033 2.23636L121.94 38.1583L123.769 41.4567L150.069 2.22118L146.033 2.23636Z" fill="white"/>
<path d="M139.251 1.71765L127.792 18.7469L116.349 1.77054L112.437 1.7852L127.813 24.9698L143.305 1.66956L139.251 1.71765Z" fill="white"/>
<path d="M120.356 1.75139L128.155 13.3733L135.948 1.69193L120.356 1.75139Z" fill="white"/>
<path d="M124.111 29.7959L105.149 1.80333L109.305 1.78774L126.486 27.0789L124.111 29.7959Z" fill="white"/>
<path d="M121.385 35.3478L98.552 1.8268L102.677 1.81127L123.509 32.2555L121.385 35.3478Z" fill="white"/>
<path d="M118.87 46.5194L91.3294 5.49744L93.2657 2.41995L122.924 46.5042L118.87 46.5194Z" fill="#00B0E3"/>
<path d="M113.101 46.5398L88.7741 10.8L90.5802 7.49266L117.141 46.5246L113.101 46.5398Z" fill="#00B0E3"/>
<path d="M106.156 46.5282L94.5831 29.5854L83.2582 46.6469L79.3422 46.6615L94.5623 23.3625L110.21 46.5459L106.156 46.5282Z" fill="#00B0E3"/>
<path d="M87.2621 46.6362L94.98 34.9552L102.85 46.5767L87.2621 46.6362Z" fill="#00B0E3"/>
<path d="M90.829 18.5509L72.0594 46.685L76.2116 46.6695L93.2223 21.2547L90.829 18.5509Z" fill="#00B0E3"/>
<path d="M88.0685 13.0144L65.46 46.7061L69.5854 46.6906L90.213 16.0906L88.0685 13.0144Z" fill="#00B0E3"/>
<path d="M86.1091 1.27684L58.8421 42.5099L60.7989 45.5681L90.163 1.26158L86.1091 1.27684Z" fill="#EB1947"/>
<path d="M80.3451 1.29527L56.2524 37.2173L58.0806 40.5157L84.3812 1.28008L80.3451 1.29527Z" fill="#EB1947"/>
<path d="M73.4038 1.35588L61.9447 18.385L50.5013 1.40407L46.5853 1.41874L61.9655 24.6032L77.4536 1.30311L73.4038 1.35588Z" fill="#EB1947"/>
<path d="M54.5079 1.38479L62.3022 13.0114L70.0961 1.32534L54.5079 1.38479Z" fill="#EB1947"/>
<path d="M58.259 29.4338L39.3017 1.43667L43.4584 1.42108L60.6341 26.7121L58.259 29.4338Z" fill="#EB1947"/>
<path d="M55.445 34.9817L32.6117 1.46019L36.7371 1.44472L57.5688 31.8942L55.445 34.9817Z" fill="#EB1947"/>
<path d="M53.559 46.1556L26.0225 5.12902L27.9544 2.05627L57.6129 46.1404L53.559 46.1556Z" fill="white"/>
<path d="M47.6269 45.5983L23.3001 9.86307L25.1062 6.55099L51.6674 45.5831L47.6269 45.5983Z" fill="white"/>
<path d="M40.8491 46.1597L29.2764 29.2214L17.947 46.2831L14.031 46.2977L29.2555 22.9985L44.9036 46.1821L40.8491 46.1597Z" fill="white"/>
<path d="M21.9512 46.2724L29.6691 34.5867L37.5393 46.213L21.9512 46.2724Z" fill="white"/>
<path d="M25.5226 18.1874L6.74851 46.3214L10.9052 46.3059L27.9113 20.8865L25.5226 18.1874Z" fill="white"/>
<path d="M22.7579 12.6506L0.149438 46.3425L4.2793 46.327L24.9069 15.7221L22.7579 12.6506Z" fill="white"/>
<path d="M412.031 2.41791L384.764 43.6508L386.72 46.7089L416.084 2.40266L412.031 2.41791Z" fill="#00B0E3"/>
<path d="M406.623 2.4347L382.535 38.3566L384.363 41.6549L410.664 2.4195L406.623 2.4347Z" fill="#00B0E3"/>
<path d="M399.687 2.49484L388.228 19.5242L376.785 2.54303L372.869 2.55771L388.249 25.7424L403.737 2.44207L399.687 2.49484Z" fill="#00B0E3"/>
<path d="M380.792 2.52402L388.586 14.1506L396.38 2.46458L380.792 2.52402Z" fill="#00B0E3"/>
<path d="M384.542 30.5733L365.584 2.57616L369.741 2.56057L386.917 27.8516L384.542 30.5733Z" fill="#00B0E3"/>
<path d="M381.817 36.1209L358.984 2.59923L363.114 2.58374L383.945 33.0334L381.817 36.1209Z" fill="#00B0E3"/>
<path d="M379.937 47.8686L352.396 6.8465L354.328 3.76902L383.991 47.8534L379.937 47.8686Z" fill="#EB1947"/>
<path d="M374.167 47.8888L349.84 12.1489L351.642 8.84155L378.203 47.8737L374.167 47.8888Z" fill="#EB1947"/>
<path d="M367.223 47.8773L355.651 30.9344L344.321 47.996L340.41 48.0107L355.63 24.7115L371.278 47.895L367.223 47.8773Z" fill="#EB1947"/>
<path d="M348.325 47.9852L356.048 36.304L363.918 47.9258L348.325 47.9852Z" fill="#EB1947"/>
<path d="M351.897 19.9002L333.123 48.0342L337.28 48.0186L354.29 22.604L351.897 19.9002Z" fill="#EB1947"/>
<path d="M349.137 14.3634L326.528 48.0554L330.653 48.0399L351.281 17.4396L349.137 14.3634Z" fill="#EB1947"/>
<path d="M347.089 3.20449L319.822 44.4329L321.774 47.4957L351.143 3.18923L347.089 3.20449Z" fill="white"/>
<path d="M341.161 3.79768L317.068 39.7196L318.897 43.018L345.197 3.78249L341.161 3.79768Z" fill="white"/>
<path d="M334.379 3.27883L322.92 20.3082L311.477 3.33173L307.565 3.34639L322.941 26.5312L338.434 3.23075L334.379 3.27883Z" fill="white"/>
<path d="M315.484 3.31275L323.283 14.9345L331.077 3.25328L315.484 3.31275Z" fill="white"/>
<path d="M319.239 31.3571L300.277 3.36462L304.434 3.34903L321.614 28.6401L319.239 31.3571Z" fill="white"/>
<path d="M316.514 36.9094L293.681 3.38788L297.806 3.37241L318.638 33.8172L316.514 36.9094Z" fill="white"/>
<path d="M313.999 48.0806L286.458 7.05876L288.394 3.98128L318.053 48.0654L313.999 48.0806Z" fill="#00B0E3"/>
<path d="M308.229 48.1009L283.902 12.3613L285.708 9.05392L312.269 48.0857L308.229 48.1009Z" fill="#00B0E3"/>
<path d="M301.284 48.0894L289.711 31.1465L278.387 48.2081L274.471 48.2228L289.691 24.9236L305.339 48.1071L301.284 48.0894Z" fill="#00B0E3"/>
<path d="M282.39 48.1974L290.108 36.5163L297.979 48.1379L282.39 48.1974Z" fill="#00B0E3"/>
<path d="M285.958 20.1124L267.188 48.2461L271.34 48.2305L288.351 22.8162L285.958 20.1124Z" fill="#00B0E3"/>
<path d="M283.197 14.5757L260.589 48.2676L264.714 48.2522L285.342 17.6519L283.197 14.5757Z" fill="#00B0E3"/>
<path d="M281.238 2.83812L253.971 44.0712L255.928 47.1294L285.292 2.82286L281.238 2.83812Z" fill="#EB1947"/>
<path d="M275.473 2.85663L251.38 38.7786L253.209 42.077L279.509 2.84144L275.473 2.85663Z" fill="#EB1947"/>
<path d="M268.532 2.91681L257.073 19.9461L245.63 2.96501L241.714 2.97968L257.094 26.1643L272.582 2.86404L268.532 2.91681Z" fill="#EB1947"/>
<path d="M249.637 2.94611L257.432 14.5727L265.225 2.88666L249.637 2.94611Z" fill="#EB1947"/>
<path d="M253.387 30.9955L234.43 2.99826L238.587 2.98267L255.763 28.2738L253.387 30.9955Z" fill="#EB1947"/>
<path d="M250.574 36.5431L227.74 3.02159L231.866 3.00612L252.697 33.4556L250.574 36.5431Z" fill="#EB1947"/>
<path d="M248.688 47.7172L221.151 6.6904L223.083 3.61762L252.742 47.702L248.688 47.7172Z" fill="white"/>
<path d="M242.755 47.1596L218.428 11.4245L220.234 8.11242L246.795 47.1443L242.755 47.1596Z" fill="white"/>
<path d="M235.978 47.7209L224.405 30.7827L213.076 47.8443L209.16 47.859L224.384 24.5598L240.032 47.7433L235.978 47.7209Z" fill="white"/>
<path d="M217.079 47.8337L224.797 36.1481L232.668 47.7742L217.079 47.8337Z" fill="white"/>
<path d="M220.651 19.7485L201.877 47.8825L206.034 47.8669L223.04 22.4476L220.651 19.7485Z" fill="white"/>
<path d="M217.886 14.212L195.278 47.9038L199.408 47.8883L220.035 17.2835L217.886 14.212Z" fill="white"/>
<path d="M476.359 2.21035L449.092 43.4432L451.049 46.5014L480.413 2.1951L476.359 2.21035Z" fill="#EB1947"/>
<path d="M470.595 2.22871L446.503 38.1506L448.331 41.449L474.631 2.21352L470.595 2.22871Z" fill="#EB1947"/>
<path d="M463.654 2.2889L452.195 19.3182L440.752 2.3371L436.836 2.35177L452.216 25.5365L467.704 2.23613L463.654 2.2889Z" fill="#EB1947"/>
<path d="M444.759 2.31817L452.553 13.9447L460.347 2.25872L444.759 2.31817Z" fill="#EB1947"/>
<path d="M448.509 30.3674L429.552 2.37026L433.709 2.35467L450.884 27.6457L448.509 30.3674Z" fill="#EB1947"/>
<path d="M445.696 35.915L422.862 2.39366L426.988 2.37819L447.82 32.8275L445.696 35.915Z" fill="#EB1947"/>
<path d="M443.81 47.0891L416.273 6.0625L418.205 2.98974L447.864 47.0739L443.81 47.0891Z" fill="white"/>
<path d="M437.877 46.5317L413.55 10.7966L415.356 7.48449L441.917 46.5165L437.877 46.5317Z" fill="white"/>
<path d="M431.099 47.0931L419.527 30.1549L408.197 47.2165L404.281 47.2312L419.506 23.932L435.154 47.1155L431.099 47.0931Z" fill="white"/>
<path d="M412.202 47.2057L419.919 35.52L427.79 47.1462L412.202 47.2057Z" fill="white"/>
<path d="M415.773 19.1206L396.999 47.2545L401.156 47.239L418.162 21.8197L415.773 19.1206Z" fill="white"/>
<path d="M413.008 13.5841L390.4 47.276L394.529 47.2605L415.157 16.6556L413.008 13.5841Z" fill="white"/>
</svg>
