<svg width="2309" height="50" viewBox="0 0 2309 50" fill="none" xmlns="http://www.w3.org/2000/svg">
<path d="M2044.9 0.856619L2017.64 42.0898L2019.59 45.148L2048.96 0.841363L2044.9 0.856619Z" fill="#00B0E3"/>
<path d="M2039.5 0.873339L2015.41 36.7952L2017.24 40.0935L2043.54 0.858134L2039.5 0.873339Z" fill="#00B0E3"/>
<path d="M2032.56 0.93374L2021.1 17.9631L2009.66 0.981935L2005.74 0.996605L2021.12 24.1813L2036.61 0.880967L2032.56 0.93374Z" fill="#00B0E3"/>
<path d="M2013.66 0.962831L2021.46 12.5894L2029.25 0.903384L2013.66 0.962831Z" fill="#00B0E3"/>
<path d="M2017.41 29.0119L1998.46 1.01472L2002.61 0.999129L2019.79 26.2902L2017.41 29.0119Z" fill="#00B0E3"/>
<path d="M2014.69 34.5595L1991.86 1.03797L1995.99 1.02249L2016.82 31.472L2014.69 34.5595Z" fill="#00B0E3"/>
<path d="M2012.81 46.3072L1985.27 5.28538L1987.2 2.20792L2016.86 46.292L2012.81 46.3072Z" fill="#EB1947"/>
<path d="M2007.04 46.3276L1982.71 10.5878L1984.51 7.2804L2011.08 46.3124L2007.04 46.3276Z" fill="#EB1947"/>
<path d="M2000.1 46.316L1988.52 29.3731L1977.19 46.4347L1973.28 46.4494L1988.5 23.1502L2004.15 46.3337L2000.1 46.316Z" fill="#EB1947"/>
<path d="M1981.2 46.4238L1988.92 34.7428L1996.79 46.3644L1981.2 46.4238Z" fill="#EB1947"/>
<path d="M1984.77 18.3389L1965.99 46.4729L1970.15 46.4573L1987.16 21.0428L1984.77 18.3389Z" fill="#EB1947"/>
<path d="M1982.01 12.8022L1959.4 46.4941L1963.53 46.4786L1984.15 15.8784L1982.01 12.8022Z" fill="#EB1947"/>
<path d="M1979.96 1.64339L1952.69 42.8715L1954.65 45.9343L1984.02 1.62813L1979.96 1.64339Z" fill="white"/>
<path d="M1974.03 2.23636L1949.94 38.1583L1951.77 41.4567L1978.07 2.22118L1974.03 2.23636Z" fill="white"/>
<path d="M1967.25 1.71765L1955.79 18.7469L1944.35 1.77054L1940.44 1.7852L1955.81 24.9698L1971.31 1.66956L1967.25 1.71765Z" fill="white"/>
<path d="M1948.36 1.75139L1956.15 13.3733L1963.95 1.69193L1948.36 1.75139Z" fill="white"/>
<path d="M1952.11 29.7959L1933.15 1.80333L1937.31 1.78774L1954.49 27.0789L1952.11 29.7959Z" fill="white"/>
<path d="M1949.39 35.3478L1926.55 1.8268L1930.68 1.81127L1951.51 32.2555L1949.39 35.3478Z" fill="white"/>
<path d="M1946.87 46.5194L1919.33 5.49744L1921.27 2.41995L1950.92 46.5042L1946.87 46.5194Z" fill="#00B0E3"/>
<path d="M1941.1 46.5398L1916.77 10.8L1918.58 7.49266L1945.14 46.5246L1941.1 46.5398Z" fill="#00B0E3"/>
<path d="M1934.16 46.5282L1922.58 29.5854L1911.26 46.6469L1907.34 46.6615L1922.56 23.3625L1938.21 46.5459L1934.16 46.5282Z" fill="#00B0E3"/>
<path d="M1915.26 46.6362L1922.98 34.9552L1930.85 46.5767L1915.26 46.6362Z" fill="#00B0E3"/>
<path d="M1918.83 18.5509L1900.06 46.685L1904.21 46.6695L1921.22 21.2547L1918.83 18.5509Z" fill="#00B0E3"/>
<path d="M1916.07 13.0144L1893.46 46.7061L1897.59 46.6906L1918.21 16.0906L1916.07 13.0144Z" fill="#00B0E3"/>
<path d="M1914.11 1.27684L1886.84 42.5099L1888.8 45.5681L1918.16 1.26158L1914.11 1.27684Z" fill="#EB1947"/>
<path d="M1908.35 1.29527L1884.25 37.2173L1886.08 40.5157L1912.38 1.28008L1908.35 1.29527Z" fill="#EB1947"/>
<path d="M1901.4 1.35588L1889.94 18.385L1878.5 1.40407L1874.59 1.41874L1889.97 24.6032L1905.45 1.30311L1901.4 1.35588Z" fill="#EB1947"/>
<path d="M1882.51 1.38479L1890.3 13.0114L1898.1 1.32534L1882.51 1.38479Z" fill="#EB1947"/>
<path d="M1886.26 29.4338L1867.3 1.43667L1871.46 1.42108L1888.63 26.7121L1886.26 29.4338Z" fill="#EB1947"/>
<path d="M1883.45 34.9817L1860.61 1.46019L1864.74 1.44472L1885.57 31.8942L1883.45 34.9817Z" fill="#EB1947"/>
<path d="M1881.56 46.1556L1854.02 5.12902L1855.95 2.05627L1885.61 46.1404L1881.56 46.1556Z" fill="white"/>
<path d="M1875.63 45.5983L1851.3 9.86307L1853.11 6.55099L1879.67 45.5831L1875.63 45.5983Z" fill="white"/>
<path d="M1868.85 46.1597L1857.28 29.2214L1845.95 46.2831L1842.03 46.2977L1857.26 22.9985L1872.9 46.1821L1868.85 46.1597Z" fill="white"/>
<path d="M1849.95 46.2724L1857.67 34.5867L1865.54 46.213L1849.95 46.2724Z" fill="white"/>
<path d="M1853.52 18.1874L1834.75 46.3214L1838.91 46.3059L1855.91 20.8865L1853.52 18.1874Z" fill="white"/>
<path d="M1850.76 12.6506L1828.15 46.3425L1832.28 46.327L1852.91 15.7221L1850.76 12.6506Z" fill="white"/>
<path d="M2240.03 2.41791L2212.76 43.6508L2214.72 46.7089L2244.08 2.40266L2240.03 2.41791Z" fill="#00B0E3"/>
<path d="M2234.62 2.4347L2210.54 38.3566L2212.36 41.6549L2238.66 2.4195L2234.62 2.4347Z" fill="#00B0E3"/>
<path d="M2227.69 2.49484L2216.23 19.5242L2204.78 2.54303L2200.87 2.55771L2216.25 25.7424L2231.74 2.44207L2227.69 2.49484Z" fill="#00B0E3"/>
<path d="M2208.79 2.52402L2216.59 14.1506L2224.38 2.46458L2208.79 2.52402Z" fill="#00B0E3"/>
<path d="M2212.54 30.5733L2193.58 2.57616L2197.74 2.56057L2214.92 27.8516L2212.54 30.5733Z" fill="#00B0E3"/>
<path d="M2209.82 36.1209L2186.98 2.59923L2191.11 2.58374L2211.95 33.0334L2209.82 36.1209Z" fill="#00B0E3"/>
<path d="M2207.94 47.8686L2180.4 6.8465L2182.33 3.76902L2211.99 47.8534L2207.94 47.8686Z" fill="#EB1947"/>
<path d="M2202.17 47.8888L2177.84 12.1489L2179.64 8.84155L2206.2 47.8737L2202.17 47.8888Z" fill="#EB1947"/>
<path d="M2195.22 47.8773L2183.65 30.9344L2172.32 47.996L2168.41 48.0107L2183.63 24.7115L2199.28 47.895L2195.22 47.8773Z" fill="#EB1947"/>
<path d="M2176.33 47.9852L2184.05 36.304L2191.92 47.9258L2176.33 47.9852Z" fill="#EB1947"/>
<path d="M2179.9 19.9002L2161.12 48.0342L2165.28 48.0186L2182.29 22.604L2179.9 19.9002Z" fill="#EB1947"/>
<path d="M2177.14 14.3634L2154.53 48.0554L2158.65 48.0399L2179.28 17.4396L2177.14 14.3634Z" fill="#EB1947"/>
<path d="M2175.09 3.20449L2147.82 44.4329L2149.77 47.4957L2179.14 3.18923L2175.09 3.20449Z" fill="white"/>
<path d="M2169.16 3.79768L2145.07 39.7196L2146.9 43.018L2173.2 3.78249L2169.16 3.79768Z" fill="white"/>
<path d="M2162.38 3.27883L2150.92 20.3082L2139.48 3.33173L2135.57 3.34639L2150.94 26.5312L2166.43 3.23075L2162.38 3.27883Z" fill="white"/>
<path d="M2143.48 3.31275L2151.28 14.9345L2159.08 3.25328L2143.48 3.31275Z" fill="white"/>
<path d="M2147.24 31.3571L2128.28 3.36462L2132.43 3.34903L2149.61 28.6401L2147.24 31.3571Z" fill="white"/>
<path d="M2144.51 36.9094L2121.68 3.38788L2125.81 3.37241L2146.64 33.8172L2144.51 36.9094Z" fill="white"/>
<path d="M2142 48.0806L2114.46 7.05876L2116.39 3.98128L2146.05 48.0654L2142 48.0806Z" fill="#00B0E3"/>
<path d="M2136.23 48.1009L2111.9 12.3613L2113.71 9.05392L2140.27 48.0857L2136.23 48.1009Z" fill="#00B0E3"/>
<path d="M2129.28 48.0894L2117.71 31.1465L2106.39 48.2081L2102.47 48.2228L2117.69 24.9236L2133.34 48.1071L2129.28 48.0894Z" fill="#00B0E3"/>
<path d="M2110.39 48.1974L2118.11 36.5163L2125.98 48.1379L2110.39 48.1974Z" fill="#00B0E3"/>
<path d="M2113.96 20.1124L2095.19 48.2461L2099.34 48.2305L2116.35 22.8162L2113.96 20.1124Z" fill="#00B0E3"/>
<path d="M2111.2 14.5757L2088.59 48.2676L2092.71 48.2522L2113.34 17.6519L2111.2 14.5757Z" fill="#00B0E3"/>
<path d="M2109.24 2.83812L2081.97 44.0712L2083.93 47.1294L2113.29 2.82286L2109.24 2.83812Z" fill="#EB1947"/>
<path d="M2103.47 2.85663L2079.38 38.7786L2081.21 42.077L2107.51 2.84144L2103.47 2.85663Z" fill="#EB1947"/>
<path d="M2096.53 2.91681L2085.07 19.9461L2073.63 2.96501L2069.71 2.97968L2085.09 26.1643L2100.58 2.86404L2096.53 2.91681Z" fill="#EB1947"/>
<path d="M2077.64 2.94611L2085.43 14.5727L2093.23 2.88666L2077.64 2.94611Z" fill="#EB1947"/>
<path d="M2081.39 30.9955L2062.43 2.99826L2066.59 2.98267L2083.76 28.2738L2081.39 30.9955Z" fill="#EB1947"/>
<path d="M2078.57 36.5431L2055.74 3.02159L2059.87 3.00612L2080.7 33.4556L2078.57 36.5431Z" fill="#EB1947"/>
<path d="M2076.69 47.7172L2049.15 6.6904L2051.08 3.61762L2080.74 47.702L2076.69 47.7172Z" fill="white"/>
<path d="M2070.75 47.1596L2046.43 11.4245L2048.23 8.11242L2074.8 47.1443L2070.75 47.1596Z" fill="white"/>
<path d="M2063.98 47.7209L2052.41 30.7827L2041.08 47.8443L2037.16 47.859L2052.38 24.5598L2068.03 47.7433L2063.98 47.7209Z" fill="white"/>
<path d="M2045.08 47.8337L2052.8 36.1481L2060.67 47.7742L2045.08 47.8337Z" fill="white"/>
<path d="M2048.65 19.7485L2029.88 47.8825L2034.03 47.8669L2051.04 22.4476L2048.65 19.7485Z" fill="white"/>
<path d="M2045.89 14.212L2023.28 47.9038L2027.41 47.8883L2048.04 17.2835L2045.89 14.212Z" fill="white"/>
<path d="M2304.36 2.21035L2277.09 43.4432L2279.05 46.5014L2308.41 2.1951L2304.36 2.21035Z" fill="#EB1947"/>
<path d="M2298.6 2.22871L2274.5 38.1506L2276.33 41.449L2302.63 2.21352L2298.6 2.22871Z" fill="#EB1947"/>
<path d="M2291.65 2.2889L2280.2 19.3182L2268.75 2.3371L2264.84 2.35177L2280.22 25.5365L2295.7 2.23613L2291.65 2.2889Z" fill="#EB1947"/>
<path d="M2272.76 2.31817L2280.55 13.9447L2288.35 2.25872L2272.76 2.31817Z" fill="#EB1947"/>
<path d="M2276.51 30.3674L2257.55 2.37026L2261.71 2.35467L2278.88 27.6457L2276.51 30.3674Z" fill="#EB1947"/>
<path d="M2273.7 35.915L2250.86 2.39366L2254.99 2.37819L2275.82 32.8275L2273.7 35.915Z" fill="#EB1947"/>
<path d="M2271.81 47.0891L2244.27 6.0625L2246.21 2.98974L2275.86 47.0739L2271.81 47.0891Z" fill="white"/>
<path d="M2265.88 46.5317L2241.55 10.7966L2243.36 7.48449L2269.92 46.5165L2265.88 46.5317Z" fill="white"/>
<path d="M2259.1 47.0931L2247.53 30.1549L2236.2 47.2165L2232.28 47.2312L2247.51 23.932L2263.15 47.1155L2259.1 47.0931Z" fill="white"/>
<path d="M2240.2 47.2057L2247.92 35.52L2255.79 47.1462L2240.2 47.2057Z" fill="white"/>
<path d="M2243.77 19.1206L2225 47.2545L2229.16 47.239L2246.16 21.8197L2243.77 19.1206Z" fill="white"/>
<path d="M2241.01 13.5841L2218.4 47.276L2222.53 47.2605L2243.16 16.6556L2241.01 13.5841Z" fill="white"/>
<path d="M2044.9 0.856619L2017.64 42.0898L2019.59 45.148L2048.96 0.841363L2044.9 0.856619Z" fill="#00B0E3"/>
<path d="M2039.5 0.873339L2015.41 36.7952L2017.24 40.0935L2043.54 0.858134L2039.5 0.873339Z" fill="#00B0E3"/>
<path d="M2032.56 0.93374L2021.1 17.9631L2009.66 0.981935L2005.74 0.996605L2021.12 24.1813L2036.61 0.880967L2032.56 0.93374Z" fill="#00B0E3"/>
<path d="M2013.66 0.962831L2021.46 12.5894L2029.25 0.903384L2013.66 0.962831Z" fill="#00B0E3"/>
<path d="M2017.41 29.0119L1998.46 1.01472L2002.61 0.999129L2019.79 26.2902L2017.41 29.0119Z" fill="#00B0E3"/>
<path d="M2014.69 34.5595L1991.86 1.03797L1995.99 1.02249L2016.82 31.472L2014.69 34.5595Z" fill="#00B0E3"/>
<path d="M2012.81 46.3072L1985.27 5.28538L1987.2 2.20792L2016.86 46.292L2012.81 46.3072Z" fill="#EB1947"/>
<path d="M2007.04 46.3276L1982.71 10.5878L1984.51 7.2804L2011.08 46.3124L2007.04 46.3276Z" fill="#EB1947"/>
<path d="M2000.1 46.316L1988.52 29.3731L1977.19 46.4347L1973.28 46.4494L1988.5 23.1502L2004.15 46.3337L2000.1 46.316Z" fill="#EB1947"/>
<path d="M1981.2 46.4238L1988.92 34.7428L1996.79 46.3644L1981.2 46.4238Z" fill="#EB1947"/>
<path d="M1984.77 18.3389L1965.99 46.4729L1970.15 46.4573L1987.16 21.0428L1984.77 18.3389Z" fill="#EB1947"/>
<path d="M1982.01 12.8022L1959.4 46.4941L1963.53 46.4786L1984.15 15.8784L1982.01 12.8022Z" fill="#EB1947"/>
<path d="M1979.96 1.64339L1952.69 42.8715L1954.65 45.9343L1984.02 1.62813L1979.96 1.64339Z" fill="white"/>
<path d="M1974.03 2.23636L1949.94 38.1583L1951.77 41.4567L1978.07 2.22118L1974.03 2.23636Z" fill="white"/>
<path d="M1967.25 1.71765L1955.79 18.7469L1944.35 1.77054L1940.44 1.7852L1955.81 24.9698L1971.31 1.66956L1967.25 1.71765Z" fill="white"/>
<path d="M1948.36 1.75139L1956.15 13.3733L1963.95 1.69193L1948.36 1.75139Z" fill="white"/>
<path d="M1952.11 29.7959L1933.15 1.80333L1937.31 1.78774L1954.49 27.0789L1952.11 29.7959Z" fill="white"/>
<path d="M1949.39 35.3478L1926.55 1.8268L1930.68 1.81127L1951.51 32.2555L1949.39 35.3478Z" fill="white"/>
<path d="M1946.87 46.5194L1919.33 5.49744L1921.27 2.41995L1950.92 46.5042L1946.87 46.5194Z" fill="#00B0E3"/>
<path d="M1941.1 46.5398L1916.77 10.8L1918.58 7.49266L1945.14 46.5246L1941.1 46.5398Z" fill="#00B0E3"/>
<path d="M1934.16 46.5282L1922.58 29.5854L1911.26 46.6469L1907.34 46.6615L1922.56 23.3625L1938.21 46.5459L1934.16 46.5282Z" fill="#00B0E3"/>
<path d="M1915.26 46.6362L1922.98 34.9552L1930.85 46.5767L1915.26 46.6362Z" fill="#00B0E3"/>
<path d="M1918.83 18.5509L1900.06 46.685L1904.21 46.6695L1921.22 21.2547L1918.83 18.5509Z" fill="#00B0E3"/>
<path d="M1916.07 13.0144L1893.46 46.7061L1897.59 46.6906L1918.21 16.0906L1916.07 13.0144Z" fill="#00B0E3"/>
<path d="M1914.11 1.27684L1886.84 42.5099L1888.8 45.5681L1918.16 1.26158L1914.11 1.27684Z" fill="#EB1947"/>
<path d="M1908.35 1.29527L1884.25 37.2173L1886.08 40.5157L1912.38 1.28008L1908.35 1.29527Z" fill="#EB1947"/>
<path d="M1901.4 1.35588L1889.94 18.385L1878.5 1.40407L1874.59 1.41874L1889.97 24.6032L1905.45 1.30311L1901.4 1.35588Z" fill="#EB1947"/>
<path d="M1882.51 1.38479L1890.3 13.0114L1898.1 1.32534L1882.51 1.38479Z" fill="#EB1947"/>
<path d="M1886.26 29.4338L1867.3 1.43667L1871.46 1.42108L1888.63 26.7121L1886.26 29.4338Z" fill="#EB1947"/>
<path d="M1883.45 34.9817L1860.61 1.46019L1864.74 1.44472L1885.57 31.8942L1883.45 34.9817Z" fill="#EB1947"/>
<path d="M1881.56 46.1556L1854.02 5.12902L1855.95 2.05627L1885.61 46.1404L1881.56 46.1556Z" fill="white"/>
<path d="M1875.63 45.5983L1851.3 9.86307L1853.11 6.55099L1879.67 45.5831L1875.63 45.5983Z" fill="white"/>
<path d="M1868.85 46.1597L1857.28 29.2214L1845.95 46.2831L1842.03 46.2977L1857.26 22.9985L1872.9 46.1821L1868.85 46.1597Z" fill="white"/>
<path d="M1849.95 46.2724L1857.67 34.5867L1865.54 46.213L1849.95 46.2724Z" fill="white"/>
<path d="M1853.52 18.1874L1834.75 46.3214L1838.91 46.3059L1855.91 20.8865L1853.52 18.1874Z" fill="white"/>
<path d="M1850.76 12.6506L1828.15 46.3425L1832.28 46.327L1852.91 15.7221L1850.76 12.6506Z" fill="white"/>
<path d="M2240.03 2.41791L2212.76 43.6508L2214.72 46.7089L2244.08 2.40266L2240.03 2.41791Z" fill="#00B0E3"/>
<path d="M2234.62 2.4347L2210.54 38.3566L2212.36 41.6549L2238.66 2.4195L2234.62 2.4347Z" fill="#00B0E3"/>
<path d="M2227.69 2.49484L2216.23 19.5242L2204.78 2.54303L2200.87 2.55771L2216.25 25.7424L2231.74 2.44207L2227.69 2.49484Z" fill="#00B0E3"/>
<path d="M2208.79 2.52402L2216.59 14.1506L2224.38 2.46458L2208.79 2.52402Z" fill="#00B0E3"/>
<path d="M2212.54 30.5733L2193.58 2.57616L2197.74 2.56057L2214.92 27.8516L2212.54 30.5733Z" fill="#00B0E3"/>
<path d="M2209.82 36.1209L2186.98 2.59923L2191.11 2.58374L2211.95 33.0334L2209.82 36.1209Z" fill="#00B0E3"/>
<path d="M2207.94 47.8686L2180.4 6.8465L2182.33 3.76902L2211.99 47.8534L2207.94 47.8686Z" fill="#EB1947"/>
<path d="M2202.17 47.8888L2177.84 12.1489L2179.64 8.84155L2206.2 47.8737L2202.17 47.8888Z" fill="#EB1947"/>
<path d="M2195.22 47.8773L2183.65 30.9344L2172.32 47.996L2168.41 48.0107L2183.63 24.7115L2199.28 47.895L2195.22 47.8773Z" fill="#EB1947"/>
<path d="M2176.33 47.9852L2184.05 36.304L2191.92 47.9258L2176.33 47.9852Z" fill="#EB1947"/>
<path d="M2179.9 19.9002L2161.12 48.0342L2165.28 48.0186L2182.29 22.604L2179.9 19.9002Z" fill="#EB1947"/>
<path d="M2177.14 14.3634L2154.53 48.0554L2158.65 48.0399L2179.28 17.4396L2177.14 14.3634Z" fill="#EB1947"/>
<path d="M2175.09 3.20449L2147.82 44.4329L2149.77 47.4957L2179.14 3.18923L2175.09 3.20449Z" fill="white"/>
<path d="M2169.16 3.79768L2145.07 39.7196L2146.9 43.018L2173.2 3.78249L2169.16 3.79768Z" fill="white"/>
<path d="M2162.38 3.27883L2150.92 20.3082L2139.48 3.33173L2135.57 3.34639L2150.94 26.5312L2166.43 3.23075L2162.38 3.27883Z" fill="white"/>
<path d="M2143.48 3.31275L2151.28 14.9345L2159.08 3.25328L2143.48 3.31275Z" fill="white"/>
<path d="M2147.24 31.3571L2128.28 3.36462L2132.43 3.34903L2149.61 28.6401L2147.24 31.3571Z" fill="white"/>
<path d="M2144.51 36.9094L2121.68 3.38788L2125.81 3.37241L2146.64 33.8172L2144.51 36.9094Z" fill="white"/>
<path d="M2142 48.0806L2114.46 7.05876L2116.39 3.98128L2146.05 48.0654L2142 48.0806Z" fill="#00B0E3"/>
<path d="M2136.23 48.1009L2111.9 12.3613L2113.71 9.05392L2140.27 48.0857L2136.23 48.1009Z" fill="#00B0E3"/>
<path d="M2129.28 48.0894L2117.71 31.1465L2106.39 48.2081L2102.47 48.2228L2117.69 24.9236L2133.34 48.1071L2129.28 48.0894Z" fill="#00B0E3"/>
<path d="M2110.39 48.1974L2118.11 36.5163L2125.98 48.1379L2110.39 48.1974Z" fill="#00B0E3"/>
<path d="M2113.96 20.1124L2095.19 48.2461L2099.34 48.2305L2116.35 22.8162L2113.96 20.1124Z" fill="#00B0E3"/>
<path d="M2111.2 14.5757L2088.59 48.2676L2092.71 48.2522L2113.34 17.6519L2111.2 14.5757Z" fill="#00B0E3"/>
<path d="M2109.24 2.83812L2081.97 44.0712L2083.93 47.1294L2113.29 2.82286L2109.24 2.83812Z" fill="#EB1947"/>
<path d="M2103.47 2.85663L2079.38 38.7786L2081.21 42.077L2107.51 2.84144L2103.47 2.85663Z" fill="#EB1947"/>
<path d="M2096.53 2.91681L2085.07 19.9461L2073.63 2.96501L2069.71 2.97968L2085.09 26.1643L2100.58 2.86404L2096.53 2.91681Z" fill="#EB1947"/>
<path d="M2077.64 2.94611L2085.43 14.5727L2093.23 2.88666L2077.64 2.94611Z" fill="#EB1947"/>
<path d="M2081.39 30.9955L2062.43 2.99826L2066.59 2.98267L2083.76 28.2738L2081.39 30.9955Z" fill="#EB1947"/>
<path d="M2078.57 36.5431L2055.74 3.02159L2059.87 3.00612L2080.7 33.4556L2078.57 36.5431Z" fill="#EB1947"/>
<path d="M2076.69 47.7172L2049.15 6.6904L2051.08 3.61762L2080.74 47.702L2076.69 47.7172Z" fill="white"/>
<path d="M2070.75 47.1596L2046.43 11.4245L2048.23 8.11242L2074.8 47.1443L2070.75 47.1596Z" fill="white"/>
<path d="M2063.98 47.7209L2052.41 30.7827L2041.08 47.8443L2037.16 47.859L2052.38 24.5598L2068.03 47.7433L2063.98 47.7209Z" fill="white"/>
<path d="M2045.08 47.8337L2052.8 36.1481L2060.67 47.7742L2045.08 47.8337Z" fill="white"/>
<path d="M2048.65 19.7485L2029.88 47.8825L2034.03 47.8669L2051.04 22.4476L2048.65 19.7485Z" fill="white"/>
<path d="M2045.89 14.212L2023.28 47.9038L2027.41 47.8883L2048.04 17.2835L2045.89 14.212Z" fill="white"/>
<path d="M2304.36 2.21035L2277.09 43.4432L2279.05 46.5014L2308.41 2.1951L2304.36 2.21035Z" fill="#EB1947"/>
<path d="M2298.6 2.22871L2274.5 38.1506L2276.33 41.449L2302.63 2.21352L2298.6 2.22871Z" fill="#EB1947"/>
<path d="M2291.65 2.2889L2280.2 19.3182L2268.75 2.3371L2264.84 2.35177L2280.22 25.5365L2295.7 2.23613L2291.65 2.2889Z" fill="#EB1947"/>
<path d="M2272.76 2.31817L2280.55 13.9447L2288.35 2.25872L2272.76 2.31817Z" fill="#EB1947"/>
<path d="M2276.51 30.3674L2257.55 2.37026L2261.71 2.35467L2278.88 27.6457L2276.51 30.3674Z" fill="#EB1947"/>
<path d="M2273.7 35.915L2250.86 2.39366L2254.99 2.37819L2275.82 32.8275L2273.7 35.915Z" fill="#EB1947"/>
<path d="M2271.81 47.0891L2244.27 6.0625L2246.21 2.98974L2275.86 47.0739L2271.81 47.0891Z" fill="white"/>
<path d="M2265.88 46.5317L2241.55 10.7966L2243.36 7.48449L2269.92 46.5165L2265.88 46.5317Z" fill="white"/>
<path d="M2259.1 47.0931L2247.53 30.1549L2236.2 47.2165L2232.28 47.2312L2247.51 23.932L2263.15 47.1155L2259.1 47.0931Z" fill="white"/>
<path d="M2240.2 47.2057L2247.92 35.52L2255.79 47.1462L2240.2 47.2057Z" fill="white"/>
<path d="M2243.77 19.1206L2225 47.2545L2229.16 47.239L2246.16 21.8197L2243.77 19.1206Z" fill="white"/>
<path d="M2241.01 13.5841L2218.4 47.276L2222.53 47.2605L2243.16 16.6556L2241.01 13.5841Z" fill="white"/>
<path d="M1581.9 0.856619L1554.64 42.0898L1556.59 45.148L1585.96 0.841363L1581.9 0.856619Z" fill="#00B0E3"/>
<path d="M1576.5 0.873339L1552.41 36.7952L1554.24 40.0935L1580.54 0.858134L1576.5 0.873339Z" fill="#00B0E3"/>
<path d="M1569.56 0.93374L1558.1 17.9631L1546.66 0.981935L1542.74 0.996605L1558.12 24.1813L1573.61 0.880967L1569.56 0.93374Z" fill="#00B0E3"/>
<path d="M1550.66 0.962831L1558.46 12.5894L1566.25 0.903384L1550.66 0.962831Z" fill="#00B0E3"/>
<path d="M1554.41 29.0119L1535.46 1.01472L1539.61 0.999129L1556.79 26.2902L1554.41 29.0119Z" fill="#00B0E3"/>
<path d="M1551.69 34.5595L1528.86 1.03797L1532.99 1.02249L1553.82 31.472L1551.69 34.5595Z" fill="#00B0E3"/>
<path d="M1549.81 46.3072L1522.27 5.28538L1524.2 2.20792L1553.86 46.292L1549.81 46.3072Z" fill="#EB1947"/>
<path d="M1544.04 46.3276L1519.71 10.5878L1521.51 7.2804L1548.08 46.3124L1544.04 46.3276Z" fill="#EB1947"/>
<path d="M1537.1 46.316L1525.52 29.3731L1514.19 46.4347L1510.28 46.4494L1525.5 23.1502L1541.15 46.3337L1537.1 46.316Z" fill="#EB1947"/>
<path d="M1518.2 46.4238L1525.92 34.7428L1533.79 46.3644L1518.2 46.4238Z" fill="#EB1947"/>
<path d="M1521.77 18.3389L1502.99 46.4729L1507.15 46.4573L1524.16 21.0428L1521.77 18.3389Z" fill="#EB1947"/>
<path d="M1519.01 12.8022L1496.4 46.4941L1500.53 46.4786L1521.15 15.8784L1519.01 12.8022Z" fill="#EB1947"/>
<path d="M1516.96 1.64339L1489.69 42.8715L1491.65 45.9343L1521.02 1.62813L1516.96 1.64339Z" fill="white"/>
<path d="M1511.03 2.23636L1486.94 38.1583L1488.77 41.4567L1515.07 2.22118L1511.03 2.23636Z" fill="white"/>
<path d="M1504.25 1.71765L1492.79 18.7469L1481.35 1.77054L1477.44 1.7852L1492.81 24.9698L1508.31 1.66956L1504.25 1.71765Z" fill="white"/>
<path d="M1485.36 1.75139L1493.15 13.3733L1500.95 1.69193L1485.36 1.75139Z" fill="white"/>
<path d="M1489.11 29.7959L1470.15 1.80333L1474.31 1.78774L1491.49 27.0789L1489.11 29.7959Z" fill="white"/>
<path d="M1486.39 35.3478L1463.55 1.8268L1467.68 1.81127L1488.51 32.2555L1486.39 35.3478Z" fill="white"/>
<path d="M1483.87 46.5194L1456.33 5.49744L1458.27 2.41995L1487.92 46.5042L1483.87 46.5194Z" fill="#00B0E3"/>
<path d="M1478.1 46.5398L1453.77 10.8L1455.58 7.49266L1482.14 46.5246L1478.1 46.5398Z" fill="#00B0E3"/>
<path d="M1471.16 46.5282L1459.58 29.5854L1448.26 46.6469L1444.34 46.6615L1459.56 23.3625L1475.21 46.5459L1471.16 46.5282Z" fill="#00B0E3"/>
<path d="M1452.26 46.6362L1459.98 34.9552L1467.85 46.5767L1452.26 46.6362Z" fill="#00B0E3"/>
<path d="M1455.83 18.5509L1437.06 46.685L1441.21 46.6695L1458.22 21.2547L1455.83 18.5509Z" fill="#00B0E3"/>
<path d="M1453.07 13.0144L1430.46 46.7061L1434.59 46.6906L1455.21 16.0906L1453.07 13.0144Z" fill="#00B0E3"/>
<path d="M1451.11 1.27684L1423.84 42.5099L1425.8 45.5681L1455.16 1.26158L1451.11 1.27684Z" fill="#EB1947"/>
<path d="M1445.35 1.29527L1421.25 37.2173L1423.08 40.5157L1449.38 1.28008L1445.35 1.29527Z" fill="#EB1947"/>
<path d="M1438.4 1.35588L1426.94 18.385L1415.5 1.40407L1411.59 1.41874L1426.97 24.6032L1442.45 1.30311L1438.4 1.35588Z" fill="#EB1947"/>
<path d="M1419.51 1.38479L1427.3 13.0114L1435.1 1.32534L1419.51 1.38479Z" fill="#EB1947"/>
<path d="M1423.26 29.4338L1404.3 1.43667L1408.46 1.42108L1425.63 26.7121L1423.26 29.4338Z" fill="#EB1947"/>
<path d="M1420.45 34.9817L1397.61 1.46019L1401.74 1.44472L1422.57 31.8942L1420.45 34.9817Z" fill="#EB1947"/>
<path d="M1418.56 46.1556L1391.02 5.12902L1392.95 2.05627L1422.61 46.1404L1418.56 46.1556Z" fill="white"/>
<path d="M1412.63 45.5983L1388.3 9.86307L1390.11 6.55099L1416.67 45.5831L1412.63 45.5983Z" fill="white"/>
<path d="M1405.85 46.1597L1394.28 29.2214L1382.95 46.2831L1379.03 46.2977L1394.26 22.9985L1409.9 46.1821L1405.85 46.1597Z" fill="white"/>
<path d="M1386.95 46.2724L1394.67 34.5867L1402.54 46.213L1386.95 46.2724Z" fill="white"/>
<path d="M1390.52 18.1874L1371.75 46.3214L1375.91 46.3059L1392.91 20.8865L1390.52 18.1874Z" fill="white"/>
<path d="M1387.76 12.6506L1365.15 46.3425L1369.28 46.327L1389.91 15.7221L1387.76 12.6506Z" fill="white"/>
<path d="M1777.03 2.41791L1749.76 43.6508L1751.72 46.7089L1781.08 2.40266L1777.03 2.41791Z" fill="#00B0E3"/>
<path d="M1771.62 2.4347L1747.54 38.3566L1749.36 41.6549L1775.66 2.4195L1771.62 2.4347Z" fill="#00B0E3"/>
<path d="M1764.69 2.49484L1753.23 19.5242L1741.78 2.54303L1737.87 2.55771L1753.25 25.7424L1768.74 2.44207L1764.69 2.49484Z" fill="#00B0E3"/>
<path d="M1745.79 2.52402L1753.59 14.1506L1761.38 2.46458L1745.79 2.52402Z" fill="#00B0E3"/>
<path d="M1749.54 30.5733L1730.58 2.57616L1734.74 2.56057L1751.92 27.8516L1749.54 30.5733Z" fill="#00B0E3"/>
<path d="M1746.82 36.1209L1723.98 2.59923L1728.11 2.58374L1748.95 33.0334L1746.82 36.1209Z" fill="#00B0E3"/>
<path d="M1744.94 47.8686L1717.4 6.8465L1719.33 3.76902L1748.99 47.8534L1744.94 47.8686Z" fill="#EB1947"/>
<path d="M1739.17 47.8888L1714.84 12.1489L1716.64 8.84155L1743.2 47.8737L1739.17 47.8888Z" fill="#EB1947"/>
<path d="M1732.22 47.8773L1720.65 30.9344L1709.32 47.996L1705.41 48.0107L1720.63 24.7115L1736.28 47.895L1732.22 47.8773Z" fill="#EB1947"/>
<path d="M1713.33 47.9852L1721.05 36.304L1728.92 47.9258L1713.33 47.9852Z" fill="#EB1947"/>
<path d="M1716.9 19.9002L1698.12 48.0342L1702.28 48.0186L1719.29 22.604L1716.9 19.9002Z" fill="#EB1947"/>
<path d="M1714.14 14.3634L1691.53 48.0554L1695.65 48.0399L1716.28 17.4396L1714.14 14.3634Z" fill="#EB1947"/>
<path d="M1712.09 3.20449L1684.82 44.4329L1686.77 47.4957L1716.14 3.18923L1712.09 3.20449Z" fill="white"/>
<path d="M1706.16 3.79768L1682.07 39.7196L1683.9 43.018L1710.2 3.78249L1706.16 3.79768Z" fill="white"/>
<path d="M1699.38 3.27883L1687.92 20.3082L1676.48 3.33173L1672.57 3.34639L1687.94 26.5312L1703.43 3.23075L1699.38 3.27883Z" fill="white"/>
<path d="M1680.48 3.31275L1688.28 14.9345L1696.08 3.25328L1680.48 3.31275Z" fill="white"/>
<path d="M1684.24 31.3571L1665.28 3.36462L1669.43 3.34903L1686.61 28.6401L1684.24 31.3571Z" fill="white"/>
<path d="M1681.51 36.9094L1658.68 3.38788L1662.81 3.37241L1683.64 33.8172L1681.51 36.9094Z" fill="white"/>
<path d="M1679 48.0806L1651.46 7.05876L1653.39 3.98128L1683.05 48.0654L1679 48.0806Z" fill="#00B0E3"/>
<path d="M1673.23 48.1009L1648.9 12.3613L1650.71 9.05392L1677.27 48.0857L1673.23 48.1009Z" fill="#00B0E3"/>
<path d="M1666.28 48.0894L1654.71 31.1465L1643.39 48.2081L1639.47 48.2228L1654.69 24.9236L1670.34 48.1071L1666.28 48.0894Z" fill="#00B0E3"/>
<path d="M1647.39 48.1974L1655.11 36.5163L1662.98 48.1379L1647.39 48.1974Z" fill="#00B0E3"/>
<path d="M1650.96 20.1124L1632.19 48.2461L1636.34 48.2305L1653.35 22.8162L1650.96 20.1124Z" fill="#00B0E3"/>
<path d="M1648.2 14.5757L1625.59 48.2676L1629.71 48.2522L1650.34 17.6519L1648.2 14.5757Z" fill="#00B0E3"/>
<path d="M1646.24 2.83812L1618.97 44.0712L1620.93 47.1294L1650.29 2.82286L1646.24 2.83812Z" fill="#EB1947"/>
<path d="M1640.47 2.85663L1616.38 38.7786L1618.21 42.077L1644.51 2.84144L1640.47 2.85663Z" fill="#EB1947"/>
<path d="M1633.53 2.91681L1622.07 19.9461L1610.63 2.96501L1606.71 2.97968L1622.09 26.1643L1637.58 2.86404L1633.53 2.91681Z" fill="#EB1947"/>
<path d="M1614.64 2.94611L1622.43 14.5727L1630.23 2.88666L1614.64 2.94611Z" fill="#EB1947"/>
<path d="M1618.39 30.9955L1599.43 2.99826L1603.59 2.98267L1620.76 28.2738L1618.39 30.9955Z" fill="#EB1947"/>
<path d="M1615.57 36.5431L1592.74 3.02159L1596.87 3.00612L1617.7 33.4556L1615.57 36.5431Z" fill="#EB1947"/>
<path d="M1613.69 47.7172L1586.15 6.6904L1588.08 3.61762L1617.74 47.702L1613.69 47.7172Z" fill="white"/>
<path d="M1607.75 47.1596L1583.43 11.4245L1585.23 8.11242L1611.8 47.1443L1607.75 47.1596Z" fill="white"/>
<path d="M1600.98 47.7209L1589.41 30.7827L1578.08 47.8443L1574.16 47.859L1589.38 24.5598L1605.03 47.7433L1600.98 47.7209Z" fill="white"/>
<path d="M1582.08 47.8337L1589.8 36.1481L1597.67 47.7742L1582.08 47.8337Z" fill="white"/>
<path d="M1585.65 19.7485L1566.88 47.8825L1571.03 47.8669L1588.04 22.4476L1585.65 19.7485Z" fill="white"/>
<path d="M1582.89 14.212L1560.28 47.9038L1564.41 47.8883L1585.04 17.2835L1582.89 14.212Z" fill="white"/>
<path d="M1841.36 2.21035L1814.09 43.4432L1816.05 46.5014L1845.41 2.1951L1841.36 2.21035Z" fill="#EB1947"/>
<path d="M1835.6 2.22871L1811.5 38.1506L1813.33 41.449L1839.63 2.21352L1835.6 2.22871Z" fill="#EB1947"/>
<path d="M1828.65 2.2889L1817.2 19.3182L1805.75 2.3371L1801.84 2.35177L1817.22 25.5365L1832.7 2.23613L1828.65 2.2889Z" fill="#EB1947"/>
<path d="M1809.76 2.31817L1817.55 13.9447L1825.35 2.25872L1809.76 2.31817Z" fill="#EB1947"/>
<path d="M1813.51 30.3674L1794.55 2.37026L1798.71 2.35467L1815.88 27.6457L1813.51 30.3674Z" fill="#EB1947"/>
<path d="M1810.7 35.915L1787.86 2.39366L1791.99 2.37819L1812.82 32.8275L1810.7 35.915Z" fill="#EB1947"/>
<path d="M1808.81 47.0891L1781.27 6.0625L1783.21 2.98974L1812.86 47.0739L1808.81 47.0891Z" fill="white"/>
<path d="M1802.88 46.5317L1778.55 10.7966L1780.36 7.48449L1806.92 46.5165L1802.88 46.5317Z" fill="white"/>
<path d="M1796.1 47.0931L1784.53 30.1549L1773.2 47.2165L1769.28 47.2312L1784.51 23.932L1800.15 47.1155L1796.1 47.0931Z" fill="white"/>
<path d="M1777.2 47.2057L1784.92 35.52L1792.79 47.1462L1777.2 47.2057Z" fill="white"/>
<path d="M1780.77 19.1206L1762 47.2545L1766.16 47.239L1783.16 21.8197L1780.77 19.1206Z" fill="white"/>
<path d="M1778.01 13.5841L1755.4 47.276L1759.53 47.2605L1780.16 16.6556L1778.01 13.5841Z" fill="white"/>
<path d="M1126.9 0.856619L1099.64 42.0898L1101.59 45.148L1130.96 0.841363L1126.9 0.856619Z" fill="#00B0E3"/>
<path d="M1121.5 0.873339L1097.41 36.7952L1099.24 40.0935L1125.54 0.858134L1121.5 0.873339Z" fill="#00B0E3"/>
<path d="M1114.56 0.93374L1103.1 17.9631L1091.66 0.981935L1087.74 0.996605L1103.12 24.1813L1118.61 0.880967L1114.56 0.93374Z" fill="#00B0E3"/>
<path d="M1095.66 0.962831L1103.46 12.5894L1111.25 0.903384L1095.66 0.962831Z" fill="#00B0E3"/>
<path d="M1099.41 29.0119L1080.46 1.01472L1084.61 0.999129L1101.79 26.2902L1099.41 29.0119Z" fill="#00B0E3"/>
<path d="M1096.69 34.5595L1073.86 1.03797L1077.99 1.02249L1098.82 31.472L1096.69 34.5595Z" fill="#00B0E3"/>
<path d="M1094.81 46.3072L1067.27 5.28538L1069.2 2.20792L1098.86 46.292L1094.81 46.3072Z" fill="#EB1947"/>
<path d="M1089.04 46.3276L1064.71 10.5878L1066.51 7.2804L1093.08 46.3124L1089.04 46.3276Z" fill="#EB1947"/>
<path d="M1082.1 46.316L1070.52 29.3731L1059.19 46.4347L1055.28 46.4494L1070.5 23.1502L1086.15 46.3337L1082.1 46.316Z" fill="#EB1947"/>
<path d="M1063.2 46.4238L1070.92 34.7428L1078.79 46.3644L1063.2 46.4238Z" fill="#EB1947"/>
<path d="M1066.77 18.3389L1047.99 46.4729L1052.15 46.4573L1069.16 21.0428L1066.77 18.3389Z" fill="#EB1947"/>
<path d="M1064.01 12.8022L1041.4 46.4941L1045.53 46.4786L1066.15 15.8784L1064.01 12.8022Z" fill="#EB1947"/>
<path d="M1061.96 1.64339L1034.69 42.8715L1036.65 45.9343L1066.02 1.62813L1061.96 1.64339Z" fill="white"/>
<path d="M1056.03 2.23636L1031.94 38.1583L1033.77 41.4567L1060.07 2.22118L1056.03 2.23636Z" fill="white"/>
<path d="M1049.25 1.71765L1037.79 18.7469L1026.35 1.77054L1022.44 1.7852L1037.81 24.9698L1053.31 1.66956L1049.25 1.71765Z" fill="white"/>
<path d="M1030.36 1.75139L1038.15 13.3733L1045.95 1.69193L1030.36 1.75139Z" fill="white"/>
<path d="M1034.11 29.7959L1015.15 1.80333L1019.31 1.78774L1036.49 27.0789L1034.11 29.7959Z" fill="white"/>
<path d="M1031.38 35.3478L1008.55 1.8268L1012.68 1.81127L1033.51 32.2555L1031.38 35.3478Z" fill="white"/>
<path d="M1028.87 46.5194L1001.33 5.49744L1003.27 2.41995L1032.92 46.5042L1028.87 46.5194Z" fill="#00B0E3"/>
<path d="M1023.1 46.5398L998.774 10.8L1000.58 7.49266L1027.14 46.5246L1023.1 46.5398Z" fill="#00B0E3"/>
<path d="M1016.16 46.5282L1004.58 29.5854L993.258 46.6469L989.342 46.6615L1004.56 23.3625L1020.21 46.5459L1016.16 46.5282Z" fill="#00B0E3"/>
<path d="M997.262 46.6362L1004.98 34.9552L1012.85 46.5767L997.262 46.6362Z" fill="#00B0E3"/>
<path d="M1000.83 18.5509L982.059 46.685L986.212 46.6695L1003.22 21.2547L1000.83 18.5509Z" fill="#00B0E3"/>
<path d="M998.069 13.0144L975.46 46.7061L979.586 46.6906L1000.21 16.0906L998.069 13.0144Z" fill="#00B0E3"/>
<path d="M996.109 1.27684L968.842 42.5099L970.799 45.5681L1000.16 1.26158L996.109 1.27684Z" fill="#EB1947"/>
<path d="M990.345 1.29527L966.253 37.2173L968.081 40.5157L994.381 1.28008L990.345 1.29527Z" fill="#EB1947"/>
<path d="M983.404 1.35588L971.945 18.385L960.501 1.40407L956.585 1.41874L971.966 24.6032L987.454 1.30311L983.404 1.35588Z" fill="#EB1947"/>
<path d="M964.508 1.38479L972.302 13.0114L980.096 1.32534L964.508 1.38479Z" fill="#EB1947"/>
<path d="M968.259 29.4338L949.302 1.43667L953.459 1.42108L970.634 26.7121L968.259 29.4338Z" fill="#EB1947"/>
<path d="M965.445 34.9817L942.612 1.46019L946.737 1.44472L967.569 31.8942L965.445 34.9817Z" fill="#EB1947"/>
<path d="M963.559 46.1556L936.023 5.12902L937.954 2.05627L967.613 46.1404L963.559 46.1556Z" fill="white"/>
<path d="M957.627 45.5983L933.3 9.86307L935.106 6.55099L961.667 45.5831L957.627 45.5983Z" fill="white"/>
<path d="M950.849 46.1597L939.276 29.2214L927.947 46.2831L924.031 46.2977L939.256 22.9985L954.904 46.1821L950.849 46.1597Z" fill="white"/>
<path d="M931.951 46.2724L939.669 34.5867L947.539 46.213L931.951 46.2724Z" fill="white"/>
<path d="M935.523 18.1874L916.749 46.3214L920.905 46.3059L937.911 20.8865L935.523 18.1874Z" fill="white"/>
<path d="M932.758 12.6506L910.149 46.3425L914.279 46.327L934.907 15.7221L932.758 12.6506Z" fill="white"/>
<path d="M1322.03 2.41791L1294.76 43.6508L1296.72 46.7089L1326.08 2.40266L1322.03 2.41791Z" fill="#00B0E3"/>
<path d="M1316.62 2.4347L1292.54 38.3566L1294.36 41.6549L1320.66 2.4195L1316.62 2.4347Z" fill="#00B0E3"/>
<path d="M1309.69 2.49484L1298.23 19.5242L1286.78 2.54303L1282.87 2.55771L1298.25 25.7424L1313.74 2.44207L1309.69 2.49484Z" fill="#00B0E3"/>
<path d="M1290.79 2.52402L1298.59 14.1506L1306.38 2.46458L1290.79 2.52402Z" fill="#00B0E3"/>
<path d="M1294.54 30.5733L1275.58 2.57616L1279.74 2.56057L1296.92 27.8516L1294.54 30.5733Z" fill="#00B0E3"/>
<path d="M1291.82 36.1209L1268.98 2.59923L1273.11 2.58374L1293.95 33.0334L1291.82 36.1209Z" fill="#00B0E3"/>
<path d="M1289.94 47.8686L1262.4 6.8465L1264.33 3.76902L1293.99 47.8534L1289.94 47.8686Z" fill="#EB1947"/>
<path d="M1284.17 47.8888L1259.84 12.1489L1261.64 8.84155L1288.2 47.8737L1284.17 47.8888Z" fill="#EB1947"/>
<path d="M1277.22 47.8773L1265.65 30.9344L1254.32 47.996L1250.41 48.0107L1265.63 24.7115L1281.28 47.895L1277.22 47.8773Z" fill="#EB1947"/>
<path d="M1258.33 47.9852L1266.05 36.304L1273.92 47.9258L1258.33 47.9852Z" fill="#EB1947"/>
<path d="M1261.9 19.9002L1243.12 48.0342L1247.28 48.0186L1264.29 22.604L1261.9 19.9002Z" fill="#EB1947"/>
<path d="M1259.14 14.3634L1236.53 48.0554L1240.65 48.0399L1261.28 17.4396L1259.14 14.3634Z" fill="#EB1947"/>
<path d="M1257.09 3.20449L1229.82 44.4329L1231.77 47.4957L1261.14 3.18923L1257.09 3.20449Z" fill="white"/>
<path d="M1251.16 3.79768L1227.07 39.7196L1228.9 43.018L1255.2 3.78249L1251.16 3.79768Z" fill="white"/>
<path d="M1244.38 3.27883L1232.92 20.3082L1221.48 3.33173L1217.57 3.34639L1232.94 26.5312L1248.43 3.23075L1244.38 3.27883Z" fill="white"/>
<path d="M1225.48 3.31275L1233.28 14.9345L1241.08 3.25328L1225.48 3.31275Z" fill="white"/>
<path d="M1229.24 31.3571L1210.28 3.36462L1214.43 3.34903L1231.61 28.6401L1229.24 31.3571Z" fill="white"/>
<path d="M1226.51 36.9094L1203.68 3.38788L1207.81 3.37241L1228.64 33.8172L1226.51 36.9094Z" fill="white"/>
<path d="M1224 48.0806L1196.46 7.05876L1198.39 3.98128L1228.05 48.0654L1224 48.0806Z" fill="#00B0E3"/>
<path d="M1218.23 48.1009L1193.9 12.3613L1195.71 9.05392L1222.27 48.0857L1218.23 48.1009Z" fill="#00B0E3"/>
<path d="M1211.28 48.0894L1199.71 31.1465L1188.39 48.2081L1184.47 48.2228L1199.69 24.9236L1215.34 48.1071L1211.28 48.0894Z" fill="#00B0E3"/>
<path d="M1192.39 48.1974L1200.11 36.5163L1207.98 48.1379L1192.39 48.1974Z" fill="#00B0E3"/>
<path d="M1195.96 20.1124L1177.19 48.2461L1181.34 48.2305L1198.35 22.8162L1195.96 20.1124Z" fill="#00B0E3"/>
<path d="M1193.2 14.5757L1170.59 48.2676L1174.71 48.2522L1195.34 17.6519L1193.2 14.5757Z" fill="#00B0E3"/>
<path d="M1191.24 2.83812L1163.97 44.0712L1165.93 47.1294L1195.29 2.82286L1191.24 2.83812Z" fill="#EB1947"/>
<path d="M1185.47 2.85663L1161.38 38.7786L1163.21 42.077L1189.51 2.84144L1185.47 2.85663Z" fill="#EB1947"/>
<path d="M1178.53 2.91681L1167.07 19.9461L1155.63 2.96501L1151.71 2.97968L1167.09 26.1643L1182.58 2.86404L1178.53 2.91681Z" fill="#EB1947"/>
<path d="M1159.64 2.94611L1167.43 14.5727L1175.23 2.88666L1159.64 2.94611Z" fill="#EB1947"/>
<path d="M1163.39 30.9955L1144.43 2.99826L1148.59 2.98267L1165.76 28.2738L1163.39 30.9955Z" fill="#EB1947"/>
<path d="M1160.57 36.5431L1137.74 3.02159L1141.87 3.00612L1162.7 33.4556L1160.57 36.5431Z" fill="#EB1947"/>
<path d="M1158.69 47.7172L1131.15 6.6904L1133.08 3.61762L1162.74 47.702L1158.69 47.7172Z" fill="white"/>
<path d="M1152.75 47.1596L1128.43 11.4245L1130.23 8.11242L1156.8 47.1443L1152.75 47.1596Z" fill="white"/>
<path d="M1145.98 47.7209L1134.41 30.7827L1123.08 47.8443L1119.16 47.859L1134.38 24.5598L1150.03 47.7433L1145.98 47.7209Z" fill="white"/>
<path d="M1127.08 47.8337L1134.8 36.1481L1142.67 47.7742L1127.08 47.8337Z" fill="white"/>
<path d="M1130.65 19.7485L1111.88 47.8825L1116.03 47.8669L1133.04 22.4476L1130.65 19.7485Z" fill="white"/>
<path d="M1127.89 14.212L1105.28 47.9038L1109.41 47.8883L1130.04 17.2835L1127.89 14.212Z" fill="white"/>
<path d="M1386.36 2.21035L1359.09 43.4432L1361.05 46.5014L1390.41 2.1951L1386.36 2.21035Z" fill="#EB1947"/>
<path d="M1380.6 2.22871L1356.5 38.1506L1358.33 41.449L1384.63 2.21352L1380.6 2.22871Z" fill="#EB1947"/>
<path d="M1373.65 2.2889L1362.2 19.3182L1350.75 2.3371L1346.84 2.35177L1362.22 25.5365L1377.7 2.23613L1373.65 2.2889Z" fill="#EB1947"/>
<path d="M1354.76 2.31817L1362.55 13.9447L1370.35 2.25872L1354.76 2.31817Z" fill="#EB1947"/>
<path d="M1358.51 30.3674L1339.55 2.37026L1343.71 2.35467L1360.88 27.6457L1358.51 30.3674Z" fill="#EB1947"/>
<path d="M1355.7 35.915L1332.86 2.39366L1336.99 2.37819L1357.82 32.8275L1355.7 35.915Z" fill="#EB1947"/>
<path d="M1353.81 47.0891L1326.27 6.0625L1328.21 2.98974L1357.86 47.0739L1353.81 47.0891Z" fill="white"/>
<path d="M1347.88 46.5317L1323.55 10.7966L1325.36 7.48449L1351.92 46.5165L1347.88 46.5317Z" fill="white"/>
<path d="M1341.1 47.0931L1329.53 30.1549L1318.2 47.2165L1314.28 47.2312L1329.51 23.932L1345.15 47.1155L1341.1 47.0931Z" fill="white"/>
<path d="M1322.2 47.2057L1329.92 35.52L1337.79 47.1462L1322.2 47.2057Z" fill="white"/>
<path d="M1325.77 19.1206L1307 47.2545L1311.16 47.239L1328.16 21.8197L1325.77 19.1206Z" fill="white"/>
<path d="M1323.01 13.5841L1300.4 47.276L1304.53 47.2605L1325.16 16.6556L1323.01 13.5841Z" fill="white"/>
<path d="M671.902 0.856619L644.635 42.0898L646.592 45.148L675.956 0.841363L671.902 0.856619Z" fill="#00B0E3"/>
<path d="M666.495 0.873339L642.407 36.7952L644.235 40.0935L670.536 0.858134L666.495 0.873339Z" fill="#00B0E3"/>
<path d="M659.558 0.93374L648.099 17.9631L636.656 0.981935L632.74 0.996605L648.12 24.1813L663.608 0.880967L659.558 0.93374Z" fill="#00B0E3"/>
<path d="M640.663 0.962831L648.458 12.5894L656.251 0.903384L640.663 0.962831Z" fill="#00B0E3"/>
<path d="M644.413 29.0119L625.456 1.01472L629.613 0.999129L646.789 26.2902L644.413 29.0119Z" fill="#00B0E3"/>
<path d="M641.689 34.5595L618.856 1.03797L622.986 1.02249L643.817 31.472L641.689 34.5595Z" fill="#00B0E3"/>
<path d="M639.809 46.3072L612.268 5.28538L614.2 2.20792L643.863 46.292L639.809 46.3072Z" fill="#EB1947"/>
<path d="M634.039 46.3276L609.712 10.5878L611.514 7.2804L638.075 46.3124L634.039 46.3276Z" fill="#EB1947"/>
<path d="M627.095 46.316L615.522 29.3731L604.193 46.4347L600.282 46.4494L615.502 23.1502L631.15 46.3337L627.095 46.316Z" fill="#EB1947"/>
<path d="M608.197 46.4238L615.919 34.7428L623.79 46.3644L608.197 46.4238Z" fill="#EB1947"/>
<path d="M611.768 18.3389L592.994 46.4729L597.151 46.4573L614.162 21.0428L611.768 18.3389Z" fill="#EB1947"/>
<path d="M609.008 12.8022L586.4 46.4941L590.525 46.4786L611.153 15.8784L609.008 12.8022Z" fill="#EB1947"/>
<path d="M606.961 1.64339L579.694 42.8715L581.647 45.9343L611.015 1.62813L606.961 1.64339Z" fill="white"/>
<path d="M601.033 2.23636L576.941 38.1583L578.769 41.4567L605.069 2.22118L601.033 2.23636Z" fill="white"/>
<path d="M594.251 1.71765L582.792 18.7469L571.349 1.77054L567.437 1.7852L582.813 24.9698L598.305 1.66956L594.251 1.71765Z" fill="white"/>
<path d="M575.356 1.75139L583.155 13.3733L590.949 1.69193L575.356 1.75139Z" fill="white"/>
<path d="M579.111 29.7959L560.149 1.80333L564.305 1.78774L581.486 27.0789L579.111 29.7959Z" fill="white"/>
<path d="M576.385 35.3478L553.552 1.8268L557.677 1.81127L578.509 32.2555L576.385 35.3478Z" fill="white"/>
<path d="M573.87 46.5194L546.329 5.49744L548.266 2.41995L577.924 46.5042L573.87 46.5194Z" fill="#00B0E3"/>
<path d="M568.101 46.5398L543.774 10.8L545.58 7.49266L572.141 46.5246L568.101 46.5398Z" fill="#00B0E3"/>
<path d="M561.156 46.5282L549.583 29.5854L538.258 46.6469L534.342 46.6615L549.562 23.3625L565.21 46.5459L561.156 46.5282Z" fill="#00B0E3"/>
<path d="M542.262 46.6362L549.98 34.9552L557.85 46.5767L542.262 46.6362Z" fill="#00B0E3"/>
<path d="M545.829 18.5509L527.059 46.685L531.212 46.6695L548.222 21.2547L545.829 18.5509Z" fill="#00B0E3"/>
<path d="M543.069 13.0144L520.46 46.7061L524.586 46.6906L545.213 16.0906L543.069 13.0144Z" fill="#00B0E3"/>
<path d="M541.109 1.27684L513.842 42.5099L515.799 45.5681L545.163 1.26158L541.109 1.27684Z" fill="#EB1947"/>
<path d="M535.345 1.29527L511.253 37.2173L513.081 40.5157L539.381 1.28008L535.345 1.29527Z" fill="#EB1947"/>
<path d="M528.404 1.35588L516.945 18.385L505.501 1.40407L501.585 1.41874L516.966 24.6032L532.454 1.30311L528.404 1.35588Z" fill="#EB1947"/>
<path d="M509.508 1.38479L517.302 13.0114L525.096 1.32534L509.508 1.38479Z" fill="#EB1947"/>
<path d="M513.259 29.4338L494.302 1.43667L498.459 1.42108L515.634 26.7121L513.259 29.4338Z" fill="#EB1947"/>
<path d="M510.445 34.9817L487.612 1.46019L491.737 1.44472L512.569 31.8942L510.445 34.9817Z" fill="#EB1947"/>
<path d="M508.559 46.1556L481.023 5.12902L482.954 2.05627L512.613 46.1404L508.559 46.1556Z" fill="white"/>
<path d="M502.627 45.5983L478.3 9.86307L480.106 6.55099L506.667 45.5831L502.627 45.5983Z" fill="white"/>
<path d="M495.849 46.1597L484.276 29.2214L472.947 46.2831L469.031 46.2977L484.256 22.9985L499.904 46.1821L495.849 46.1597Z" fill="white"/>
<path d="M476.951 46.2724L484.669 34.5867L492.539 46.213L476.951 46.2724Z" fill="white"/>
<path d="M480.523 18.1874L461.749 46.3214L465.905 46.3059L482.911 20.8865L480.523 18.1874Z" fill="white"/>
<path d="M477.758 12.6506L455.149 46.3425L459.279 46.327L479.907 15.7221L477.758 12.6506Z" fill="white"/>
<path d="M867.031 2.41791L839.764 43.6508L841.72 46.7089L871.085 2.40266L867.031 2.41791Z" fill="#00B0E3"/>
<path d="M861.623 2.4347L837.535 38.3566L839.363 41.6549L865.664 2.4195L861.623 2.4347Z" fill="#00B0E3"/>
<path d="M854.687 2.49484L843.228 19.5242L831.785 2.54303L827.869 2.55771L843.249 25.7424L858.737 2.44207L854.687 2.49484Z" fill="#00B0E3"/>
<path d="M835.792 2.52402L843.586 14.1506L851.38 2.46458L835.792 2.52402Z" fill="#00B0E3"/>
<path d="M839.542 30.5733L820.584 2.57616L824.741 2.56057L841.917 27.8516L839.542 30.5733Z" fill="#00B0E3"/>
<path d="M836.817 36.1209L813.984 2.59923L818.114 2.58374L838.945 33.0334L836.817 36.1209Z" fill="#00B0E3"/>
<path d="M834.937 47.8686L807.396 6.8465L809.328 3.76902L838.991 47.8534L834.937 47.8686Z" fill="#EB1947"/>
<path d="M829.167 47.8888L804.84 12.1489L806.642 8.84155L833.203 47.8737L829.167 47.8888Z" fill="#EB1947"/>
<path d="M822.224 47.8773L810.651 30.9344L799.321 47.996L795.41 48.0107L810.63 24.7115L826.278 47.895L822.224 47.8773Z" fill="#EB1947"/>
<path d="M803.325 47.9852L811.048 36.304L818.918 47.9258L803.325 47.9852Z" fill="#EB1947"/>
<path d="M806.897 19.9002L788.123 48.0342L792.28 48.0186L809.29 22.604L806.897 19.9002Z" fill="#EB1947"/>
<path d="M804.137 14.3634L781.528 48.0554L785.654 48.0399L806.281 17.4396L804.137 14.3634Z" fill="#EB1947"/>
<path d="M802.089 3.20449L774.822 44.4329L776.774 47.4957L806.143 3.18923L802.089 3.20449Z" fill="white"/>
<path d="M796.161 3.79768L772.069 39.7196L773.897 43.018L800.197 3.78249L796.161 3.79768Z" fill="white"/>
<path d="M789.379 3.27883L777.92 20.3082L766.477 3.33173L762.566 3.34639L777.941 26.5312L793.434 3.23075L789.379 3.27883Z" fill="white"/>
<path d="M770.484 3.31275L778.283 14.9345L786.077 3.25328L770.484 3.31275Z" fill="white"/>
<path d="M774.239 31.3571L755.277 3.36462L759.434 3.34903L776.614 28.6401L774.239 31.3571Z" fill="white"/>
<path d="M771.514 36.9094L748.681 3.38788L752.806 3.37241L773.638 33.8172L771.514 36.9094Z" fill="white"/>
<path d="M768.999 48.0806L741.458 7.05876L743.394 3.98128L773.053 48.0654L768.999 48.0806Z" fill="#00B0E3"/>
<path d="M763.229 48.1009L738.902 12.3613L740.708 9.05392L767.269 48.0857L763.229 48.1009Z" fill="#00B0E3"/>
<path d="M756.284 48.0894L744.712 31.1465L733.387 48.2081L729.471 48.2228L744.691 24.9236L760.339 48.1071L756.284 48.0894Z" fill="#00B0E3"/>
<path d="M737.39 48.1974L745.108 36.5163L752.979 48.1379L737.39 48.1974Z" fill="#00B0E3"/>
<path d="M740.958 20.1124L722.188 48.2461L726.34 48.2305L743.351 22.8162L740.958 20.1124Z" fill="#00B0E3"/>
<path d="M738.198 14.5757L715.589 48.2676L719.714 48.2522L740.342 17.6519L738.198 14.5757Z" fill="#00B0E3"/>
<path d="M736.238 2.83812L708.971 44.0712L710.928 47.1294L740.292 2.82286L736.238 2.83812Z" fill="#EB1947"/>
<path d="M730.473 2.85663L706.381 38.7786L708.209 42.077L734.509 2.84144L730.473 2.85663Z" fill="#EB1947"/>
<path d="M723.532 2.91681L712.073 19.9461L700.63 2.96501L696.714 2.97968L712.094 26.1643L727.582 2.86404L723.532 2.91681Z" fill="#EB1947"/>
<path d="M704.638 2.94611L712.432 14.5727L720.225 2.88666L704.638 2.94611Z" fill="#EB1947"/>
<path d="M708.388 30.9955L689.43 2.99826L693.587 2.98267L710.763 28.2738L708.388 30.9955Z" fill="#EB1947"/>
<path d="M705.574 36.5431L682.74 3.02159L686.866 3.00612L707.698 33.4556L705.574 36.5431Z" fill="#EB1947"/>
<path d="M703.688 47.7172L676.151 6.6904L678.083 3.61762L707.742 47.702L703.688 47.7172Z" fill="white"/>
<path d="M697.755 47.1596L673.428 11.4245L675.234 8.11242L701.795 47.1443L697.755 47.1596Z" fill="white"/>
<path d="M690.978 47.7209L679.405 30.7827L668.076 47.8443L664.16 47.859L679.384 24.5598L695.032 47.7433L690.978 47.7209Z" fill="white"/>
<path d="M672.08 47.8337L679.798 36.1481L687.668 47.7742L672.08 47.8337Z" fill="white"/>
<path d="M675.651 19.7485L656.877 47.8825L661.034 47.8669L678.04 22.4476L675.651 19.7485Z" fill="white"/>
<path d="M672.886 14.212L650.278 47.9038L654.408 47.8883L675.035 17.2835L672.886 14.212Z" fill="white"/>
<path d="M931.36 2.21035L904.093 43.4432L906.049 46.5014L935.413 2.1951L931.36 2.21035Z" fill="#EB1947"/>
<path d="M925.595 2.22871L901.503 38.1506L903.331 41.449L929.631 2.21352L925.595 2.22871Z" fill="#EB1947"/>
<path d="M918.654 2.2889L907.195 19.3182L895.752 2.3371L891.836 2.35177L907.216 25.5365L922.704 2.23613L918.654 2.2889Z" fill="#EB1947"/>
<path d="M899.759 2.31817L907.553 13.9447L915.347 2.25872L899.759 2.31817Z" fill="#EB1947"/>
<path d="M903.509 30.3674L884.552 2.37026L888.709 2.35467L905.884 27.6457L903.509 30.3674Z" fill="#EB1947"/>
<path d="M900.696 35.915L877.863 2.39366L881.988 2.37819L902.82 32.8275L900.696 35.915Z" fill="#EB1947"/>
<path d="M898.81 47.0891L871.273 6.0625L873.205 2.98974L902.864 47.0739L898.81 47.0891Z" fill="white"/>
<path d="M892.877 46.5317L868.55 10.7966L870.356 7.48449L896.917 46.5165L892.877 46.5317Z" fill="white"/>
<path d="M886.1 47.0931L874.527 30.1549L863.198 47.2165L859.282 47.2312L874.506 23.932L890.154 47.1155L886.1 47.0931Z" fill="white"/>
<path d="M867.202 47.2057L874.92 35.52L882.79 47.1462L867.202 47.2057Z" fill="white"/>
<path d="M870.773 19.1206L851.999 47.2545L856.156 47.239L873.162 21.8197L870.773 19.1206Z" fill="white"/>
<path d="M868.008 13.5841L845.4 47.276L849.53 47.2605L870.157 16.6556L868.008 13.5841Z" fill="white"/>
<path d="M216.902 0.856619L189.635 42.0898L191.592 45.148L220.956 0.841363L216.902 0.856619Z" fill="#00B0E3"/>
<path d="M211.495 0.873339L187.407 36.7952L189.235 40.0935L215.536 0.858134L211.495 0.873339Z" fill="#00B0E3"/>
<path d="M204.558 0.93374L193.099 17.9631L181.656 0.981935L177.74 0.996605L193.12 24.1813L208.608 0.880967L204.558 0.93374Z" fill="#00B0E3"/>
<path d="M185.663 0.962831L193.458 12.5894L201.251 0.903384L185.663 0.962831Z" fill="#00B0E3"/>
<path d="M189.414 29.0119L170.456 1.01472L174.613 0.999129L191.789 26.2902L189.414 29.0119Z" fill="#00B0E3"/>
<path d="M186.689 34.5595L163.856 1.03797L167.986 1.02249L188.817 31.472L186.689 34.5595Z" fill="#00B0E3"/>
<path d="M184.809 46.3072L157.268 5.28538L159.2 2.20792L188.863 46.292L184.809 46.3072Z" fill="#EB1947"/>
<path d="M179.039 46.3276L154.712 10.5878L156.514 7.2804L183.075 46.3124L179.039 46.3276Z" fill="#EB1947"/>
<path d="M172.095 46.316L160.523 29.3731L149.193 46.4347L145.282 46.4494L160.502 23.1502L176.15 46.3337L172.095 46.316Z" fill="#EB1947"/>
<path d="M153.197 46.4238L160.919 34.7428L168.79 46.3644L153.197 46.4238Z" fill="#EB1947"/>
<path d="M156.768 18.3389L137.994 46.4729L142.151 46.4573L159.162 21.0428L156.768 18.3389Z" fill="#EB1947"/>
<path d="M154.008 12.8022L131.4 46.4941L135.525 46.4786L156.153 15.8784L154.008 12.8022Z" fill="#EB1947"/>
<path d="M151.961 1.64339L124.694 42.8715L126.647 45.9343L156.015 1.62813L151.961 1.64339Z" fill="white"/>
<path d="M146.033 2.23636L121.941 38.1583L123.769 41.4567L150.069 2.22118L146.033 2.23636Z" fill="white"/>
<path d="M139.251 1.71765L127.792 18.7469L116.349 1.77054L112.437 1.7852L127.813 24.9698L143.305 1.66956L139.251 1.71765Z" fill="white"/>
<path d="M120.356 1.75139L128.155 13.3733L135.949 1.69193L120.356 1.75139Z" fill="white"/>
<path d="M124.111 29.7959L105.149 1.80333L109.306 1.78774L126.486 27.0789L124.111 29.7959Z" fill="white"/>
<path d="M121.385 35.3478L98.5521 1.8268L102.678 1.81127L123.509 32.2555L121.385 35.3478Z" fill="white"/>
<path d="M118.87 46.5194L91.3295 5.49744L93.2658 2.41995L122.924 46.5042L118.87 46.5194Z" fill="#00B0E3"/>
<path d="M113.101 46.5398L88.7742 10.8L90.5804 7.49266L117.142 46.5246L113.101 46.5398Z" fill="#00B0E3"/>
<path d="M106.156 46.5282L94.5832 29.5854L83.2583 46.6469L79.3423 46.6615L94.5624 23.3625L110.211 46.5459L106.156 46.5282Z" fill="#00B0E3"/>
<path d="M87.2622 46.6362L94.9801 34.9552L102.85 46.5767L87.2622 46.6362Z" fill="#00B0E3"/>
<path d="M90.8291 18.5509L72.0595 46.685L76.2118 46.6695L93.2224 21.2547L90.8291 18.5509Z" fill="#00B0E3"/>
<path d="M88.0686 13.0144L65.4602 46.7061L69.5856 46.6906L90.2131 16.0906L88.0686 13.0144Z" fill="#00B0E3"/>
<path d="M86.1092 1.27684L58.8422 42.5099L60.799 45.5681L90.1632 1.26158L86.1092 1.27684Z" fill="#EB1947"/>
<path d="M80.3452 1.29527L56.2526 37.2173L58.0807 40.5157L84.3813 1.28008L80.3452 1.29527Z" fill="#EB1947"/>
<path d="M73.4039 1.35588L61.9448 18.385L50.5014 1.40407L46.5854 1.41874L61.9656 24.6032L77.4538 1.30311L73.4039 1.35588Z" fill="#EB1947"/>
<path d="M54.508 1.38479L62.3023 13.0114L70.0962 1.32534L54.508 1.38479Z" fill="#EB1947"/>
<path d="M58.2592 29.4338L39.3019 1.43667L43.4585 1.42108L60.6342 26.7121L58.2592 29.4338Z" fill="#EB1947"/>
<path d="M55.4451 34.9817L32.6119 1.46019L36.7372 1.44472L57.5689 31.8942L55.4451 34.9817Z" fill="#EB1947"/>
<path d="M53.5591 46.1556L26.0226 5.12902L27.9545 2.05627L57.613 46.1404L53.5591 46.1556Z" fill="white"/>
<path d="M47.627 45.5983L23.3002 9.86307L25.1063 6.55099L51.6675 45.5831L47.627 45.5983Z" fill="white"/>
<path d="M40.8492 46.1597L29.2765 29.2214L17.9471 46.2831L14.0311 46.2977L29.2557 22.9985L44.9037 46.1821L40.8492 46.1597Z" fill="white"/>
<path d="M21.9513 46.2724L29.6692 34.5867L37.5394 46.213L21.9513 46.2724Z" fill="white"/>
<path d="M25.5227 18.1874L6.74863 46.3214L10.9053 46.3059L27.9115 20.8865L25.5227 18.1874Z" fill="white"/>
<path d="M22.7581 12.6506L0.14956 46.3425L4.27942 46.327L24.907 15.7221L22.7581 12.6506Z" fill="white"/>
<path d="M412.031 2.41791L384.764 43.6508L386.72 46.7089L416.085 2.40266L412.031 2.41791Z" fill="#00B0E3"/>
<path d="M406.623 2.4347L382.535 38.3566L384.363 41.6549L410.664 2.4195L406.623 2.4347Z" fill="#00B0E3"/>
<path d="M399.687 2.49484L388.228 19.5242L376.785 2.54303L372.869 2.55771L388.249 25.7424L403.737 2.44207L399.687 2.49484Z" fill="#00B0E3"/>
<path d="M380.792 2.52402L388.586 14.1506L396.38 2.46458L380.792 2.52402Z" fill="#00B0E3"/>
<path d="M384.542 30.5733L365.584 2.57616L369.741 2.56057L386.917 27.8516L384.542 30.5733Z" fill="#00B0E3"/>
<path d="M381.817 36.1209L358.984 2.59923L363.114 2.58374L383.945 33.0334L381.817 36.1209Z" fill="#00B0E3"/>
<path d="M379.937 47.8686L352.396 6.8465L354.328 3.76902L383.991 47.8534L379.937 47.8686Z" fill="#EB1947"/>
<path d="M374.167 47.8888L349.841 12.1489L351.642 8.84155L378.204 47.8737L374.167 47.8888Z" fill="#EB1947"/>
<path d="M367.224 47.8773L355.651 30.9344L344.321 47.996L340.41 48.0107L355.63 24.7115L371.278 47.895L367.224 47.8773Z" fill="#EB1947"/>
<path d="M348.325 47.9852L356.048 36.304L363.918 47.9258L348.325 47.9852Z" fill="#EB1947"/>
<path d="M351.897 19.9002L333.123 48.0342L337.28 48.0186L354.29 22.604L351.897 19.9002Z" fill="#EB1947"/>
<path d="M349.137 14.3634L326.528 48.0554L330.654 48.0399L351.281 17.4396L349.137 14.3634Z" fill="#EB1947"/>
<path d="M347.089 3.20449L319.822 44.4329L321.775 47.4957L351.143 3.18923L347.089 3.20449Z" fill="white"/>
<path d="M341.161 3.79768L317.069 39.7196L318.897 43.018L345.197 3.78249L341.161 3.79768Z" fill="white"/>
<path d="M334.379 3.27883L322.92 20.3082L311.477 3.33173L307.566 3.34639L322.941 26.5312L338.434 3.23075L334.379 3.27883Z" fill="white"/>
<path d="M315.484 3.31275L323.283 14.9345L331.077 3.25328L315.484 3.31275Z" fill="white"/>
<path d="M319.239 31.3571L300.277 3.36462L304.434 3.34903L321.614 28.6401L319.239 31.3571Z" fill="white"/>
<path d="M316.514 36.9094L293.681 3.38788L297.806 3.37241L318.638 33.8172L316.514 36.9094Z" fill="white"/>
<path d="M313.999 48.0806L286.458 7.05876L288.394 3.98128L318.053 48.0654L313.999 48.0806Z" fill="#00B0E3"/>
<path d="M308.229 48.1009L283.902 12.3613L285.708 9.05392L312.269 48.0857L308.229 48.1009Z" fill="#00B0E3"/>
<path d="M301.284 48.0894L289.712 31.1465L278.387 48.2081L274.471 48.2228L289.691 24.9236L305.339 48.1071L301.284 48.0894Z" fill="#00B0E3"/>
<path d="M282.391 48.1974L290.108 36.5163L297.979 48.1379L282.391 48.1974Z" fill="#00B0E3"/>
<path d="M285.958 20.1124L267.188 48.2461L271.34 48.2305L288.351 22.8162L285.958 20.1124Z" fill="#00B0E3"/>
<path d="M283.198 14.5757L260.589 48.2676L264.714 48.2522L285.342 17.6519L283.198 14.5757Z" fill="#00B0E3"/>
<path d="M281.238 2.83812L253.971 44.0712L255.928 47.1294L285.292 2.82286L281.238 2.83812Z" fill="#EB1947"/>
<path d="M275.473 2.85663L251.381 38.7786L253.209 42.077L279.509 2.84144L275.473 2.85663Z" fill="#EB1947"/>
<path d="M268.532 2.91681L257.073 19.9461L245.63 2.96501L241.714 2.97968L257.094 26.1643L272.582 2.86404L268.532 2.91681Z" fill="#EB1947"/>
<path d="M249.638 2.94611L257.432 14.5727L265.225 2.88666L249.638 2.94611Z" fill="#EB1947"/>
<path d="M253.388 30.9955L234.43 2.99826L238.587 2.98267L255.763 28.2738L253.388 30.9955Z" fill="#EB1947"/>
<path d="M250.574 36.5431L227.74 3.02159L231.866 3.00612L252.698 33.4556L250.574 36.5431Z" fill="#EB1947"/>
<path d="M248.688 47.7172L221.151 6.6904L223.083 3.61762L252.742 47.702L248.688 47.7172Z" fill="white"/>
<path d="M242.755 47.1596L218.428 11.4245L220.234 8.11242L246.795 47.1443L242.755 47.1596Z" fill="white"/>
<path d="M235.978 47.7209L224.405 30.7827L213.076 47.8443L209.16 47.859L224.384 24.5598L240.032 47.7433L235.978 47.7209Z" fill="white"/>
<path d="M217.08 47.8337L224.798 36.1481L232.668 47.7742L217.08 47.8337Z" fill="white"/>
<path d="M220.651 19.7485L201.877 47.8825L206.034 47.8669L223.04 22.4476L220.651 19.7485Z" fill="white"/>
<path d="M217.886 14.212L195.278 47.9038L199.408 47.8883L220.035 17.2835L217.886 14.212Z" fill="white"/>
<path d="M476.36 2.21035L449.093 43.4432L451.049 46.5014L480.413 2.1951L476.36 2.21035Z" fill="#EB1947"/>
<path d="M470.595 2.22871L446.503 38.1506L448.331 41.449L474.631 2.21352L470.595 2.22871Z" fill="#EB1947"/>
<path d="M463.654 2.2889L452.195 19.3182L440.752 2.3371L436.836 2.35177L452.216 25.5365L467.704 2.23613L463.654 2.2889Z" fill="#EB1947"/>
<path d="M444.759 2.31817L452.553 13.9447L460.347 2.25872L444.759 2.31817Z" fill="#EB1947"/>
<path d="M448.509 30.3674L429.552 2.37026L433.709 2.35467L450.884 27.6457L448.509 30.3674Z" fill="#EB1947"/>
<path d="M445.696 35.915L422.863 2.39366L426.988 2.37819L447.82 32.8275L445.696 35.915Z" fill="#EB1947"/>
<path d="M443.81 47.0891L416.273 6.0625L418.205 2.98974L447.864 47.0739L443.81 47.0891Z" fill="white"/>
<path d="M437.877 46.5317L413.55 10.7966L415.356 7.48449L441.917 46.5165L437.877 46.5317Z" fill="white"/>
<path d="M431.1 47.0931L419.527 30.1549L408.198 47.2165L404.282 47.2312L419.506 23.932L435.154 47.1155L431.1 47.0931Z" fill="white"/>
<path d="M412.202 47.2057L419.92 35.52L427.79 47.1462L412.202 47.2057Z" fill="white"/>
<path d="M415.773 19.1206L396.999 47.2545L401.156 47.239L418.162 21.8197L415.773 19.1206Z" fill="white"/>
<path d="M413.008 13.5841L390.4 47.276L394.53 47.2605L415.157 16.6556L413.008 13.5841Z" fill="white"/>
</svg>
