<svg xmlns="http://www.w3.org/2000/svg" viewBox="0 0 3562.85 53.02"><defs><style>.cls-1{fill:#cccbcb;}</style></defs><title>pattern2</title><g id="Layer_2" data-name="Layer 2"><g id="Layer_1-2" data-name="Layer 1"><polygon class="cls-1" points="1880.67 53.02 1847.71 0 1814.75 53.02 1816.32 53.02 1847.71 2.53 1879.1 53.02 1880.67 53.02"/><polygon class="cls-1" points="1867.71 53.02 1847.71 20.86 1827.71 53.02 1829.29 53.02 1847.71 23.39 1866.13 53.02 1867.71 53.02"/><polygon class="cls-1" points="1854.85 53.02 1847.71 41.53 1840.57 53.02 1854.85 53.02"/><polygon class="cls-1" points="1836.37 0 1834.8 0 1803.41 50.49 1772.02 0 1770.44 0 1803.41 53.02 1836.37 0"/><polygon class="cls-1" points="1783.41 0 1803.41 32.16 1823.4 0 1821.83 0 1803.41 29.63 1784.98 0 1783.41 0"/><polygon class="cls-1" points="1796.26 0 1803.41 11.49 1810.55 0 1796.26 0"/><polygon class="cls-1" points="1969.28 53.02 1936.32 0 1903.35 53.02 1904.93 53.02 1936.32 2.53 1967.71 53.02 1969.28 53.02"/><polygon class="cls-1" points="1956.31 53.02 1936.32 20.86 1916.32 53.02 1917.89 53.02 1936.32 23.39 1954.74 53.02 1956.31 53.02"/><polygon class="cls-1" points="1943.46 53.02 1936.32 41.53 1929.17 53.02 1943.46 53.02"/><polygon class="cls-1" points="1924.98 0 1923.4 0 1892.01 50.49 1860.62 0 1859.05 0 1892.01 53.02 1924.98 0"/><polygon class="cls-1" points="1872.02 0 1892.01 32.16 1912.01 0 1910.44 0 1892.01 29.63 1873.59 0 1872.02 0"/><polygon class="cls-1" points="1884.87 0 1892.01 11.49 1899.16 0 1884.87 0"/><polygon class="cls-1" points="2057.89 53.02 2024.92 0 1991.96 53.02 1993.53 53.02 2024.92 2.53 2056.31 53.02 2057.89 53.02"/><polygon class="cls-1" points="2044.92 53.02 2024.92 20.86 2004.93 53.02 2006.5 53.02 2024.92 23.39 2043.35 53.02 2044.92 53.02"/><polygon class="cls-1" points="2032.07 53.02 2024.92 41.53 2017.78 53.02 2032.07 53.02"/><polygon class="cls-1" points="2013.58 0 2012.01 0 1980.62 50.49 1949.23 0 1947.66 0 1980.62 53.02 2013.58 0"/><polygon class="cls-1" points="1960.62 0 1980.62 32.16 2000.62 0 1999.04 0 1980.62 29.63 1962.2 0 1960.62 0"/><polygon class="cls-1" points="1973.48 0 1980.62 11.49 1987.76 0 1973.48 0"/><polygon class="cls-1" points="2146.49 53.02 2113.53 0 2080.57 53.02 2082.14 53.02 2113.53 2.53 2144.92 53.02 2146.49 53.02"/><polygon class="cls-1" points="2133.53 53.02 2113.53 20.86 2093.53 53.02 2095.11 53.02 2113.53 23.39 2131.95 53.02 2133.53 53.02"/><polygon class="cls-1" points="2120.67 53.02 2113.53 41.53 2106.39 53.02 2120.67 53.02"/><polygon class="cls-1" points="2102.19 0 2100.62 0 2069.23 50.49 2037.84 0 2036.26 0 2069.23 53.02 2102.19 0"/><polygon class="cls-1" points="2049.23 0 2069.23 32.16 2089.22 0 2087.65 0 2069.23 29.63 2050.8 0 2049.23 0"/><polygon class="cls-1" points="2062.08 0 2069.23 11.49 2076.37 0 2062.08 0"/><polygon class="cls-1" points="2235.1 53.02 2202.14 0 2169.17 53.02 2170.75 53.02 2202.14 2.53 2233.53 53.02 2235.1 53.02"/><polygon class="cls-1" points="2222.13 53.02 2202.14 20.86 2182.14 53.02 2183.71 53.02 2202.14 23.39 2220.56 53.02 2222.13 53.02"/><polygon class="cls-1" points="2209.28 53.02 2202.14 41.53 2194.99 53.02 2209.28 53.02"/><polygon class="cls-1" points="2190.8 0 2189.22 0 2157.83 50.49 2126.44 0 2124.87 0 2157.83 53.02 2190.8 0"/><polygon class="cls-1" points="2137.84 0 2157.83 32.16 2177.83 0 2176.26 0 2157.83 29.63 2139.41 0 2137.84 0"/><polygon class="cls-1" points="2150.69 0 2157.83 11.49 2164.98 0 2150.69 0"/><polygon class="cls-1" points="2323.71 53.02 2290.74 0 2257.78 53.02 2259.35 53.02 2290.74 2.53 2322.13 53.02 2323.71 53.02"/><polygon class="cls-1" points="2310.74 53.02 2290.74 20.86 2270.75 53.02 2272.32 53.02 2290.74 23.39 2309.17 53.02 2310.74 53.02"/><polygon class="cls-1" points="2297.89 53.02 2290.74 41.53 2283.6 53.02 2297.89 53.02"/><polygon class="cls-1" points="2279.4 0 2277.83 0 2246.44 50.49 2215.05 0 2213.48 0 2246.44 53.02 2279.4 0"/><polygon class="cls-1" points="2226.44 0 2246.44 32.16 2266.44 0 2264.86 0 2246.44 29.63 2228.02 0 2226.44 0"/><polygon class="cls-1" points="2239.3 0 2246.44 11.49 2253.58 0 2239.3 0"/><polygon class="cls-1" points="2412.31 53.02 2379.35 0 2346.39 53.02 2347.96 53.02 2379.35 2.53 2410.74 53.02 2412.31 53.02"/><polygon class="cls-1" points="2399.35 53.02 2379.35 20.86 2359.35 53.02 2360.93 53.02 2379.35 23.39 2397.77 53.02 2399.35 53.02"/><polygon class="cls-1" points="2386.49 53.02 2379.35 41.53 2372.21 53.02 2386.49 53.02"/><polygon class="cls-1" points="2368.01 0 2366.44 0 2335.05 50.49 2303.66 0 2302.08 0 2335.05 53.02 2368.01 0"/><polygon class="cls-1" points="2315.05 0 2335.05 32.16 2355.04 0 2353.47 0 2335.05 29.63 2316.62 0 2315.05 0"/><polygon class="cls-1" points="2327.9 0 2335.05 11.49 2342.19 0 2327.9 0"/><polygon class="cls-1" points="2500.92 53.02 2467.96 0 2434.99 53.02 2436.57 53.02 2467.96 2.53 2499.35 53.02 2500.92 53.02"/><polygon class="cls-1" points="2487.95 53.02 2467.96 20.86 2447.96 53.02 2449.53 53.02 2467.96 23.39 2486.38 53.02 2487.95 53.02"/><polygon class="cls-1" points="2475.1 53.02 2467.96 41.53 2460.81 53.02 2475.1 53.02"/><polygon class="cls-1" points="2456.62 0 2455.04 0 2423.65 50.49 2392.26 0 2390.69 0 2423.65 53.02 2456.62 0"/><polygon class="cls-1" points="2403.66 0 2423.65 32.16 2443.65 0 2442.08 0 2423.65 29.63 2405.23 0 2403.66 0"/><polygon class="cls-1" points="2416.51 0 2423.65 11.49 2430.8 0 2416.51 0"/><polygon class="cls-1" points="2589.53 53.02 2556.56 0 2523.6 53.02 2525.17 53.02 2556.56 2.53 2587.95 53.02 2589.53 53.02"/><polygon class="cls-1" points="2576.56 53.02 2556.56 20.86 2536.57 53.02 2538.14 53.02 2556.56 23.39 2574.99 53.02 2576.56 53.02"/><polygon class="cls-1" points="2563.71 53.02 2556.56 41.53 2549.42 53.02 2563.71 53.02"/><polygon class="cls-1" points="2545.22 0 2543.65 0 2512.26 50.49 2480.87 0 2479.3 0 2512.26 53.02 2545.22 0"/><polygon class="cls-1" points="2492.26 0 2512.26 32.16 2532.26 0 2530.68 0 2512.26 29.63 2493.84 0 2492.26 0"/><polygon class="cls-1" points="2505.12 0 2512.26 11.49 2519.4 0 2505.12 0"/><polygon class="cls-1" points="2678.13 53.02 2645.17 0 2612.21 53.02 2613.78 53.02 2645.17 2.53 2676.56 53.02 2678.13 53.02"/><polygon class="cls-1" points="2665.17 53.02 2645.17 20.86 2625.17 53.02 2626.75 53.02 2645.17 23.39 2663.59 53.02 2665.17 53.02"/><polygon class="cls-1" points="2652.31 53.02 2645.17 41.53 2638.03 53.02 2652.31 53.02"/><polygon class="cls-1" points="2633.83 0 2632.26 0 2600.87 50.49 2569.48 0 2567.9 0 2600.87 53.02 2633.83 0"/><polygon class="cls-1" points="2580.87 0 2600.87 32.16 2620.86 0 2619.29 0 2600.87 29.63 2582.44 0 2580.87 0"/><polygon class="cls-1" points="2593.72 0 2600.87 11.49 2608.01 0 2593.72 0"/><polygon class="cls-1" points="2766.74 53.02 2733.78 0 2700.81 53.02 2702.39 53.02 2733.78 2.53 2765.17 53.02 2766.74 53.02"/><polygon class="cls-1" points="2753.77 53.02 2733.78 20.86 2713.78 53.02 2715.35 53.02 2733.78 23.39 2752.2 53.02 2753.77 53.02"/><polygon class="cls-1" points="2740.92 53.02 2733.78 41.53 2726.63 53.02 2740.92 53.02"/><polygon class="cls-1" points="2722.44 0 2720.86 0 2689.47 50.49 2658.08 0 2656.51 0 2689.47 53.02 2722.44 0"/><polygon class="cls-1" points="2669.48 0 2689.47 32.16 2709.47 0 2707.9 0 2689.47 29.63 2671.05 0 2669.48 0"/><polygon class="cls-1" points="2682.33 0 2689.47 11.49 2696.62 0 2682.33 0"/><polygon class="cls-1" points="2855.35 53.02 2822.38 0 2789.42 53.02 2790.99 53.02 2822.38 2.53 2853.77 53.02 2855.35 53.02"/><polygon class="cls-1" points="2842.38 53.02 2822.38 20.86 2802.39 53.02 2803.96 53.02 2822.38 23.39 2840.81 53.02 2842.38 53.02"/><polygon class="cls-1" points="2829.53 53.02 2822.38 41.53 2815.24 53.02 2829.53 53.02"/><polygon class="cls-1" points="2811.04 0 2809.47 0 2778.08 50.49 2746.69 0 2745.12 0 2778.08 53.02 2811.04 0"/><polygon class="cls-1" points="2758.08 0 2778.08 32.16 2798.08 0 2796.5 0 2778.08 29.63 2759.66 0 2758.08 0"/><polygon class="cls-1" points="2770.94 0 2778.08 11.49 2785.22 0 2770.94 0"/><polygon class="cls-1" points="2943.95 53.02 2910.99 0 2878.03 53.02 2879.6 53.02 2910.99 2.53 2942.38 53.02 2943.95 53.02"/><polygon class="cls-1" points="2930.99 53.02 2910.99 20.86 2890.99 53.02 2892.57 53.02 2910.99 23.39 2929.41 53.02 2930.99 53.02"/><polygon class="cls-1" points="2918.13 53.02 2910.99 41.53 2903.85 53.02 2918.13 53.02"/><polygon class="cls-1" points="2899.65 0 2898.08 0 2866.69 50.49 2835.3 0 2833.72 0 2866.69 53.02 2899.65 0"/><polygon class="cls-1" points="2846.69 0 2866.69 32.16 2886.68 0 2885.11 0 2866.69 29.63 2848.26 0 2846.69 0"/><polygon class="cls-1" points="2859.54 0 2866.69 11.49 2873.83 0 2859.54 0"/><polygon class="cls-1" points="3032.56 53.02 2999.6 0 2966.63 53.02 2968.21 53.02 2999.6 2.53 3030.99 53.02 3032.56 53.02"/><polygon class="cls-1" points="3019.59 53.02 2999.6 20.86 2979.6 53.02 2981.17 53.02 2999.6 23.39 3018.02 53.02 3019.59 53.02"/><polygon class="cls-1" points="3006.74 53.02 2999.6 41.53 2992.45 53.02 3006.74 53.02"/><polygon class="cls-1" points="2988.26 0 2986.68 0 2955.29 50.49 2923.9 0 2922.33 0 2955.29 53.02 2988.26 0"/><polygon class="cls-1" points="2935.3 0 2955.29 32.16 2975.29 0 2973.72 0 2955.29 29.63 2936.87 0 2935.3 0"/><polygon class="cls-1" points="2948.15 0 2955.29 11.49 2962.44 0 2948.15 0"/><polygon class="cls-1" points="3121.17 53.02 3088.2 0 3055.24 53.02 3056.81 53.02 3088.2 2.53 3119.59 53.02 3121.17 53.02"/><polygon class="cls-1" points="3108.2 53.02 3088.2 20.86 3068.21 53.02 3069.78 53.02 3088.2 23.39 3106.63 53.02 3108.2 53.02"/><polygon class="cls-1" points="3095.35 53.02 3088.2 41.53 3081.06 53.02 3095.35 53.02"/><polygon class="cls-1" points="3076.86 0 3075.29 0 3043.9 50.49 3012.51 0 3010.94 0 3043.9 53.02 3076.86 0"/><polygon class="cls-1" points="3023.91 0 3043.9 32.16 3063.9 0 3062.32 0 3043.9 29.63 3025.48 0 3023.91 0"/><polygon class="cls-1" points="3036.76 0 3043.9 11.49 3051.04 0 3036.76 0"/><polygon class="cls-1" points="3209.77 53.02 3176.81 0 3143.85 53.02 3145.42 53.02 3176.81 2.53 3208.2 53.02 3209.77 53.02"/><polygon class="cls-1" points="3196.81 53.02 3176.81 20.86 3156.82 53.02 3158.39 53.02 3176.81 23.39 3195.23 53.02 3196.81 53.02"/><polygon class="cls-1" points="3183.95 53.02 3176.81 41.53 3169.67 53.02 3183.95 53.02"/><polygon class="cls-1" points="3165.47 0 3163.9 0 3132.51 50.49 3101.12 0 3099.54 0 3132.51 53.02 3165.47 0"/><polygon class="cls-1" points="3112.51 0 3132.51 32.16 3152.5 0 3150.93 0 3132.51 29.63 3114.09 0 3112.51 0"/><polygon class="cls-1" points="3125.36 0 3132.51 11.49 3139.65 0 3125.36 0"/><polygon class="cls-1" points="3298.38 53.02 3265.42 0 3232.45 53.02 3234.03 53.02 3265.42 2.53 3296.81 53.02 3298.38 53.02"/><polygon class="cls-1" points="3285.41 53.02 3265.42 20.86 3245.42 53.02 3246.99 53.02 3265.42 23.39 3283.84 53.02 3285.41 53.02"/><polygon class="cls-1" points="3272.56 53.02 3265.42 41.53 3258.27 53.02 3272.56 53.02"/><polygon class="cls-1" points="3254.08 0 3252.5 0 3221.11 50.49 3189.72 0 3188.15 0 3221.11 53.02 3254.08 0"/><polygon class="cls-1" points="3201.12 0 3221.11 32.16 3241.11 0 3239.54 0 3221.11 29.63 3202.69 0 3201.12 0"/><polygon class="cls-1" points="3213.97 0 3221.11 11.49 3228.26 0 3213.97 0"/><polygon class="cls-1" points="3385.64 53.02 3352.68 0 3319.71 53.02 3321.29 53.02 3352.68 2.53 3384.07 53.02 3385.64 53.02"/><polygon class="cls-1" points="3372.67 53.02 3352.68 20.86 3332.68 53.02 3334.25 53.02 3352.68 23.39 3371.1 53.02 3372.67 53.02"/><polygon class="cls-1" points="3359.82 53.02 3352.68 41.53 3345.53 53.02 3359.82 53.02"/><polygon class="cls-1" points="3341.34 0 3339.76 0 3308.37 50.49 3276.98 0 3275.41 0 3308.37 53.02 3341.34 0"/><polygon class="cls-1" points="3288.38 0 3308.37 32.16 3328.37 0 3326.8 0 3308.37 29.63 3289.95 0 3288.38 0"/><polygon class="cls-1" points="3301.23 0 3308.37 11.49 3315.52 0 3301.23 0"/><polygon class="cls-1" points="3474.25 53.02 3441.28 0 3408.32 53.02 3409.89 53.02 3441.28 2.53 3472.67 53.02 3474.25 53.02"/><polygon class="cls-1" points="3461.28 53.02 3441.28 20.86 3421.29 53.02 3422.86 53.02 3441.28 23.39 3459.71 53.02 3461.28 53.02"/><polygon class="cls-1" points="3448.43 53.02 3441.28 41.53 3434.14 53.02 3448.43 53.02"/><polygon class="cls-1" points="3429.94 0 3428.37 0 3396.98 50.49 3365.59 0 3364.02 0 3396.98 53.02 3429.94 0"/><polygon class="cls-1" points="3376.98 0 3396.98 32.16 3416.98 0 3415.4 0 3396.98 29.63 3378.56 0 3376.98 0"/><polygon class="cls-1" points="3389.84 0 3396.98 11.49 3404.12 0 3389.84 0"/><polygon class="cls-1" points="3562.85 53.02 3529.89 0 3496.93 53.02 3498.5 53.02 3529.89 2.53 3561.28 53.02 3562.85 53.02"/><polygon class="cls-1" points="3549.89 53.02 3529.89 20.86 3509.89 53.02 3511.47 53.02 3529.89 23.39 3548.31 53.02 3549.89 53.02"/><polygon class="cls-1" points="3537.03 53.02 3529.89 41.53 3522.75 53.02 3537.03 53.02"/><polygon class="cls-1" points="3518.55 0 3516.98 0 3485.59 50.49 3454.2 0 3452.62 0 3485.59 53.02 3518.55 0"/><polygon class="cls-1" points="3465.59 0 3485.59 32.16 3505.58 0 3504.01 0 3485.59 29.63 3467.16 0 3465.59 0"/><polygon class="cls-1" points="3478.44 0 3485.59 11.49 3492.73 0 3478.44 0"/><polygon class="cls-1" points="110.23 53.02 77.27 0 44.3 53.02 45.88 53.02 77.27 2.53 108.66 53.02 110.23 53.02"/><polygon class="cls-1" points="97.26 53.02 77.27 20.86 57.27 53.02 58.84 53.02 77.27 23.39 95.69 53.02 97.26 53.02"/><polygon class="cls-1" points="84.41 53.02 77.27 41.53 70.12 53.02 84.41 53.02"/><polygon class="cls-1" points="65.93 0 64.35 0 32.96 50.49 1.57 0 0 0 32.96 53.02 65.93 0"/><polygon class="cls-1" points="12.97 0 32.96 32.16 52.96 0 51.39 0 32.96 29.63 14.54 0 12.97 0"/><polygon class="cls-1" points="25.82 0 32.96 11.49 40.11 0 25.82 0"/><polygon class="cls-1" points="198.84 53.02 165.87 0 132.91 53.02 134.48 53.02 165.87 2.53 197.26 53.02 198.84 53.02"/><polygon class="cls-1" points="185.87 53.02 165.87 20.86 145.88 53.02 147.45 53.02 165.87 23.39 184.3 53.02 185.87 53.02"/><polygon class="cls-1" points="173.02 53.02 165.87 41.53 158.73 53.02 173.02 53.02"/><polygon class="cls-1" points="154.53 0 152.96 0 121.57 50.49 90.18 0 88.61 0 121.57 53.02 154.53 0"/><polygon class="cls-1" points="101.57 0 121.57 32.16 141.57 0 139.99 0 121.57 29.63 103.15 0 101.57 0"/><polygon class="cls-1" points="114.43 0 121.57 11.49 128.71 0 114.43 0"/><polygon class="cls-1" points="287.44 53.02 254.48 0 221.52 53.02 223.09 53.02 254.48 2.53 285.87 53.02 287.44 53.02"/><polygon class="cls-1" points="274.48 53.02 254.48 20.86 234.48 53.02 236.06 53.02 254.48 23.39 272.9 53.02 274.48 53.02"/><polygon class="cls-1" points="261.62 53.02 254.48 41.53 247.34 53.02 261.62 53.02"/><polygon class="cls-1" points="243.14 0 241.57 0 210.18 50.49 178.79 0 177.21 0 210.18 53.02 243.14 0"/><polygon class="cls-1" points="190.18 0 210.18 32.16 230.17 0 228.6 0 210.18 29.63 191.75 0 190.18 0"/><polygon class="cls-1" points="203.03 0 210.18 11.49 217.32 0 203.03 0"/><polygon class="cls-1" points="376.05 53.02 343.09 0 310.12 53.02 311.7 53.02 343.09 2.53 374.48 53.02 376.05 53.02"/><polygon class="cls-1" points="363.08 53.02 343.09 20.86 323.09 53.02 324.66 53.02 343.09 23.39 361.51 53.02 363.08 53.02"/><polygon class="cls-1" points="350.23 53.02 343.09 41.53 335.94 53.02 350.23 53.02"/><polygon class="cls-1" points="331.75 0 330.17 0 298.78 50.49 267.39 0 265.82 0 298.78 53.02 331.75 0"/><polygon class="cls-1" points="278.79 0 298.78 32.16 318.78 0 317.21 0 298.78 29.63 280.36 0 278.79 0"/><polygon class="cls-1" points="291.64 0 298.78 11.49 305.93 0 291.64 0"/><polygon class="cls-1" points="464.66 53.02 431.69 0 398.73 53.02 400.3 53.02 431.69 2.53 463.08 53.02 464.66 53.02"/><polygon class="cls-1" points="451.69 53.02 431.69 20.86 411.7 53.02 413.27 53.02 431.69 23.39 450.12 53.02 451.69 53.02"/><polygon class="cls-1" points="438.84 53.02 431.69 41.53 424.55 53.02 438.84 53.02"/><polygon class="cls-1" points="420.35 0 418.78 0 387.39 50.49 356 0 354.43 0 387.39 53.02 420.35 0"/><polygon class="cls-1" points="367.39 0 387.39 32.16 407.39 0 405.81 0 387.39 29.63 368.97 0 367.39 0"/><polygon class="cls-1" points="380.25 0 387.39 11.49 394.53 0 380.25 0"/><polygon class="cls-1" points="553.26 53.02 520.3 0 487.34 53.02 488.91 53.02 520.3 2.53 551.69 53.02 553.26 53.02"/><polygon class="cls-1" points="540.3 53.02 520.3 20.86 500.3 53.02 501.88 53.02 520.3 23.39 538.72 53.02 540.3 53.02"/><polygon class="cls-1" points="527.44 53.02 520.3 41.53 513.16 53.02 527.44 53.02"/><polygon class="cls-1" points="508.96 0 507.39 0 476 50.49 444.61 0 443.03 0 476 53.02 508.96 0"/><polygon class="cls-1" points="456 0 476 32.16 495.99 0 494.42 0 476 29.63 457.57 0 456 0"/><polygon class="cls-1" points="468.85 0 476 11.49 483.14 0 468.85 0"/><polygon class="cls-1" points="641.87 53.02 608.91 0 575.94 53.02 577.52 53.02 608.91 2.53 640.3 53.02 641.87 53.02"/><polygon class="cls-1" points="628.9 53.02 608.91 20.86 588.91 53.02 590.48 53.02 608.91 23.39 627.33 53.02 628.9 53.02"/><polygon class="cls-1" points="616.05 53.02 608.91 41.53 601.76 53.02 616.05 53.02"/><polygon class="cls-1" points="597.57 0 595.99 0 564.6 50.49 533.21 0 531.64 0 564.6 53.02 597.57 0"/><polygon class="cls-1" points="544.61 0 564.6 32.16 584.6 0 583.03 0 564.6 29.63 546.18 0 544.61 0"/><polygon class="cls-1" points="557.46 0 564.6 11.49 571.75 0 557.46 0"/><polygon class="cls-1" points="730.48 53.02 697.51 0 664.55 53.02 666.12 53.02 697.51 2.53 728.9 53.02 730.48 53.02"/><polygon class="cls-1" points="717.51 53.02 697.51 20.86 677.52 53.02 679.09 53.02 697.51 23.39 715.94 53.02 717.51 53.02"/><polygon class="cls-1" points="704.66 53.02 697.51 41.53 690.37 53.02 704.66 53.02"/><polygon class="cls-1" points="686.17 0 684.6 0 653.21 50.49 621.82 0 620.25 0 653.21 53.02 686.17 0"/><polygon class="cls-1" points="633.21 0 653.21 32.16 673.21 0 671.63 0 653.21 29.63 634.79 0 633.21 0"/><polygon class="cls-1" points="646.07 0 653.21 11.49 660.35 0 646.07 0"/><polygon class="cls-1" points="819.08 53.02 786.12 0 753.16 53.02 754.73 53.02 786.12 2.53 817.51 53.02 819.08 53.02"/><polygon class="cls-1" points="806.12 53.02 786.12 20.86 766.12 53.02 767.7 53.02 786.12 23.39 804.54 53.02 806.12 53.02"/><polygon class="cls-1" points="793.26 53.02 786.12 41.53 778.98 53.02 793.26 53.02"/><polygon class="cls-1" points="774.78 0 773.21 0 741.82 50.49 710.43 0 708.85 0 741.82 53.02 774.78 0"/><polygon class="cls-1" points="721.82 0 741.82 32.16 761.81 0 760.24 0 741.82 29.63 723.39 0 721.82 0"/><polygon class="cls-1" points="734.67 0 741.82 11.49 748.96 0 734.67 0"/><polygon class="cls-1" points="907.69 53.02 874.73 0 841.76 53.02 843.34 53.02 874.73 2.53 906.12 53.02 907.69 53.02"/><polygon class="cls-1" points="894.72 53.02 874.73 20.86 854.73 53.02 856.3 53.02 874.73 23.39 893.15 53.02 894.72 53.02"/><polygon class="cls-1" points="881.87 53.02 874.73 41.53 867.58 53.02 881.87 53.02"/><polygon class="cls-1" points="863.39 0 861.81 0 830.42 50.49 799.03 0 797.46 0 830.42 53.02 863.39 0"/><polygon class="cls-1" points="810.43 0 830.42 32.16 850.42 0 848.85 0 830.42 29.63 812 0 810.43 0"/><polygon class="cls-1" points="823.28 0 830.42 11.49 837.57 0 823.28 0"/><polygon class="cls-1" points="996.3 53.02 963.33 0 930.37 53.02 931.94 53.02 963.33 2.53 994.72 53.02 996.3 53.02"/><polygon class="cls-1" points="983.33 53.02 963.33 20.86 943.34 53.02 944.91 53.02 963.33 23.39 981.76 53.02 983.33 53.02"/><polygon class="cls-1" points="970.48 53.02 963.33 41.53 956.19 53.02 970.48 53.02"/><polygon class="cls-1" points="951.99 0 950.42 0 919.03 50.49 887.64 0 886.07 0 919.03 53.02 951.99 0"/><polygon class="cls-1" points="899.03 0 919.03 32.16 939.03 0 937.45 0 919.03 29.63 900.61 0 899.03 0"/><polygon class="cls-1" points="911.89 0 919.03 11.49 926.17 0 911.89 0"/><polygon class="cls-1" points="1084.9 53.02 1051.94 0 1018.98 53.02 1020.55 53.02 1051.94 2.53 1083.33 53.02 1084.9 53.02"/><polygon class="cls-1" points="1071.94 53.02 1051.94 20.86 1031.94 53.02 1033.52 53.02 1051.94 23.39 1070.36 53.02 1071.94 53.02"/><polygon class="cls-1" points="1059.08 53.02 1051.94 41.53 1044.8 53.02 1059.08 53.02"/><polygon class="cls-1" points="1040.6 0 1039.03 0 1007.64 50.49 976.25 0 974.67 0 1007.64 53.02 1040.6 0"/><polygon class="cls-1" points="987.64 0 1007.64 32.16 1027.63 0 1026.06 0 1007.64 29.63 989.22 0 987.64 0"/><polygon class="cls-1" points="1000.49 0 1007.64 11.49 1014.78 0 1000.49 0"/><polygon class="cls-1" points="1173.51 53.02 1140.55 0 1107.58 53.02 1109.16 53.02 1140.55 2.53 1171.94 53.02 1173.51 53.02"/><polygon class="cls-1" points="1160.54 53.02 1140.55 20.86 1120.55 53.02 1122.13 53.02 1140.55 23.39 1158.97 53.02 1160.54 53.02"/><polygon class="cls-1" points="1147.69 53.02 1140.55 41.53 1133.4 53.02 1147.69 53.02"/><polygon class="cls-1" points="1129.21 0 1127.63 0 1096.24 50.49 1064.85 0 1063.28 0 1096.24 53.02 1129.21 0"/><polygon class="cls-1" points="1076.25 0 1096.24 32.16 1116.24 0 1114.67 0 1096.24 29.63 1077.82 0 1076.25 0"/><polygon class="cls-1" points="1089.1 0 1096.24 11.49 1103.39 0 1089.1 0"/><polygon class="cls-1" points="1262.12 53.02 1229.15 0 1196.19 53.02 1197.76 53.02 1229.15 2.53 1260.54 53.02 1262.12 53.02"/><polygon class="cls-1" points="1249.15 53.02 1229.15 20.86 1209.16 53.02 1210.73 53.02 1229.15 23.39 1247.58 53.02 1249.15 53.02"/><polygon class="cls-1" points="1236.3 53.02 1229.15 41.53 1222.01 53.02 1236.3 53.02"/><polygon class="cls-1" points="1217.81 0 1216.24 0 1184.85 50.49 1153.46 0 1151.89 0 1184.85 53.02 1217.81 0"/><polygon class="cls-1" points="1164.86 0 1184.85 32.16 1204.85 0 1203.27 0 1184.85 29.63 1166.43 0 1164.86 0"/><polygon class="cls-1" points="1177.71 0 1184.85 11.49 1191.99 0 1177.71 0"/><polygon class="cls-1" points="1350.72 53.02 1317.76 0 1284.8 53.02 1286.37 53.02 1317.76 2.53 1349.15 53.02 1350.72 53.02"/><polygon class="cls-1" points="1337.76 53.02 1317.76 20.86 1297.77 53.02 1299.34 53.02 1317.76 23.39 1336.18 53.02 1337.76 53.02"/><polygon class="cls-1" points="1324.9 53.02 1317.76 41.53 1310.62 53.02 1324.9 53.02"/><polygon class="cls-1" points="1306.42 0 1304.85 0 1273.46 50.49 1242.07 0 1240.49 0 1273.46 53.02 1306.42 0"/><polygon class="cls-1" points="1253.46 0 1273.46 32.16 1293.45 0 1291.88 0 1273.46 29.63 1255.04 0 1253.46 0"/><polygon class="cls-1" points="1266.32 0 1273.46 11.49 1280.6 0 1266.32 0"/><polygon class="cls-1" points="1439.33 53.02 1406.37 0 1373.4 53.02 1374.98 53.02 1406.37 2.53 1437.76 53.02 1439.33 53.02"/><polygon class="cls-1" points="1426.36 53.02 1406.37 20.86 1386.37 53.02 1387.94 53.02 1406.37 23.39 1424.79 53.02 1426.36 53.02"/><polygon class="cls-1" points="1413.51 53.02 1406.37 41.53 1399.22 53.02 1413.51 53.02"/><polygon class="cls-1" points="1395.03 0 1393.45 0 1362.06 50.49 1330.67 0 1329.1 0 1362.06 53.02 1395.03 0"/><polygon class="cls-1" points="1342.07 0 1362.06 32.16 1382.06 0 1380.49 0 1362.06 29.63 1343.64 0 1342.07 0"/><polygon class="cls-1" points="1354.92 0 1362.06 11.49 1369.21 0 1354.92 0"/><polygon class="cls-1" points="1527.94 53.02 1494.97 0 1462.01 53.02 1463.58 53.02 1494.97 2.53 1526.36 53.02 1527.94 53.02"/><polygon class="cls-1" points="1514.97 53.02 1494.97 20.86 1474.98 53.02 1476.55 53.02 1494.97 23.39 1513.4 53.02 1514.97 53.02"/><polygon class="cls-1" points="1502.12 53.02 1494.97 41.53 1487.83 53.02 1502.12 53.02"/><polygon class="cls-1" points="1483.63 0 1482.06 0 1450.67 50.49 1419.28 0 1417.71 0 1450.67 53.02 1483.63 0"/><polygon class="cls-1" points="1430.67 0 1450.67 32.16 1470.67 0 1469.09 0 1450.67 29.63 1432.25 0 1430.67 0"/><polygon class="cls-1" points="1443.53 0 1450.67 11.49 1457.81 0 1443.53 0"/><polygon class="cls-1" points="1615.2 53.02 1582.23 0 1549.27 53.02 1550.84 53.02 1582.23 2.53 1613.62 53.02 1615.2 53.02"/><polygon class="cls-1" points="1602.23 53.02 1582.23 20.86 1562.24 53.02 1563.81 53.02 1582.23 23.39 1600.66 53.02 1602.23 53.02"/><polygon class="cls-1" points="1589.38 53.02 1582.23 41.53 1575.09 53.02 1589.38 53.02"/><polygon class="cls-1" points="1570.89 0 1569.32 0 1537.93 50.49 1506.54 0 1504.97 0 1537.93 53.02 1570.89 0"/><polygon class="cls-1" points="1517.93 0 1537.93 32.16 1557.93 0 1556.35 0 1537.93 29.63 1519.51 0 1517.93 0"/><polygon class="cls-1" points="1530.79 0 1537.93 11.49 1545.07 0 1530.79 0"/><polygon class="cls-1" points="1703.8 53.02 1670.84 0 1637.88 53.02 1639.45 53.02 1670.84 2.53 1702.23 53.02 1703.8 53.02"/><polygon class="cls-1" points="1690.84 53.02 1670.84 20.86 1650.84 53.02 1652.42 53.02 1670.84 23.39 1689.26 53.02 1690.84 53.02"/><polygon class="cls-1" points="1677.98 53.02 1670.84 41.53 1663.7 53.02 1677.98 53.02"/><polygon class="cls-1" points="1659.5 0 1657.93 0 1626.54 50.49 1595.15 0 1593.57 0 1626.54 53.02 1659.5 0"/><polygon class="cls-1" points="1606.54 0 1626.54 32.16 1646.53 0 1644.96 0 1626.54 29.63 1608.11 0 1606.54 0"/><polygon class="cls-1" points="1619.39 0 1626.54 11.49 1633.68 0 1619.39 0"/><polygon class="cls-1" points="1792.41 53.02 1759.45 0 1726.48 53.02 1728.06 53.02 1759.45 2.53 1790.84 53.02 1792.41 53.02"/><polygon class="cls-1" points="1779.44 53.02 1759.45 20.86 1739.45 53.02 1741.02 53.02 1759.45 23.39 1777.87 53.02 1779.44 53.02"/><polygon class="cls-1" points="1766.59 53.02 1759.45 41.53 1752.3 53.02 1766.59 53.02"/><polygon class="cls-1" points="1748.11 0 1746.53 0 1715.14 50.49 1683.75 0 1682.18 0 1715.14 53.02 1748.11 0"/><polygon class="cls-1" points="1695.15 0 1715.14 32.16 1735.14 0 1733.57 0 1715.14 29.63 1696.72 0 1695.15 0"/><polygon class="cls-1" points="1708 0 1715.14 11.49 1722.29 0 1708 0"/></g></g></svg>